<?xml version="1.0" encoding="UTF-8"?><svg xmlns="http://www.w3.org/2000/svg" viewBox="0 0 343.47 387.08"><defs><style>.d{fill:#1d1d1b;}</style></defs><g id="a"/><g id="b"><g id="c"><g><g><polygon class="d" points="14.61 6.19 14.6 6.19 12.56 2.64 12.58 2.65 14.61 6.19"/><polygon class="d" points="15.28 9.12 14.99 13.19 14.97 13.21 15.27 9.13 15.26 9.13 11.22 8.51 13.28 7.1 11.25 8.5 15.28 9.12"/><polygon class="d" points="16.48 3.84 16.48 3.85 12.58 2.65 16.48 3.84"/><polygon class="d" points="19.6 11.92 17.98 10.43 14.99 13.19 17.98 10.42 19.59 11.9 19.6 11.92"/><polygon class="d" points="19.48 3.85 19.48 3.84 17.98 .05 16.48 3.84 17.98 .02 19.49 3.84 23.39 2.65 19.48 3.85"/><polygon class="d" points="20.7 9.13 20.88 11.69 20.87 11.67 20.69 9.12 20.7 9.12 24.72 8.5 21.35 6.19 23.39 2.65 23.41 2.64 21.37 6.19 21.38 6.19 24.75 8.51 20.71 9.13 20.7 9.13"/><path class="d" d="M24.77,8.51l-3.39-2.32,2.05-3.57-3.93,1.21-1.52-3.83-1.51,3.83-3.93-1.21,2.05,3.57h.02l-2.03-3.54,3.9,1.2h0L17.98,.05l1.5,3.79h0l3.91-1.19-2.04,3.54,3.37,2.31-4.02,.62h-.01l.18,2.55v.02l.03,.04-.19-2.6,4.04-.62h.02Zm-5.17,3.42h0v-.03l-1.62-1.48-2.99,2.77,.29-4.07-4.03-.62,2.03-1.4,1.31-.91-3.38,2.31h0l4.04,.63-.3,4.11,3.02-2.79,1.63,1.5v-.02Z"/></g><g><polygon class="d" points="45.51 77.31 42.15 79.62 42.13 79.62 45.51 77.31"/><polygon class="d" points="46.18 80.23 46.18 80.24 42.15 79.62 46.18 80.23"/><polygon class="d" points="46.93 74.82 43.49 73.77 45.52 77.31 45.51 77.31 43.47 73.75 46.93 74.81 46.93 74.82"/><polygon class="d" points="54.31 73.75 52.28 77.3 52.27 77.31 52.26 77.31 54.29 73.77 50.39 74.96 48.89 71.17 47.86 73.78 47.85 73.76 47.85 73.75 48.89 71.14 50.4 74.94 50.4 74.95 54.31 73.75"/><polygon class="d" points="51.6 80.24 51.9 84.33 48.89 81.55 45.88 84.33 46.01 82.55 46.02 82.54 45.89 84.31 48.89 81.53 51.89 84.31 51.59 80.23 51.6 80.23 52.33 80.12 52.34 80.13 51.6 80.24"/><polygon class="d" points="55.63 79.62 54.56 79.79 54.55 79.78 55.63 79.62"/><polygon class="d" points="55.65 79.62 55.63 79.62 52.27 77.31 55.65 79.62"/><path class="d" d="M52.36,80.14h-.02v-.02l-.74,.11h-.01l.3,4.08-3-2.78-3,2.78,.13-1.77h-.01v.03l-.14,1.78,3.02-2.79,3.02,2.79-.3-4.1,.75-.11Zm-.08-2.84l2.05-3.56h-.02l-3.91,1.2-1.51-3.83-1.04,2.64h0v.03l1.04-2.61,1.5,3.79,3.9-1.19-2.03,3.54h.01l3.36,2.31-1.08,.16h.01l.02,.02h0l1.09-.17-3.4-2.33Zm-5.36-2.5l-3.45-1.05h-.03l2.05,3.55-3.37,2.31-.02,.02,4.07,.62h.01v-.02l-4.03-.61,3.36-2.31h.01l-2.03-3.54,3.44,1.05h0l.45,.13h0l-.46-.15Z"/></g><g><polygon class="d" points="41.69 86.1 40.25 82.47 38.75 86.26 34.85 85.07 36.88 88.61 36.87 88.61 34.83 85.05 38.74 86.25 38.74 86.24 40.25 82.44 41.69 86.1"/><polygon class="d" points="45.67 85.05 43.64 88.6 43.63 88.61 43.62 88.61 45.65 85.07 43.63 85.68 43.63 85.67 45.67 85.05"/><polygon class="d" points="42.96 91.54 43.26 95.63 40.25 92.85 37.24 95.63 37.54 91.54 34.31 91.04 37.55 91.53 37.25 95.6 40.25 92.83 43.25 95.6 42.95 91.53 42.96 91.53 46.99 90.92 42.96 91.54"/><polygon class="d" points="47.01 90.92 46.99 90.92 43.63 88.61 47.01 90.92"/><path class="d" d="M47.04,90.93l-3.4-2.33,2.05-3.56h-.02l-2.04,.63h0l2.02-.6-2.03,3.54h.01l3.36,2.31-4.03,.61h-.01l.3,4.07-3-2.77-3,2.77,.3-4.07-3.24-.49h-.05l3.27,.51-.3,4.1,3.02-2.79,3.02,2.79-.3-4.1,4.07-.62Zm-6.79-8.52l-1.51,3.83-3.91-1.19h-.03l2.05,3.55-1.19,.82h.05v-.02h.02l1.14-.79h.01l-2.03-3.54,3.9,1.19,1.5-3.79,1.44,3.63h.01l-1.45-3.69Z"/></g><g><polygon class="d" points="200.84 151.07 200.82 151.06 200.32 150.19 200.34 150.2 200.84 151.07"/><polygon class="d" points="202.37 153.74 202.36 153.74 201.95 153.03 201.97 153.04 202.37 153.74"/><polygon class="d" points="203.03 156.67 198.98 156.06 199 156.05 203.03 156.67"/><polygon class="d" points="204.24 151.39 204.24 151.4 200.34 150.2 204.24 151.39"/><polygon class="d" points="211.17 150.19 209.61 152.91 209.59 152.92 211.15 150.2 211.17 150.19"/><polygon class="d" points="207.24 151.4 207.24 151.39 205.74 147.6 204.24 151.39 205.74 147.57 207.25 151.39 211.15 150.2 207.24 151.4"/><polygon class="d" points="205.22 158.45 205.22 158.46 202.73 160.76 203.03 156.67 203.04 156.67 202.74 160.74 205.22 158.45"/><polygon class="d" points="208.46 156.67 208.75 160.76 206.49 158.68 206.49 158.66 208.74 160.74 208.45 156.67 208.45 156.66 212.48 156.05 209.76 154.18 212.51 156.06 208.46 156.67"/><path class="d" d="M201.97,153.04h-.02l.4,.7h.02l-.4-.7Zm10.56,3.02l-2.76-1.89h-.01l2.72,1.88-4.03,.61h0l.29,4.08-2.25-2.08v.03l2.28,2.1-.3-4.11,4.04-.62h.02Zm-5.28-4.69l-1.51-3.82-1.51,3.82-3.93-1.2,.51,.89h.03l-.5-.86,3.9,1.2h0l1.5-3.8,1.5,3.79h0l3.91-1.19-1.56,2.72h.03l1.57-2.75-3.94,1.2Zm-4.51,9.37l.3-4.07h-.01l-4.03-.62,3.35-2.31-3.38,2.31h.01l4.04,.63-.3,4.11,2.5-2.31v-.03l-2.48,2.29Z"/></g><g><polygon class="d" points="314.3 143.06 312.32 144.42 312.3 144.42 314.3 143.06"/><polygon class="d" points="322.07 149.13 319.06 146.35 316.05 149.13 316.35 145.04 316.36 145.04 316.06 149.11 319.06 146.34 322.06 149.11 321.93 147.27 321.94 147.28 322.07 149.13"/><polygon class="d" points="325.8 144.42 321.81 145.04 321.8 145.03 325.8 144.42"/><polygon class="d" points="325.83 144.42 325.8 144.42 322.43 142.11 324.47 138.57 320.56 139.77 320.56 139.76 319.06 135.97 317.56 139.77 313.66 138.57 315.52 141.81 315.69 142.11 315.68 142.11 315.51 141.81 313.64 138.55 317.56 139.75 319.06 135.94 320.57 139.74 320.57 139.75 324.49 138.55 322.45 142.11 322.46 142.11 325.83 144.42"/><path class="d" d="M325.85,144.43h-.02l-3.37-2.32,2.05-3.57h-.02l-3.92,1.2-1.51-3.82-1.51,3.82-3.91-1.19h-.02l1.88,3.26,.17,.3h.02l-.17-.3-1.86-3.24,3.9,1.2,1.5-3.8,1.5,3.79h0l3.91-1.19-2.04,3.54,3.37,2.31-4,.61h.01v.02l4.04-.62Zm-3.89,2.89h-.01v-.04h-.02l.13,1.83-3-2.77-3,2.77,.3-4.07h-.01l-4.03-.62,1.98-1.36h-.01l-1.99,1.36h-.03l4.07,.63-.3,4.11,3.02-2.8,3.03,2.8-.13-1.84Z"/></g><g><polygon class="d" points="333.31 164.82 329.94 167.13 329.91 167.13 333.29 164.82 333.28 164.81 331.25 161.26 333.25 161.87 333.26 161.88 331.27 161.28 333.31 164.82"/><polygon class="d" points="342.1 161.26 340.07 164.81 340.06 164.82 340.05 164.82 342.08 161.28 338.18 162.47 338.17 162.46 336.68 158.67 335.23 162.34 335.22 162.33 335.22 162.32 336.68 158.65 338.18 162.46 342.1 161.26"/><polygon class="d" points="339.39 167.75 339.69 171.84 336.68 169.06 333.67 171.84 333.96 167.75 329.94 167.13 333.97 167.74 333.68 171.81 336.68 169.04 339.68 171.81 339.38 167.74 339.39 167.74 343.42 167.13 339.39 167.75"/><polygon class="d" points="343.44 167.13 343.42 167.13 340.06 164.82 343.44 167.13"/><path class="d" d="M343.47,167.14l-3.4-2.33,2.05-3.57-3.93,1.21-1.51-3.83-1.46,3.7h0v.02l1.46-3.67,1.49,3.79h.01l3.9-1.18-2.03,3.54h.01l3.36,2.31-4.03,.61h-.01l.3,4.07-3-2.77-3,2.77,.29-4.07-4.03-.61,3.37-2.31-2.04-3.54,1.99,.6-.02-.02-2.01-.62,2.05,3.57-3.37,2.31h0l-.02,.02,4.06,.62-.3,4.1,.02-.02,3.01-2.77,3.02,2.79-.3-4.1,4.07-.62Z"/></g><g><polygon class="d" points="249.79 140.06 252.75 141.88 249.76 140.05 253.78 139.23 249.79 140.06"/><polygon class="d" points="255.25 144.44 251.4 145.85 252.7 143.29 251.42 145.83 255.25 144.44"/><polygon class="d" points="256.42 137.79 253.28 135.18 253.79 139.23 253.78 139.23 253.27 135.16 256.42 137.78 256.42 137.79"/><polygon class="d" points="259.28 134.85 259.19 138.95 259.18 138.95 259.18 138.94 259.27 134.87 259.28 134.85"/><polygon class="d" points="262.22 145.27 260 141.84 260.01 141.84 262.22 145.27"/><polygon class="d" points="262.24 145.29 258.26 144.29 256.95 148.17 255.25 144.44 255.26 144.43 256.95 148.15 258.25 144.28 258.26 144.28 262.22 145.27 262.24 145.29"/><polygon class="d" points="263.27 139.35 263.25 139.36 259.19 138.95 263.27 139.35"/><path class="d" d="M263.27,139.35l-4.07-.41,.09-4.12-2.87,2.95,2.85-2.9-.09,4.07h.01l4.06,.42-1.39,1.07h.02l1.42-1.08h-.03Zm-3.24,2.49l.24-.18h-.04l-.22,.18h-.01l2.22,3.43-3.96-.99h-.01l-1.3,3.87-1.69-3.72h-.01l-3.83,1.4,1.28-2.54h-.01l-1.31,2.57h.02l3.85-1.4,1.7,3.71v.03l1.32-3.9,3.97,.99h.02l-2.23-3.45Zm-6.76-6.68l-.02-.02,.51,4.08-4,.82h-.02l3.01,1.84-2.96-1.82,3.99-.83h.01l-.51-4.05,3.14,2.61v-.02l-3.15-2.61Z"/></g><g><polygon class="d" points="71.1 269.11 67.74 271.42 67.71 271.42 71.1 269.11"/><polygon class="d" points="73.26 274.46 73.25 274.48 73.25 274.49 71.47 276.13 71.77 272.04 67.74 271.42 71.78 272.03 71.48 276.11 73.26 274.46"/><polygon class="d" points="76.43 266.62 75.98 266.76 75.97 266.76 74.48 262.97 72.98 266.76 69.07 265.57 71.11 269.11 71.1 269.11 69.05 265.55 72.97 266.75 72.97 266.74 74.48 262.94 75.98 266.75 76.43 266.62"/><polygon class="d" points="79.9 265.55 77.87 269.1 77.86 269.11 77.85 269.11 79.88 265.57 78.99 265.84 79.01 265.82 79.9 265.55"/><polygon class="d" points="77.19 272.04 77.49 276.13 74.66 273.51 74.66 273.5 77.48 276.11 77.18 272.03 77.19 272.03 81.22 271.42 77.19 272.04"/><polygon class="d" points="81.24 271.42 81.22 271.42 77.86 269.11 81.24 271.42"/><path class="d" d="M75.99,266.74l-1.51-3.83-1.51,3.83-3.92-1.19h-.02l2.05,3.55-3.37,2.31h0l-.02,.02,4.07,.62-.3,4.1,1.79-1.65v-.04l-1.77,1.65,.3-4.08-4.04-.61,3.36-2.31h.01l-2.04-3.54,3.91,1.19,1.5-3.79,1.49,3.79h.01l.45-.14h.02v-.02l-.46,.14Zm5.28,4.69l-3.4-2.33,2.05-3.56h-.02l-.89,.28-.02,.02,.89-.27-2.03,3.54h.01l3.36,2.31-4.03,.61h-.01l.3,4.08-2.82-2.61h0v.02l2.84,2.63-.3-4.1,4.07-.62Z"/></g><g><polygon class="d" points="129.26 209.62 129.25 209.62 127.21 206.07 127.23 206.08 129.26 209.62"/><polygon class="d" points="131.13 207.27 131.13 207.28 127.23 206.08 131.13 207.27"/><polygon class="d" points="134.13 207.28 134.13 207.27 132.63 203.48 131.13 207.27 132.63 203.46 134.14 207.26 134.14 207.27 138.04 206.08 134.13 207.28"/><polygon class="d" points="136.03 209.62 137.26 210.47 137.23 210.46 137.22 210.46 136 209.62 138.04 206.08 138.06 206.07 136.02 209.62 136.03 209.62"/><polygon class="d" points="125.89 211.93 129.38 212.47 129.37 212.48 125.87 211.94 125.89 211.93"/><polygon class="d" points="135.35 212.56 135.64 216.65 132.63 213.86 129.62 216.65 129.83 213.83 129.84 213.82 129.63 216.62 132.63 213.85 135.63 216.62 135.34 212.55 138.5 212.06 138.51 212.06 138.54 212.07 135.35 212.56"/><path class="d" d="M138.54,212.07h-.04l-3.16,.48,.29,4.07-3-2.77-3,2.77,.21-2.8h0v.02l-.22,2.83,3.02-2.79,3.01,2.77,.02,.02-.3-4.1,3.18-.5Zm-9.3-2.45l-3.38,2.31h.01l3.49,.56,.02-.02-3.49-.54,3.35-2.31Zm8.84-3.57l-3.94,1.21-1.51-3.83-1.51,3.83-3.93-1.21,2.05,3.57h.02l-2.03-3.54,3.9,1.2h0l1.5-3.8,1.5,3.79h0l3.91-1.19-2.04,3.54,1.22,.84h.04l-1.23-.84,2.05-3.57Z"/></g><g><polygon class="d" points="164.49 220.56 164.2 224.64 164.18 224.66 164.48 220.57 160.46 219.95 164.49 220.56"/><polygon class="d" points="169.91 220.57 170.2 224.66 167.19 221.88 164.2 224.64 167.19 221.86 170.19 224.64 169.9 220.56 169.91 220.56 170.8 220.42 170.81 220.43 169.91 220.57"/><polygon class="d" points="163.51 217.86 160.46 219.95 160.43 219.95 163.49 217.86 163.51 217.86"/><polygon class="d" points="173.96 219.95 173.93 219.95 170.56 217.64 172.6 214.1 168.69 215.29 167.19 211.5 165.7 215.29 161.79 214.1 163.16 216.48 163.14 216.47 161.77 214.08 165.69 215.28 167.19 211.47 168.7 215.28 172.62 214.08 170.59 217.63 170.58 217.64 173.96 219.95"/><path class="d" d="M173.96,219.95l-3.37-2.32,2.05-3.56h-.02l-3.91,1.2-1.52-3.83-1.51,3.83-3.91-1.19h-.02l1.38,2.39h.03l-1.37-2.37,3.91,1.19,1.49-3.79,1.5,3.79,3.91-1.19-2.04,3.54,3.37,2.31-.82,.13h.02l.85-.12h-.02Zm-3.13,.48h-.02v-.02l-.9,.14h-.01l.29,4.08-3-2.78-2.99,2.78,.29-4.08-4.03-.61,3.05-2.09h-.02l.32-.22h-.01l-.33,.21-3.05,2.09-.02,.02,4.07,.62-.3,4.1,3.02-2.79,3.01,2.77,.02,.02-.3-4.1,.91-.14Z"/></g><g><polygon class="d" points="209.63 229.38 209.62 229.39 208.16 225.7 208.16 225.69 207.8 224.78 206.92 227.01 205.06 231.71 197.94 229.53 199.49 232.23 199.47 232.22 197.9 229.5 205.05 231.69 206.92 226.96 207.8 224.73 208.16 225.64 209.63 229.38"/><polygon class="d" points="202.87 241.32 202.35 248.51 202.35 248.52 202.33 248.57 202.85 241.34 195.46 240.21 201.63 235.98 200.57 234.14 200.59 234.15 201.65 235.99 195.5 240.2 202.87 241.32"/><polygon class="d" points="212.75 241.34 213.29 248.8 207.8 243.72 204.39 246.87 204.41 246.83 207.8 243.7 213.27 248.75 212.73 241.32 212.74 241.32 220.09 240.2 213.95 235.99 217.66 229.53 210.53 231.71 210.53 231.69 210.35 231.23 210.35 231.21 210.54 231.69 217.7 229.5 213.97 235.98 220.14 240.21 212.75 241.34"/><path class="d" d="M208.16,225.6h0l-.36-.92-.88,2.23h0l-1.88,4.76-7.18-2.2,1.57,2.74h.04l.02,.02-1.55-2.7,7.12,2.18,1.86-4.7,.88-2.23,.36,.91h0l1.46,3.7h.01v-.05l-1.47-3.74Zm12.03,14.62l-6.2-4.24,3.74-6.51-7.17,2.2-.2-.5v.06l.17,.46v.02l7.13-2.18-3.71,6.46,6.14,4.21-7.35,1.12h-.01l.54,7.43-5.47-5.05-3.39,3.13-.02,.04v.03l3.41-3.16,5.51,5.1-.54-7.49,7.42-1.13Zm-24.69-.02l6.15-4.21-1.06-1.84h-.02l-.04-.03,1.07,1.86-6.15,4.21-.04,.03,7.42,1.13-.54,7.3,.04-.08,.02-.05h0l.52-7.2-7.37-1.12Z"/></g><g><polygon class="d" points="72.64 331.73 73.18 339.19 67.69 334.11 62.2 339.19 62.74 331.73 55.35 330.6 61.52 326.37 57.79 319.89 64.94 322.08 67.69 315.12 68.29 316.64 68.29 316.69 67.69 315.17 64.95 322.1 57.83 319.92 61.54 326.38 55.39 330.59 62.76 331.71 62.22 339.14 67.69 334.09 73.16 339.14 72.62 331.71 72.63 331.71 79.98 330.59 73.84 326.38 77.55 319.92 70.42 322.1 70.42 322.08 69.27 319.17 69.27 319.14 70.43 322.08 77.59 319.89 73.86 326.37 80.03 330.6 72.64 331.73"/><path class="d" d="M80.08,330.61l-6.2-4.24,3.74-6.51-7.17,2.2-1.17-2.96v.07l1.14,2.91v.02l7.13-2.18-3.71,6.46,6.14,4.21-7.35,1.12h-.01l.54,7.43-5.47-5.05-5.47,5.05,.54-7.43-7.37-1.12,6.15-4.21-3.71-6.46,7.12,2.18,2.74-6.93,.6,1.52v-.1l-.6-1.52-2.76,6.99-7.18-2.2,3.74,6.51-6.15,4.21-.04,.03,7.42,1.13-.55,7.49,5.52-5.1,5.51,5.1-.54-7.49,7.42-1.13Z"/><polygon class="d" points="339.38 167.74 339.68 171.81 336.68 169.04 333.68 171.81 333.97 167.74 329.94 167.13 333.31 164.82 331.27 161.28 333.26 161.88 333.24 161.86 321.96 147.32 321.95 147.31 321.95 147.3 321.94 147.28 321.93 147.27 322.06 149.11 319.06 146.34 316.06 149.11 316.36 145.04 316.35 145.04 312.32 144.42 314.3 143.06 314.29 143.05 260.27 141.66 260.23 141.66 260.01 141.84 260 141.84 262.22 145.27 258.26 144.28 258.25 144.28 256.95 148.15 255.26 144.43 255.25 144.44 251.42 145.83 252.7 143.29 252.69 143.29 244.57 146.77 244.55 146.78 244.52 146.79 243.61 148.38 249.76 152.59 242.41 153.71 242.39 153.72 242.93 161.15 237.46 156.09 235 158.36 235 158.37 234.99 158.39 234.99 158.4 234.98 158.43 210.36 231.17 210.35 231.21 210.35 231.23 210.53 231.69 210.53 231.71 217.66 229.53 213.95 235.99 220.09 240.2 212.74 241.32 212.73 241.32 213.27 248.75 207.8 243.7 204.41 246.83 204.39 246.87 204.38 246.9 154.52 369.9 154.52 369.91 154.51 369.93 154.5 369.95 161.62 367.77 157.91 374.23 164.06 378.44 156.71 379.56 156.69 379.57 157.23 387 151.76 381.94 146.29 387 146.83 379.57 139.47 378.44 145.61 374.23 141.9 367.77 149.03 369.95 151.76 363.02 153.82 368.24 153.83 368.21 153.84 368.19 202.29 248.66 202.29 248.65 202.33 248.57 202.35 248.52 202.35 248.51 202.87 241.32 195.5 240.2 201.65 235.99 200.59 234.15 200.57 234.14 200.53 234.12 170.83 220.44 170.81 220.43 170.8 220.42 169.91 220.56 169.9 220.56 170.19 224.64 167.19 221.86 164.2 224.64 164.49 220.56 160.46 219.95 163.51 217.86 163.49 217.86 163.81 217.64 163.8 217.63 163.47 217.85 138.57 212.07 138.54 212.07 138.51 212.06 138.5 212.06 135.34 212.55 135.63 216.62 132.63 213.85 129.63 216.62 129.84 213.82 129.83 213.83 129.82 213.84 79.01 265.82 78.99 265.84 79.88 265.57 77.85 269.11 77.86 269.11 81.22 271.42 77.19 272.03 77.18 272.03 77.48 276.11 74.66 273.5 74.66 273.51 74.65 273.52 69.28 319.1 69.27 319.14 69.27 319.17 70.42 322.08 70.42 322.1 77.55 319.92 73.84 326.38 79.98 330.59 72.63 331.71 72.62 331.71 73.16 339.14 67.69 334.09 62.22 339.14 62.76 331.71 55.39 330.59 61.54 326.38 57.83 319.92 64.95 322.1 67.69 315.17 68.29 316.69 68.29 316.59 73.25 274.5 73.25 274.48 73.26 274.46 71.48 276.11 71.78 272.03 67.74 271.42 71.1 269.11 71.11 269.11 69.07 265.57 72.98 266.76 74.48 262.97 75.97 266.76 75.98 266.76 76.43 266.62 76.45 266.61 76.46 266.6 76.46 266.59 129.36 212.49 129.38 212.47 125.89 211.93 129.24 209.62 129.26 209.62 127.23 206.08 131.13 207.28 131.13 207.27 132.63 203.48 134.13 207.27 134.13 207.28 138.04 206.08 136 209.62 137.22 210.46 137.23 210.46 137.26 210.47 137.28 210.47 163.13 216.47 163.14 216.47 163.16 216.48 161.79 214.1 165.7 215.29 167.19 211.5 168.69 215.29 172.6 214.1 170.56 217.64 173.93 219.95 173.11 220.08 173.13 220.09 199.43 232.21 199.47 232.22 199.49 232.23 197.94 229.53 205.06 231.71 206.92 227.01 207.8 224.78 208.16 225.69 208.16 225.7 209.62 229.39 209.63 229.38 209.64 229.34 233.03 160.23 233.05 160.19 233.06 160.16 231.99 161.15 232.53 153.72 225.16 152.59 226.79 151.47 226.76 151.48 226.72 151.48 209.77 154.17 209.76 154.18 212.48 156.05 208.45 156.66 208.45 156.67 208.74 160.74 206.49 158.66 206.49 158.69 208.16 225.59 207.8 224.68 206.92 226.91 205.22 158.48 205.22 158.45 202.74 160.74 203.04 156.67 203.03 156.67 199 156.05 202.35 153.74 202.37 153.74 201.97 153.04 201.95 153.03 201.94 153.02 52.36 80.14 52.34 80.13 52.33 80.12 51.6 80.23 51.59 80.23 51.89 84.31 48.89 81.53 45.89 84.31 46.02 82.54 46.01 82.55 46 82.57 43.63 85.67 43.63 85.68 45.65 85.07 43.62 88.61 43.63 88.61 46.99 90.92 42.96 91.53 42.95 91.53 43.25 95.6 40.25 92.83 37.25 95.6 37.55 91.53 34.31 91.04 34.28 91.04 34.26 91.05 18.72 94.57 18.71 94.57 18.67 94.58 18.53 94.83 24.68 99.04 17.33 100.16 17.32 100.17 17.86 107.6 12.38 102.54 6.91 107.6 7.45 100.17 .09 99.04 6.24 94.83 2.52 88.37 9.65 90.55 12.38 83.62 15.11 90.54 15.12 90.55 22.25 88.37 19.55 93.07 19.57 93.06 19.59 93.06 35.65 89.42 35.66 89.42 35.7 89.41 35.71 89.41 35.72 89.4 35.73 89.4 36.87 88.61 36.88 88.61 34.85 85.07 38.75 86.26 40.25 82.47 41.69 86.1 41.7 86.09 46.17 80.25 46.18 80.24 46.18 80.23 42.15 79.62 45.51 77.31 45.52 77.31 43.49 73.77 46.93 74.82 46.93 74.81 47.38 74.95 47.38 74.94 46.92 74.8 19.61 11.95 19.6 11.93 19.6 11.92 19.59 11.9 17.98 10.42 14.99 13.19 15.28 9.12 11.25 8.5 13.28 7.1 14.59 6.19 14.61 6.19 12.58 2.65 16.48 3.85 16.48 3.84 17.98 .05 19.48 3.84 19.48 3.85 23.39 2.65 21.35 6.19 24.72 8.5 20.7 9.12 20.69 9.12 20.87 11.67 20.88 11.69 20.9 11.73 47.85 73.75 47.85 73.76 47.86 73.78 48.89 71.17 50.39 74.96 54.29 73.77 52.26 77.31 52.27 77.31 55.63 79.62 54.55 79.78 54.56 79.79 54.58 79.8 54.59 79.8 200.81 151.06 200.82 151.06 200.84 151.07 200.34 150.2 204.24 151.4 204.24 151.39 205.74 147.6 207.24 151.39 207.24 151.4 211.15 150.2 209.59 152.92 209.61 152.91 209.62 152.91 229.16 149.81 229.17 149.81 229.21 149.8 229.22 149.8 229.24 149.79 229.25 149.79 231.31 148.38 227.6 141.92 234.72 144.1 236.08 140.66 236.08 140.62 236.07 140.59 230.16 72.67 230.15 72.65 230.15 72.63 224.72 77.65 225.26 70.22 217.89 69.09 224.04 64.88 220.33 58.42 227.45 60.6 230.19 53.67 232.92 60.59 232.92 60.6 240.05 58.42 236.34 64.88 242.49 69.09 235.14 70.22 235.12 70.22 235.66 77.65 231.54 73.84 231.54 73.89 237.13 137.92 237.13 138 237.46 137.17 240.19 144.09 240.2 144.1 247.32 141.92 245.58 144.96 245.6 144.95 245.62 144.94 252.75 141.88 249.79 140.06 253.78 139.23 253.79 139.23 253.28 135.18 256.42 137.79 256.42 137.77 259.27 134.87 259.18 138.94 259.18 138.95 259.19 138.95 263.25 139.36 261.86 140.43 261.88 140.43 315.5 141.81 315.67 142.11 315.69 142.11 315.52 141.81 313.66 138.57 317.56 139.77 319.06 135.97 320.56 139.76 320.56 139.77 324.47 138.57 322.43 142.11 325.8 144.42 321.8 145.03 321.81 145.04 321.81 145.05 335.22 162.32 335.22 162.33 335.23 162.34 336.68 158.67 338.17 162.46 338.18 162.47 342.08 161.28 340.05 164.82 340.06 164.82 343.42 167.13 339.39 167.74 339.38 167.74"/></g><g><polygon class="d" points="156.71 379.58 157.26 387.04 151.76 381.96 146.27 387.04 146.81 379.58 139.42 378.45 145.59 374.23 141.86 367.74 149.02 369.93 151.76 362.97 153.83 368.21 153.82 368.24 151.76 363.02 149.03 369.95 141.9 367.77 145.61 374.23 139.47 378.44 146.83 379.57 146.29 387 151.76 381.94 157.23 387 156.69 379.57 156.71 379.56 164.06 378.44 157.91 374.23 161.62 367.77 154.5 369.95 154.51 369.93 161.66 367.74 157.93 374.23 164.11 378.45 156.71 379.58"/><path class="d" d="M164.15,378.46l-6.19-4.24,3.74-6.51-7.18,2.2v.02l-.02,.02,7.12-2.18-3.71,6.46,6.15,4.21-7.35,1.12h-.02l.54,7.44-5.47-5.06-5.47,5.06,.54-7.43-7.36-1.13,6.14-4.21-3.71-6.46,7.13,2.18,2.73-6.93,2.06,5.22v-.03l.02-.02-2.08-5.26-2.75,6.98-7.18-2.2,3.74,6.51-6.16,4.22-.04,.02,7.42,1.14-.54,7.48,5.51-5.09,5.52,5.09-.55-7.48,7.42-1.14Z"/></g><g><polygon class="d" points="235.14 70.23 235.68 77.69 231.54 73.87 231.54 73.84 235.66 77.65 235.12 70.22 235.14 70.22 242.49 69.09 236.34 64.88 240.05 58.42 232.92 60.6 232.92 60.59 230.19 53.67 227.45 60.6 220.33 58.42 224.04 64.88 217.89 69.09 225.26 70.22 224.72 77.65 230.15 72.63 230.15 72.65 224.7 77.69 225.24 70.23 217.85 69.1 224.02 64.88 220.29 58.39 227.44 60.58 230.19 53.63 232.94 60.58 240.09 58.39 236.36 64.88 242.53 69.1 235.14 70.23"/><path class="d" d="M242.58,69.11l-6.2-4.24,3.74-6.51-7.17,2.2-2.76-6.98-2.76,6.98-7.18-2.2,3.74,6.51-6.15,4.22-.04,.02,7.42,1.14-.55,7.49,5.49-5.07v-.04l-5.44,5.02,.54-7.43-7.37-1.13,6.15-4.21-3.71-6.46,7.12,2.18,2.74-6.93,2.73,6.92h0l7.13-2.17-3.71,6.46,6.15,4.21-7.35,1.13h-.02l.54,7.43-4.12-3.81v.05l4.16,3.85-.54-7.49,7.42-1.14Z"/></g><g><polygon class="d" points="233.06 160.16 233.05 160.19 231.97 161.19 232.51 153.73 225.12 152.6 226.76 151.48 226.79 151.47 225.16 152.59 232.53 153.72 231.99 161.15 233.06 160.16"/><polygon class="d" points="236.08 140.62 236.08 140.66 234.72 144.1 227.6 141.92 231.31 148.38 229.25 149.79 231.29 148.38 227.56 141.89 234.71 144.08 236.08 140.62"/><polygon class="d" points="247.36 141.89 245.6 144.95 245.58 144.96 247.32 141.92 240.2 144.1 240.19 144.09 237.46 137.17 237.13 138 237.13 137.96 237.46 137.12 240.21 144.08 247.36 141.89"/><polygon class="d" points="242.41 153.73 242.95 161.19 237.46 156.11 234.99 158.39 235 158.37 235 158.36 237.46 156.09 242.93 161.15 242.39 153.72 242.41 153.71 249.76 152.59 243.61 148.38 244.52 146.79 244.55 146.78 243.63 148.38 249.8 152.6 242.41 153.73"/><path class="d" d="M231.99,161.15l.54-7.43-7.37-1.13,1.63-1.12h-.07l-1.61,1.12-.04,.02,7.42,1.14-.54,7.48,1.08-1,.02-.04v-.03l-1.06,.99Zm4.08-20.56l-1.37,3.47-7.18-2.2,3.74,6.51-2.09,1.44h.05l.02-.02h.01l2.06-1.41-3.71-6.46,7.12,2.18,1.36-3.44v-.07Zm4.14,3.47l-2.76-6.98-.33,.84v.08l.33-.83,2.73,6.92h.01l7.12-2.17-1.74,3.04h.02l.02-.02,1.77-3.08-7.17,2.2Zm9.63,8.55l-6.2-4.24,.92-1.6h-.02l-.03,.02-.91,1.59,6.15,4.21-7.35,1.12h-.02l.54,7.44-5.47-5.06-2.46,2.27h0v.03h-.01v.04l2.47-2.29,5.51,5.09-.54-7.48,7.42-1.14Z"/></g><g><path class="d" d="M24.73,99.05l-6.17-4.22,.15-.26h-.04l-.14,.26,6.15,4.21-7.35,1.12h-.01l.54,7.44-5.48-5.06-5.47,5.06,.54-7.43L.09,99.04l6.15-4.21-3.72-6.46,7.13,2.18,2.73-6.93,2.73,6.92h.01l7.13-2.17-2.7,4.7h.02l2.71-4.73-7.15,2.19-2.75-6.96-2.74,6.96-7.15-2.19,3.72,6.49L.04,99.05l7.4,1.13-.55,7.46,5.49-5.08,5.5,5.08-.55-7.46,7.4-1.13Z"/><path class="d" d="M24.77,99.06l-6.19-4.24,.14-.25h-.05l-.14,.26,6.15,4.21-7.35,1.12h-.01l.54,7.44-5.48-5.06-5.47,5.06,.54-7.43L.09,99.04l6.15-4.21-3.72-6.46,7.13,2.18,2.73-6.93,2.73,6.92h.01l7.13-2.17-2.7,4.7h.04l2.73-4.76-7.18,2.2-2.76-6.98-2.75,6.98-7.18-2.2,3.74,6.51L.03,99.04l-.03,.02,7.42,1.14-.55,7.48,5.51-5.09,5.52,5.09-.55-7.48,7.42-1.14Z"/></g><polygon class="d" points="47.38 74.94 47.38 74.95 46.93 74.81 46.92 74.8 47.38 74.94"/><polygon class="d" points="208.16 225.59 208.16 225.69 207.8 224.78 206.92 227.01 206.92 226.91 207.8 224.68 208.16 225.59"/><polygon class="d" points="315.69 142.11 315.67 142.11 315.5 141.81 315.52 141.81 315.69 142.11"/><polygon class="d" points="163.81 217.64 163.49 217.86 163.47 217.85 163.8 217.63 163.81 217.64"/></g></g></g></svg>