<?xml version="1.0" encoding="UTF-8"?><svg xmlns="http://www.w3.org/2000/svg" viewBox="0 0 225.77 98.64"><defs><style>.d{fill:#1d1d1b;}</style></defs><g id="a"/><g id="b"><g id="c"><polygon class="d" points="218.61 74.1 220.05 81.4 214.01 77.06 209.2 82.74 208.83 75.31 201.39 75.09 206.97 70.16 204.94 67.45 204.93 67.45 82.03 15.46 80.81 15.8 82.26 23.11 76.21 18.76 71.4 24.44 71.11 18.52 20.2 77.91 20.66 77.7 17.77 84.56 24.38 87.99 17.21 90 18.66 97.3 12.62 92.96 7.81 98.64 7.44 91.21 0 90.99 5.58 86.06 1.11 80.11 8.44 81.4 10.31 74.2 13.86 80.74 17.88 78.94 70.97 17.01 63.59 16.79 69.18 11.87 64.71 5.91 72.04 7.21 73.9 0 77.46 6.54 84.26 3.5 81.37 10.36 87.98 13.79 83.72 14.99 203.63 65.72 202.5 64.21 209.83 65.5 211.7 58.3 215.26 64.84 222.06 61.8 219.16 68.66 225.77 72.09 218.61 74.1"/></g></g></svg>