<?xml version="1.0" encoding="UTF-8"?><svg xmlns="http://www.w3.org/2000/svg" viewBox="0 0 266.21 89.29"><defs><style>.d{fill:#1d1d1b;}</style></defs><g id="a"/><g id="b"><g id="c"><polygon class="d" points="259.79 82.81 260.26 89.29 255.49 84.88 250.71 89.29 251.18 82.81 244.76 81.83 249.93 78.28 79.92 44.92 81.42 46.92 78.22 46.35 77.4 49.49 75.85 46.63 72.88 47.95 73.93 45.47 46.57 56.15 45.94 57.24 51.31 60.91 44.88 61.9 45.35 68.38 40.58 63.97 35.81 68.38 36.28 61.9 29.86 60.91 35.22 57.24 31.98 51.61 36.72 53.06 7.1 8.38 6.75 10.73 4.9 8.05 2.09 9.68 3.03 6.57 0 5.39 3.02 4.18 2.05 1.08 4.88 2.69 6.7 0 7.21 3.21 10.45 2.96 8.25 5.36 10.47 7.73 7.82 7.55 38.23 53.42 40.58 47.47 42.97 53.51 49.18 51.61 47.41 54.69 73.37 44.55 71.27 43.46 74.4 42.59 73.78 39.4 76.41 41.3 78.52 38.83 78.67 42.07 81.92 42.17 80 43.86 249.53 77.13 246.88 72.52 253.1 74.42 255.49 68.38 257.87 74.42 264.09 72.52 260.85 78.16 266.21 81.83 259.79 82.81"/></g></g></svg>