<?xml version="1.0" encoding="UTF-8"?><svg xmlns="http://www.w3.org/2000/svg" viewBox="0 0 223.52 326.98"><defs><style>.d{fill:#1d1d1b;}</style></defs><g id="a"/><g id="b"><g id="c"><polygon class="d" points="200.76 30.99 201.34 21.41 201.09 21.37 125.01 80.35 122.66 84.42 127.26 87.59 121.73 88.42 122.12 94 118.02 90.19 113.9 93.97 114.33 88.39 114 88.34 47.45 131.54 47.28 132.22 56.37 135.31 47.62 139.27 48.26 141.05 105.25 174.95 104.02 171.87 109.08 174.26 111.86 169.41 113.14 174.85 118.67 174 116.51 176.75 172.36 165.89 172.36 165.89 172.6 165.6 168.61 161.68 174.2 161.82 174.77 156.25 178.15 160.71 182.86 157.69 181.49 163.11 186.78 164.91 181.69 167.21 183.58 172.47 178.6 169.93 175.67 174.69 174.56 169.21 169.01 169.89 171.11 167.38 115.35 178.22 115.22 178.39 119.33 182.18 113.74 182.22 113.34 187.8 109.82 183.46 105.21 186.62 106.41 181.16 101.07 179.53 106.09 177.07 105.98 176.81 48.92 142.86 50.88 148.3 42.33 143.93 39.65 148.28 39.65 181.87 43.48 178.69 42.78 184.24 48.25 185.37 43.48 188.28 46.01 193.27 40.75 191.35 38.43 196.44 36.65 191.14 31.22 192.49 34.26 187.8 32.95 186.79 14.28 183.18 14.28 183.18 13.52 183.49 15.27 188.8 10.37 186.12 9.83 186.94 9.83 208.31 13.01 205.07 12.87 210.66 18.44 211.24 13.98 214.62 16.99 219.33 12.9 218.29 73.42 303.44 75.32 295.39 79.91 303.41 90 270.45 89.5 268.03 83.95 268.72 87.53 264.42 83.53 260.51 89.12 260.64 89.69 255.07 93.08 259.52 97.78 256.49 96.43 261.86 132.31 248.34 124.23 244.22 133.46 241.56 131.53 232.15 139.36 237.71 145.52 230.33 146.06 239.92 155.66 240.14 148.5 246.54 154.32 254.18 144.85 252.57 144.7 253.17 153.41 268.35 155.12 263.95 157.2 269.14 162.54 267.47 159.78 272.34 164.41 275.47 161.54 275.92 193.66 292.91 193.01 291.79 198.37 293.39 200.39 288.18 202.47 293.37 207.81 291.7 205.05 296.57 209.69 299.7 204.16 300.58 204.6 306.15 200.47 302.38 196.39 306.2 196.76 300.62 191.23 299.81 195.83 296.62 194.83 294.9 159.53 276.24 158.89 276.35 159.33 281.92 155.2 278.15 151.12 281.97 151.49 276.39 145.96 275.58 150.55 272.39 147.74 267.56 152.34 268.94 144.27 254.88 142.5 261.89 137.86 253.48 129.11 257.45 132.35 249.62 98.18 262.51 101.71 263.7 96.62 266.02 98.53 271.27 93.54 268.74 90.62 273.51 90.51 272.95 81.26 303.17 88.78 299.62 85.24 308.55 93.86 312.78 84.67 315.58 86.74 324.96 78.82 319.52 72.78 326.98 72.09 317.4 62.49 317.33 69.55 310.82 63.62 303.27 72.81 304.69 11.44 218.34 9.77 223.24 7.47 218.15 2.21 220.04 4.76 215.06 0 212.13 5.48 211.02 4.81 205.47 8.61 208.65 8.61 188.81 7.31 190.8 6.34 185.29 .78 185.81 4.49 181.63 .6 177.6 6.19 177.89 6.92 172.35 10.17 176.89 14.96 174.01 13.44 179.39 18.68 181.33 16.31 182.32 30.77 185.12 29.82 184.4 35.39 183.85 35.28 178.25 38.43 181.49 38.43 150.26 37.29 152.11 35.38 142.7 25.85 143.86 32.01 136.5 25.16 129.77 34.76 130 35.75 120.45 41.56 128.1 49.64 122.91 47.89 129.8 112.19 88.06 108.8 87.53 113.43 84.38 110.66 79.53 116 81.18 118.07 75.99 120.11 81.2 123.09 80.3 199.4 21.14 191.83 20.08 199.68 14.55 194.79 6.29 204 8.98 207.42 0 211.06 8.89 220.2 5.95 215.53 14.34 223.52 19.67 214.05 21.24 214.87 30.81 207.73 24.38 200.76 30.99"/></g></g></svg>