<?xml version="1.0" encoding="UTF-8"?><svg xmlns="http://www.w3.org/2000/svg" viewBox="0 0 106.87 264.05"><defs><style>.d{fill:#1d1d1b;}</style></defs><g id="a"/><g id="b"><g id="c"><polygon class="d" points="96.91 21.14 101.45 31.48 91.07 27.03 85.81 37.02 82.83 26.13 71.74 28.25 76.47 21.75 47.21 26.05 51.31 30.1 44.16 29.9 43.41 37.01 40.8 33.55 26.94 225.17 37.13 217.62 34.45 232.26 48.83 236.09 35.71 243.12 41.69 256.75 28.01 250.88 21.08 264.05 17.15 249.69 2.53 252.48 11.3 240.46 0 230.77 14.87 230.13 15.4 215.25 23.98 225.12 37.94 32.04 33.07 35.15 34.85 28.22 28.09 25.9 34.61 22.98 32.21 16.24 38.56 19.52 42.33 13.44 43.73 20.45 50.83 19.61 48.01 22.95 77.75 18.57 69.82 11.77 81.1 11.29 81.5 0 88.92 8.52 97.99 1.8 95.96 12.9 106.87 15.81 96.91 21.14"/></g></g></svg>