<?xml version="1.0" encoding="UTF-8"?><svg xmlns="http://www.w3.org/2000/svg" viewBox="0 0 286.46 286.44"><defs><style>.d{fill:#1d1d1b;}</style></defs><g id="a"/><g id="b"><g id="c"><path class="d" d="M286.46,241.1l-4.01-.54,.22-4.04-2.92,2.8-.06-.05h0l-17.72-70.86,.02-.05,3.89,1.11-2.08-3.47,3.3-2.34-4.01-.54,.22-4.04-1.79,1.72,3.2-58.55,1.56,2.04,.4-4.02,4.04,.08-2.9-2.82,2.58-3.11-4.01,.51-.82-3.96-2.11,3.45-3.61-1.83,.46,1.25L153.67,16.73l4.18-.1-5.48-4.89,4.44-5.85-7.24,1.24-1.8-7.12-3.55,6.43-6.69-3.03,2.82,6.78-4.04,2.06L19.55,24.64l3.46-4.55-7.24,1.24-1.8-7.12-3.55,6.43-6.69-3.03,2.82,6.78L0,27.73l7.06,2.03-1.47,7.2,5.99-4.25,4.71,5.63,.41-7.33,7.34-.17-5.01-4.47,116.4-12.35,5.43,1.56-1.47,7.2,5.99-4.26,.93,1.11,21.71,123.53-6.45-2.92,2.82,6.78-6.54,3.34,7.06,2.03-1.47,7.2,5.54-3.93-.11,10.32-2.28-2.03,.37,4.03-3.99,.68,3.38,2.22-1.95,3.54,3.84-1.25,.04,.11-16.76,93.97-.59,.58-5.56-4.8,.78,7.31-7.22,1.36,6.2,3.94-3.44,6.49,6.95-2.39,2.93,6.74,2.46-6.92,7.09,1.91-3.87-6.24,2.69-1.98h0l115.81-28.33-1.23,2.22,3.85-1.26,1.55,3.73,1.42-3.79,3.89,1.11-2.08-3.47,3.29-2.34Zm-9.36-.44l-3.99,.68,2.76,1.82-113,27.64-6.99-.82,.28-7.34-2.6,2.58,15.9-89.13,.34,.81,1.42-3.79,3.89,1.11-2.08-3.47,3.3-2.35-4.01-.54,.22-4.04-2.02,1.94,.1-9.03,3.53,4.22,.4-7.34,7.34-.17-5.48-4.89,4.44-5.85-7.24,1.24-1.8-7.12-2.45,4.43-20.93-119.1,1.67,1.99,.41-7.33h.44l110.16,79.65-3.54,1.62,3.83,1.29-.98,3.92,2.68-1.73-3.27,59.84-2.46-2.19,.37,4.03-3.99,.68,3.38,2.22-1.95,3.54,3.84-1.26,1.56,3.73,.37-1,16.55,66.17-.77-.68,.37,4.03Z"/></g></g></svg>