<?xml version="1.0" encoding="UTF-8"?><svg xmlns="http://www.w3.org/2000/svg" viewBox="0 0 424.98 203.61"><defs><style>.d{fill:#1d1d1b;}</style></defs><g id="a"/><g id="b"><g id="c"><polygon class="d" points="420.09 195.19 422.72 200.3 417.31 198.37 414.95 203.61 413.09 198.17 407.52 199.6 410.61 194.76 406.02 191.29 411.74 190.69 411.58 184.94 411.65 185.01 402.77 155.64 401.46 158.57 399.59 153.13 394.03 154.56 397.12 149.72 392.53 146.25 396.87 145.79 351.55 99.31 350.11 108.78 344.16 100.1 335.04 105.35 338.12 95.29 328.33 91.44 334.96 88.81 120.4 12.32 121.87 14.75 116.34 13.19 114.35 18.58 112.78 14.86 68.83 141.01 69.32 140.58 68.73 146.3 74.38 147.35 69.54 150.44 72.24 155.51 66.8 153.66 64.52 158.94 62.58 153.53 59.3 154.42 16.11 184.91 18.89 185.08 14.47 188.74 17.77 193.45 12.15 192.27 10.53 197.79 7.94 192.66 2.62 194.84 5.02 189.61 0 186.81 5.58 185.43 4.64 179.76 9.2 183.25 13.05 178.99 13.15 184.55 58.65 152.43 60.06 150.14 55.42 146.75 61.12 146.06 60.89 140.32 64.98 144.35 65.78 143.65 111.08 13.64 106.66 15.1 109.41 10.05 104.59 6.91 110.26 5.91 109.71 .19 114.02 3.99 118.15 0 117.86 5.74 123.56 6.48 119.06 9.71 337.79 87.69 338.11 87.57 335.02 77.51 344.15 82.74 350.09 74.06 351.68 84.46 362.17 83.68 355.04 91.42 362.18 99.14 353.57 98.51 398.21 144.3 398.09 139.9 402.13 143.99 406.52 140.29 405.84 146 411.48 147.12 406.59 150.15 409.22 155.26 404.21 153.47 414.66 188.06 415.62 189.03 420.02 185.33 419.34 191.03 424.98 192.16 420.09 195.19"/></g></g></svg>