<?xml version="1.0" encoding="UTF-8"?><svg xmlns="http://www.w3.org/2000/svg" viewBox="0 0 208.17 335.92"><defs><style>.d{fill:#1d1d1b;}</style></defs><g id="a"/><g id="b"><g id="c"><path class="d" d="M205.43,260.39l2.69-2.96-3.98,.32-.64-3.94-2.23,3.32-.4-.22h0L129.53,112.29l6.64,2.25-1.9-3.55,38.37,17.72-1.6,.41,3.51,1.91-1.63,3.65,3.68-1.55,1.84,3.55,.21-.74,7.26,22.51-.84-.64,.69,3.94-3.87,1,3.51,1.91-1.63,3.65,3.68-1.55,1.84,3.55,1.08-3.85,3.92,.78-2.33-3.25,3.05-2.58-3.99-.2-.12-3.99-2.65,2.99-.17-.13-8.67-26.88h0l.1-.37,3.92,.78-2.33-3.25,3.05-2.58-3.99-.2-.12-3.99-2.64,2.99-3.2-2.4,.67,3.84-41.86-19.33-.76-1.42,6.93-4.45-8.1-1.48,.84-8.19-6.21,5.41-5.89-5.76,.31,7.04L24.88,8.94l2.9-.24-3.14-2.48,2.22-3.32-3.89,.91-1.21-3.81-1.71,3.61-3.74-1.43,1.75,3.59-3.44,2.03,3.9,.87-.56,3.96,2.18-1.76-6.38,101.83-5.48-5.37,.36,8.23-8.18,1.01,6.66,4.85-4.31,7.02,7.94-2.18,1.75,4.84-6.61,90.78-3.4-1.91,1.2,3.81-3.7,1.5,3.73,1.44-1.14,3.83,3.45-2.02,2.29,3.28,.5-3.48,102.49,89.33-6.74,.83,6.66,4.85-4.31,7.02,7.94-2.18,2.8,7.75,3.25-7.57,7.8,2.64-3.89-7.26,6.93-4.45-6.28-1.15,72.97-54.3-.57,1.92,3.45-2.02,2.29,3.28,.57-3.95,3.99,.26-2.74-2.91ZM21.72,10.8l2.1,2.22-.02-2.95L119.25,101.15l-7.22,.89,5.91,4.31-91.76,11.96,1.46-.94-8.1-1.48,.84-8.19-5,4.35L21.72,10.8Zm176.88,250.95l-74.92,55.74,.81-7.9-6.21,5.41-5.89-5.76,.33,7.55L10.8,227.97l2.08,.13-2.74-2.91,2.69-2.96-3.98,.33-.64-3.95-.56,.84,6.28-86.31,2.87-6.7,7.8,2.64-3.89-7.26,2.38-1.53,94.96-12.37-3.68,5.99,7.94-2.18,2.8,7.75,2.88-6.72,70.45,142.8-.66-.37,1.2,3.81-3.7,1.5,3.31,1.28Z"/></g></g></svg>