<?xml version="1.0" encoding="UTF-8"?><svg xmlns="http://www.w3.org/2000/svg" viewBox="0 0 258.63 261.21"><defs><style>.d{fill:#1d1d1b;}</style></defs><g id="a"/><g id="b"><g id="c"><path class="d" d="M258.63,153.8l-3.81-1.87,1.57-3.95-3.84,1.81-2.11-3.69-.98,4.13-4.2-.65,2.62,3.34-3.13,2.87,3.06,.03-19.91,19.57,.87-7.28-7.15,6.03-6.57-6.65,.26,9.35-5.1,.54-81.34-33.6,2.62-1.1-3.98-1.48,1.16-4.08-3.64,2.19-2.47-3.46-.5,3.77-44.76-38.89,2.7-.08-3.19-2.81,2.55-3.4-4.18,.74-1.07-4.11-2.02,3.71-30.61-54.73,3.12,.88-2.2-3.63,3.45-2.48-4.21-.54,.21-4.24-3.05,2.95-3.18-2.81,.28,2.89L12.23,10.75l.54,.15-2.2-3.63,3.45-2.48-4.21-.54,.21-4.24-3.05,2.95L3.78,.14l.41,4.23L0,5.11l3.56,2.32-2.03,3.73,4.03-1.34,1.65,3.91,1.47-3.99,.39,.11,26.18,24.69-3.4,.6,3.56,2.32-2.03,3.73,4.03-1.34,1.65,3.91,1.1-2.98,29.63,52.99-1.58-.7,1.65,3.91-3.77,1.95,2.28,.64-36.71,18.75-2.74,.48-1.07-4.11-2.03,3.73-3.88-1.73,1.65,3.91-3.77,1.95,4.09,1.15-.82,4.17,3.45-2.48,1.67,1.97,20.15,51.15h0l.43,3.81-.79,.15-28.31-11.25-.21-.33,3.4-2.54-4.22-.47,.13-4.24-3,3.01-3.23-2.75,.48,4.22-4.17,.81,3.6,2.25-1.96,3.76,4.01-1.41,1.72,3.88,1.4-4.01,4.11,1.08-.68-1.08,24.16,9.6-.61,.12,3.6,2.26-1.96,3.76,4.01-1.41,1.72,3.88,1.4-4.01,4.11,1.08-2.07-3.29,70.81-1.72-1.91,3.21,4.08-1.18,1.5,3.97,1.62-3.92,4.04,1.31-1.93-3.48h79.74l-4.93,7.74,9.06-2.33,.55,1.59-13.53,40.89-.3-1.05-1.94,3.78-3.92-1.63,1.75,3.87-3.72,2.05,4.12,1.05-.72,4.19,3.38-2.57,2.82,3.17,.08-3.38,12.07,11.26-3.81,1.04,3.75,1.99-1.68,3.9,3.89-1.7,2,3.75,1.1-4.1,4.18,.77-2.52-3.42,3.21-2.78-4.24-.16-.18-4.24-2.77,3.22-3.43-2.51,.39,2.07-10.73-10.01,3.03-.16-3.26-2.73,2.46-3.46-4.16,.84-.13-.44,13.6-41.11,1.67,4.88,3.83-8.53,8.81,3.14-4.29-8.31,7.95-4.93-8.86-1.77,21.09-20.72,.24,3.34,2.67-3.3,3.5,2.41-.91-4.15,4.06-1.24Zm-123.18,28.28l1.6-1.06-4.19-.71,.38-4.23-3.16,2.83-3.07-2.93,.24,4.24-4.21,.57,1.98,1.4-68.1,1.66,1.72-1.29-4.22-.47,.13-4.24-3,3.01-.95-.81-21.2-53.81,.09-1.84,4.24-.13-3.19-2.81,1.05-1.41,38.51-19.67-.76,3.86,3.45-2.48,2.75,3.24,.18-3.63,44.4,38.57-2.37-.13,2.94,3.06-2.82,3.17,4.23-.39,.72,4.19,2.33-3.55,3.72,2.04-1.1-3.37,79.25,32.74-1.02,.11,5.64,4.25h-76.2Z"/></g></g></svg>