<?xml version="1.0" encoding="UTF-8"?><svg xmlns="http://www.w3.org/2000/svg" viewBox="0 0 291.22 242.09"><defs><style>.d{fill:#1d1d1b;}</style></defs><g id="a"/><g id="b"><g id="c"><polygon class="d" points="286.5 234.63 288.6 239.53 283.71 237.39 281.19 242.09 279.83 236.93 274.58 237.88 277.76 233.6 273.74 230.09 274.37 230.07 182.93 182.71 185.61 190.65 176.88 185.96 171.51 194.28 169.75 184.53 159.89 185.52 166.41 178.06 159.49 170.98 169.39 171.43 170.62 161.6 174.23 166.57 168.68 31.38 165.05 36.99 163.29 27.25 153.43 28.24 159.93 20.81 14.24 10 16.71 13.25 11.45 12.35 10.14 17.52 7.56 12.85 2.7 15.05 4.75 10.13 0 7.7 5.13 6.23 4.06 1 8.41 4.09 11.83 0 12.13 5.33 17.46 5.45 14.23 8.34 158.23 19.02 153.03 13.69 162.93 14.14 164.16 4.31 169.98 12.33 178.43 7.16 175.79 16.71 185.1 20.09 175.99 23.98 179.15 33.37 170.42 28.67 170.24 28.96 175.99 169 176.43 169.61 184.89 164.44 182.25 173.99 191.56 177.38 183.16 180.96 277.76 229.96 279.07 229.91 279.31 224.58 282.77 228.64 287.09 225.5 286.08 230.74 291.22 232.15 286.5 234.63"/></g></g></svg>