<?xml version="1.0" encoding="UTF-8"?><svg xmlns="http://www.w3.org/2000/svg" viewBox="0 0 217.53 276.39"><defs><style>.d{fill:#1d1d1b;}</style></defs><g id="a"/><g id="b"><g id="c"><polygon class="d" points="213.27 265.53 215.05 269.94 210.74 267.93 208.4 272.07 207.28 267.45 202.58 268.2 205.5 264.44 201.98 261.24 203.72 261.22 77.87 168.85 77.86 168.85 77 168.84 76.08 179.55 69.65 171.38 55.98 247.08 61.79 242.34 60.34 253 70.85 255.28 61.62 260.8 66.39 270.44 56.32 266.65 51.75 276.39 48.43 266.16 37.98 268.66 43.9 259.69 35.43 253.07 46.14 252.11 46.02 241.36 53.34 249.02 67.14 172.63 60.48 177.06 62.95 166.59 52.7 163.31 62.42 158.71 58.61 148.66 67.49 153.02 61.07 117.41 58.25 120.41 58.27 115.65 53.52 115.25 57.26 112.3 54.61 108.35 58.57 109.27 20.46 26.21 16.33 35.03 13.01 24.8 2.55 27.3 8.48 18.33 0 11.71 10.71 10.75 10.6 0 18.03 7.78 26.36 .98 24.92 11.64 35.43 13.92 26.19 19.43 30.96 29.07 22.86 26.03 60.01 107.01 60.68 104.89 62.73 109.19 67.17 107.49 65.09 111.77 69.19 114.18 64.55 115.22 65.22 119.93 63.58 118.61 69.48 151.34 73.74 144.14 76.06 154.64 86.71 153.15 79.95 161.51 87.75 168.91 81.71 168.87 206.77 260.66 207.05 256.43 210.07 260.11 213.97 257.39 212.98 262.05 217.53 263.4 213.27 265.53"/></g></g></svg>