<?xml version="1.0" encoding="UTF-8"?><svg xmlns="http://www.w3.org/2000/svg" viewBox="0 0 233.47 132.4"><defs><style>.d{fill:#1d1d1b;}</style></defs><g id="a"/><g id="b"><g id="c"><polygon class="d" points="228.8 9.87 231.82 14.8 226.25 13.26 224.28 18.68 222.12 13.61 163.02 98.61 173.19 96.09 165.42 108.06 176.74 116.74 162.54 118.13 162.81 132.4 152.87 122.17 141.88 131.27 143.68 117.11 129.71 114.2 139.5 108.25 74.94 90.95 76.28 95.94 71.38 92.9 67.96 97.55 67.28 91.82 61.51 92.04 65.18 88.33 14.96 74.87 17.23 78.75 11.7 77.11 9.62 82.49 7.46 77.15 1.96 78.88 4.79 73.85 0 70.63 5.7 69.71 5.23 63.96 9.5 67.84 13.71 63.89 13.33 69.65 19.05 70.47 15.45 72.98 63.86 85.95 61.8 83.57 67.54 84.18 68.61 78.51 71.71 83.38 76.8 80.68 74.93 86.14 80.22 88.44 77.17 89.52 141.81 106.84 141.91 106.79 135.47 94.05 148.88 98.96 154.82 85.99 159.34 99.52 160.14 99.32 219.25 14.3 216.55 15.21 219.28 10.13 214.44 7 220.11 5.97 219.54 .23 223.88 4.03 228.01 0 227.75 5.77 233.47 6.48 228.8 9.87"/></g></g></svg>