<?xml version="1.0" encoding="UTF-8"?><svg xmlns="http://www.w3.org/2000/svg" viewBox="0 0 365.62 446.78"><defs><style>.d{fill:#1d1d1b;}</style></defs><g id="a"/><g id="b"><g id="c"><path class="d" d="M365.62,153.21l-10.88-2.49,1.63-11.04-8.73,6.95-7.61-8.16v11.16l-11.13,.87,1.18,.94-99.77-22.94,10.47-6.09-13.84-3.17,2.07-14.04-11.11,8.84-9.69-10.38-.02,14.2-14.15,1.11,9.88,7.89-41.62,3.98h0l-2.27-.76,1.49-5.99-4.05,2.62,6.93-111.49,.09-.15,5.51,2.79-2.12-5.8,5.61-2.57-5.85-1.96,1.49-5.99-5.18,3.35-3.75-4.9-.6,6.14-6.17-.12,4.43,4.31-3.94,4.75,5.52-.7-48.45,79.29-2.09,1.35-3.75-4.9-.6,6.14-6.17-.12,4.43,4.31-3.94,4.75,6.12-.77,1.25,6.04,3.21-5.27,5.51,2.79-.83-2.27,33.49,22.89-1.79-.03,4.43,4.31-3.94,4.75,6.12-.77,1.26,6.04,3.21-5.27,5.51,2.79-2.12-5.8,2.92-1.33h0l40.9-3.92-6.92,10.22,13.28-3.02-88.6,156.34-.39,.21-3.32-5.2-1.13,6.07-6.14-.64,4.04,4.66-4.33,4.4,6.17-.25,.05,.38-23.52,48.15-3.36-8.41-4.06,10.39-10.68-3.23,5.59,9.65-9.18,6.34,9.68,1.44L14.73,430.58l.49-3.25-4.85,3.83-4.19-4.53-.03,6.17-6.16,.45,4.81,3.88-3.48,5.09,6.02-1.34,1.81,5.9,2.71-5.55,5.74,2.26-2.65-5.57,5.35-3.08-5.14-1.2,67.32-64.48-.63,9.03,8.17-7.61,8.22,7.55-.72-9.44,27.02,24.35-4.18,.31,4.81,3.87-3.48,5.09,6.03-1.34,1.81,5.9,2.68-5.5,10.55,15.39h0v1.27l-11.13,.82,8.69,7-6.3,9.21,10.89-2.43,3.27,10.67,4.89-10.03,10.38,4.09-4.79-10.07,9.67-5.57-10.87-2.54,1.68-11.03-5.91,4.66,16.53-102.07,4.16,3.93-.38-6.16,6.11-.86-5.05-3.55,3.14-5.31-2.1,.61,90.13-105.65,.95,4.58,3.21-5.27,5.51,2.79-2.12-5.8,5.61-2.57-2.72-.91,57.27-23.01-2.12,3.14,10.88-2.47,3.32,10.65,4.85-10.05,10.4,4.04-4.83-10.06,9.65-5.61Zm-210.58-27.48l-2.44-3.18-.59,6.02-38.84-26.54,5.28-2.41-5.85-1.96,.76-3.06L160.65,17.2l.65,3.14,.33-.53-6.59,105.92Zm180.95,34.13l-62.8,25.23,1.39-5.55-5.18,3.35-3.75-4.9-.61,6.14-6.17-.13,4.42,4.31-3.94,4.75,4.18-.53-91.82,107.65-2.07-5.42-2.34,5.71-5.88-1.88,3.01,5.39-5.14,3.42,6.09,1.01-.52,6.15,2.05-1.85-16.57,102.3-7.54-8.14-.03,5.49-6.47-9.42,1.66,.65-2.65-5.58,5.35-3.08-6.01-1.41,.93-6.1-4.84,3.82-4.19-4.53-.03,4.73-27.43-24.72,9.32-1.46-9.23-6.27,5.52-9.69-9.41,2.92,22.06-45.15,.14,1.18,3.65-4.98,5.25,3.25-1.62-5.96,5.81-2.08-5.67-2.45,1.99-5.84-.93,.5,85.88-151.56,3.38,10.83,6.17-12.78,13.23,5.15-5.55-11.56,105.49,24.26h0l3.02,2.41-1.62,2.39Z"/></g></g></svg>