<?xml version="1.0" encoding="UTF-8"?><svg xmlns="http://www.w3.org/2000/svg" viewBox="0 0 315.12 398.63"><defs><style>.d{fill:#1d1d1b;}</style></defs><g id="a"/><g id="b"><g id="c"><path class="d" d="M315.12,263.89l-9.35-2.47,1.72-9.51-7.76,5.77-5.92-6.76-11.34-27.56,1.62,.99-1.45-5.28,5.15-1.86-5.03-2.16,1.76-5.18-4.83,2.58-2.96-4.61-.65,3.55L173.69,64.68l9.37,1.25-6.13-7.48,6.97-6.7-9.67,.13-.89-9.63-5.93,7.64-.76-.5-9.23-34.6,2.78,1.71-1.45-5.28,5.15-1.86-5.03-2.16,1.76-5.18-4.83,2.59-2.96-4.61-.99,5.39-5.45-.56,3.59,4.13-3.83,3.91,5.47-.23,.66,5.43,3.15-4.32,9.15,34.31-5.29-3.47,2.28,9.4-9.19,3.01,8.77,4.08-3.37,9.06,4.81-2.4L93.44,210.29h0l-4.34,3.23-6.36-7.28-.32,9.66-9.66,.44,7.35,6.28-5.68,7.82,4.17-.81-43.87,37.75-.61-5.39-3.26,4.4-4.64-2.91,1.4,5.29-5.17,1.82,5.01,2.2-1.8,5.17,4.27-2.24-11.8,56.57-.39-1.1-2.19,5.02-5.17-1.79,2.56,4.84-4.62,2.93,5.38,1.02-.59,5.44,3.23-2.78-.93,27.24-5.4-6.18-.32,9.66-9.66,.44,7.35,6.28-5.68,7.83,9.49-1.83,2.58,9.32,4.48-8.56,8.89,3.8-3.9-8.84,8.51-4.59-.07-.02,68.89-13.96-1.94,2.67,5.38-1.04,1.46,5.28,2.54-4.85,5.03,2.15-2.21-5.01,4.82-2.6-.49-.13,86.18-23.39-1.76,5.04,4.85-2.54,2.92,4.63,1.03-5.38,5.44,.61-3.56-4.16,3.87-3.88-3.35,.12,40.94-34.99,.62,5.1,3.23-4.42,4.66,2.87-1.45-5.28,5.15-1.86-4.76-2.05,29.96-19.52,5.45-1.05,2.58,9.32,4.49-8.56,8.89,3.8-3.9-8.84,8.51-4.59Zm-21.86-10.08l-.21,6.26-9.66,.44,7.35,6.28-5.58,7.68-25.57,16.66,1.04-3.07-4.83,2.58-2.96-4.61-.99,5.39-5.45-.56,3.59,4.13-3.84,3.91,3.3-.14-40.89,34.95-.58-5.08-3.27,4.4-4.64-2.91,1.4,5.29-5.16,1.82,2.82,1.24-87.16,23.66h0l-1.67-.44,.98-5.39-4.39,3.27-3.6-4.12-.18,5.47-5.47,.25,4.02,3.43-73.57,14.91-5.74-1.51,1.72-9.51-7.12,5.3,.96-27.95,3.18,3.15-.2-5.47,5.44-.63-4.41-3.25,2.9-4.65-5.29,1.42-.4-1.12,12.19-58.45,2.06,3.27,1.03-5.38,5.44,.61-3.56-4.16,3.87-3.88-2.96,.1,44.55-38.34,2.12-.41,2.58,9.32,4.48-8.56,8.89,3.79-3.9-8.84,8.51-4.59-9.35-2.46,1.72-9.51-.6,.44L165,66.55h0l1.47-.74,4.98,8.29,1.61-7.5,102.32,146.58-5.06-.52,3.59,4.13-3.83,3.91,5.47-.23,.66,5.43,3.23-4.42,.7,.43h0l13.12,31.89h0Z"/></g></g></svg>