<?xml version="1.0" encoding="UTF-8"?><svg xmlns="http://www.w3.org/2000/svg" viewBox="0 0 420.36 231.84"><defs><style>.d{fill:#1d1d1b;}</style></defs><g id="a"/><g id="b"><g id="c"><polygon class="d" points="413.1 73.76 413.77 81.1 408.27 76.2 402.95 81.29 403.35 73.93 396.05 72.96 401.75 68.89 258.31 10.82 259.68 14.94 255.21 12.51 252.44 16.78 251.78 13.05 204.3 71.37 204.29 71.38 204.29 71.38 203.55 75.08 213.81 78.02 204.31 82.89 208.41 92.75 198.68 88.35 193.53 97.7 190.9 87.35 180.37 89.16 186.72 80.8 119.58 76.79 124.7 85.63 114.48 82.54 110.59 92.49 106.64 82.57 96.44 85.73 98.26 82.53 45.43 109.1 48.91 109.43 40.46 115.96 46.31 124.9 35.93 122.37 32.6 132.51 28.11 122.82 18.09 126.54 20.22 122.28 12.14 126.69 16.37 128.37 11.63 130.23 13.11 135.1 8.87 132.64 13.15 161.55 17.65 156.35 17.93 163.72 25.29 164.02 19.71 168.83 24.06 174.78 18.21 173.67 50.67 218.19 50.93 215.1 54.08 219.09 58.31 216.27 57.2 221.01 120.73 200.14 117.33 198.32 121.98 197.07 87.62 161.41 87.5 161.39 84.93 171.75 79.73 162.42 70.02 166.87 74.07 156.99 64.54 152.17 74.79 149.18 72.62 138.73 78.31 142.74 74.3 125.78 71.7 130.56 69.85 123.43 62.59 124.71 67.01 118.82 61.48 113.95 68.85 113.73 69.21 106.37 73.98 111.99 79.96 107.68 78.53 114.91 85.62 116.9 79.08 120.3 81.95 127.08 75.94 124.41 80.68 144.4 81.35 144.88 88.17 136.66 88.8 147.32 99.48 147.52 91.54 154.67 98.04 163.14 90.79 161.93 121.69 194 121.32 192 125.41 195.02 128.74 191.18 128.93 196.26 134.01 196.47 130.16 199.79 133.16 203.89 128.16 202.95 126.83 207.86 124.45 203.36 119.78 205.37 121.27 201.98 59.96 222.12 61.99 222.77 57.4 224.95 59.21 229.7 54.64 227.47 52.05 231.84 50.95 226.88 45.92 227.58 49.11 223.63 45.42 220.13 49.73 220.16 16.5 174.58 14.89 180.52 11.44 174 4.68 176.92 7.62 170.17 1.12 166.7 8.24 164.79 6.9 157.55 11.08 160.64 7.23 134.7 5.83 136.74 5.07 131.71 0 132.07 3.46 128.35 .01 124.6 5.08 124.99 5.86 119.96 8.73 124.16 13.14 121.64 12.28 124.44 21.72 119.28 22.87 116.99 13.72 111.47 24.17 109.25 22.77 98.66 31.02 105.44 38.43 97.75 38.28 108.43 41.84 108.77 41.85 108.77 99.98 79.52 99.98 79.52 101.73 76.45 92.9 70.45 103.45 68.8 102.64 58.15 110.5 65.38 118.32 58.1 117.58 68.75 128.14 70.33 121.39 74.98 184.7 78.76 178.85 73.55 189.53 73.29 190.11 62.63 196.97 70.81 205.67 64.61 205.11 67.34 250.25 11.9 246.49 12.27 249.84 8.45 246.3 4.8 251.38 5.04 252.03 0 255 4.12 259.35 1.48 257.98 6.38 262.75 8.13 259.82 9.37 400.68 66.39 398.26 62.36 405.35 64.39 407.93 57.49 410.76 64.29 417.76 62.01 414.21 68.46 420.36 72.51 413.1 73.76"/></g></g></svg>