<?xml version="1.0" encoding="UTF-8"?><svg xmlns="http://www.w3.org/2000/svg" viewBox="0 0 378.57 228.28"><defs><style>.d{fill:#1d1d1b;}</style></defs><g id="a"/><g id="b"><g id="c"><polygon class="d" points="364.71 150.47 365.82 164.47 355.44 155.01 345.2 164.62 345.98 152.71 261.17 216.59 265.05 218.32 259.01 220.41 260.62 226.59 255.22 223.17 251.39 228.28 250.7 221.93 244.31 222.11 248.85 217.61 244.72 212.74 248.29 213.15 193.95 123.49 187.59 135.64 183.85 122.1 170.06 124.77 177.43 114.61 98.64 118.9 101.25 122.22 94.94 121.25 93.46 127.46 90.29 121.91 84.51 124.64 86.87 118.7 81.14 115.88 85.71 114.49 13.24 16.52 12.09 20.98 9.03 15.37 3.19 17.98 5.67 12.09 0 9.16 6.15 7.42 4.9 1.16 10.09 4.88 14.22 0 14.54 6.38 20.93 6.56 16.14 10.79 19.98 15.9 15.58 15.13 86.63 111.18 85.89 107.78 91.15 111.41 95.17 106.44 95.63 112.82 102.01 112.87 98.4 116.2 176.6 111.94 167.63 104.28 181.66 103.64 182.13 89.61 191.38 100.18 202.64 91.79 200.14 105.61 213.72 109.2 201.36 115.86 207.03 128.71 197.95 124.83 251.21 212.74 252.3 207.21 255.68 212.64 261.35 209.69 259.73 214.27 344.57 150.37 332.22 148.58 343.75 140.56 336.67 128.43 350.13 132.45 355.19 119.35 360.44 132.38 373.84 128.17 366.93 140.4 378.57 148.25 364.71 150.47"/></g></g></svg>