<?xml version="1.0" encoding="UTF-8"?><svg xmlns="http://www.w3.org/2000/svg" viewBox="0 0 386.73 306.24"><defs><style>.d{fill:#1d1d1b;}</style></defs><g id="a"/><g id="b"><g id="c"><polygon class="d" points="386.73 214.56 379.73 214.53 379.13 221.51 374.86 216.1 362.59 254.58 371.97 251.12 367.41 260.2 376.1 265.46 366.16 267.55 367.47 277.63 359.63 271.16 359.48 271.32 359.48 271.32 357.83 292.51 360.26 290.18 360 295.14 364.92 295.8 360.88 298.68 363.44 302.94 358.66 301.58 356.92 306.24 355.01 301.65 350.29 303.2 352.68 298.84 348.53 296.11 353.42 295.27 352.96 290.32 356.09 293.1 357.64 273.22 352.57 278.46 352.74 268.3 342.62 267.34 350.67 261.14 345.12 252.63 354.99 255.05 358.18 245.41 361.47 252.54 372.67 217.43 368.97 219.91 370.56 213.08 363.88 210.95 369.11 208.47 297.71 189.56 298.63 194.16 294.59 191.26 291.39 195.06 291.13 190.1 286.17 189.97 289.89 186.67 286.89 182.7 291.79 183.56 293.03 178.75 294.75 181.9 298.49 174.09 298.49 174.08 298.46 173.81 293.49 173.98 296.58 170.88 276.63 168.82 278.5 170.59 273.53 170.56 273.12 175.51 270.04 171.61 265.91 174.37 267.04 169.53 262.3 168.02 266.51 166.02 252.12 157.57 252.11 157.57 251.31 157.74 252.61 167.82 244.78 161.35 237.72 168.65 237.88 158.49 234.95 158.21 234.95 158.21 163.37 196.59 163.37 196.6 162.26 198.81 170.95 204.07 161.01 206.16 162.31 216.24 154.48 209.77 147.42 217.07 147.49 212.85 111.39 270.35 117.39 269.51 112.99 274.96 118.08 279.78 111.07 279.75 110.48 286.73 106.14 281.23 100.31 285.12 101.91 278.29 95.23 276.17 101.56 273.16 99.06 266.61 105.36 269.68 108.92 263.65 110.15 269.15 147.54 209.59 147.54 209.59 147.59 206.92 146.18 206.79 50.59 269.04 60.01 271.42 51.11 276.33 55.3 285.58 45.92 281.68 41.3 290.73 38.49 280.97 28.54 282.99 34.43 274.71 26.64 268.19 36.78 267.63 37.02 257.48 43.78 265.06 51.87 258.92 50.47 267.1 143.49 206.53 137.48 205.95 145.52 199.75 139.98 191.24 149.63 193.61 125.01 146.6 122.74 152.12 120.25 145.57 113.53 147.54 117.09 141.51 111.36 137.47 118.3 136.5 117.88 129.51 122.08 133.49 122.09 105.41 120.56 107.33 120.16 102.38 115.19 102.4 118.81 98.99 115.7 95.12 120.62 95.82 121.71 90.98 122.8 92.84 123.81 83.95 119.86 86.59 120.99 81.76 116.26 80.24 120.75 78.11 118.98 73.47 122.26 75.08 104.63 35.02 101.47 42.74 97.86 33.24 88.11 36.1 89.47 33.79 75.59 41.14 80.05 42.35 75.67 44.68 77.64 49.24 73.08 47.26 70.75 51.64 69.93 48.61 60.71 80.29 64.64 78.31 62.93 82.97 67.44 85.05 62.72 86.61 63.92 91.44 59.75 88.73 56.72 92.67 56.24 87.72 51.27 87.8 54.13 85.04 14.01 82.68 16.2 84.74 11.23 84.72 10.81 89.67 7.73 85.77 3.6 88.53 4.73 83.69 0 82.18 4.49 80.05 2.72 75.41 7.18 77.59 9.71 73.31 10.79 78.16 15.7 77.46 12.91 80.93 54.01 83.34 51.68 80.52 56.61 81.15 57.63 76.29 59.31 79.06 68.64 47 64.58 47.77 67.52 43.76 63.76 40.51 68.72 40.32 68.92 35.35 72.17 39.11 76.17 36.17 75.6 39.23 91.11 31.02 93.28 27.35 84.97 21.51 95.03 20.1 94.43 9.96 101.8 16.95 109.35 10.15 108.65 18.3 116.94 10.07 113.18 8.87 117.67 6.74 115.9 2.1 120.36 4.28 122.88 0 123.96 4.85 128.89 4.15 125.77 8.02 129.38 11.44 125.62 11.42 157.56 54.74 157.78 54.81 159.53 50.16 161.22 54.23 173.75 35.92 173.64 35.17 163.5 35.82 170.46 28.42 163.64 20.9 173.76 21.73 175.38 11.7 181.05 20.13 189.9 15.15 186.84 24.84 196.25 28.65 186.77 32.3 189.66 42.04 180.9 36.89 175.08 45.22 174.1 38.39 163.32 54.13 166.16 53.22 163.75 57.57 167.89 60.31 162.99 61.14 163.43 66.08 159.73 62.77 156.13 66.2 156.42 61.24 151.49 60.56 155.55 57.69 153.01 53.42 154.89 53.97 124.32 12.49 123.99 16.36 120.91 12.46 116.78 15.22 117.58 11.81 108.97 20.35 118.5 21.94 110.04 27.57 114.99 36.44 105.8 33.49 123.96 74.76 125.96 71.37 127.05 76.22 131.97 75.53 128.85 79.39 132.46 82.81 127.49 82.78 127.07 87.73 125.33 85.52 124.23 95.26 128.7 93.09 126.91 97.73 131.39 99.88 126.66 101.37 127.77 106.21 123.77 103.52 123.77 133.61 128.18 129.64 127.58 136.62 134.5 137.77 128.66 141.66 132.08 147.78 126.61 146.02 150.5 191.65 153.04 184.02 157.29 193.25 166.82 189.73 164.69 193.97 231.92 157.92 227.77 157.53 235.82 151.32 230.27 142.82 240.14 145.24 240.81 143.2 220.3 78.12 217.62 81.47 217.24 76.52 212.27 76.51 215.9 73.12 212.81 69.23 217.72 69.96 218.84 65.12 221.33 69.41 225.81 67.27 224.01 71.89 228.48 74.06 223.74 75.53 224.83 80.38 222.23 78.61 241.72 140.46 243.33 135.6 247.59 144.82 257.12 141.31 252.56 150.39 261.25 155.65 254.57 157.05 265.97 163.75 265.02 161.25 269.49 163.43 272.01 159.15 273.09 164 278.01 163.3 275.06 166.96 295.83 169.1 293.77 166.69 298.71 167.24 299.64 162.36 302.29 166.56 306.69 164.25 305.05 168.94 309.61 170.94 304.92 172.59 306.19 177.39 301.98 174.76 299.02 178.75 298.85 177.24 296.22 182.74 299.94 181.07 298.02 185.66 302.44 187.93 300.37 188.52 369.82 206.91 367.71 201.39 374.01 204.47 377.58 198.43 379.1 205.27 386.04 204.29 381.64 209.75 386.73 214.56"/></g></g></svg>