<?xml version="1.0" encoding="UTF-8"?><svg xmlns="http://www.w3.org/2000/svg" viewBox="0 0 227.57 318.67"><defs><style>.d{fill:#1d1d1b;}</style></defs><g id="a"/><g id="b"><g id="c"><path class="d" d="M227.57,234.51l-4.39-1.71,1.36-4.51-4.08,2.37-2.68-3.88-.69,4.66-4.7-.32,2.53,2.71-49.3,1.69-.68-.5,4.91-7.95-9.02,2.45-3.16-8.8-2.02,4.68-27.83-94.77,6.45,3.29-3.18-8.79,8.51-3.86-8.85-3,2.29-9.06-7.86,5.06-5.66-7.44-.87,8.49L22.61,21.11l8.14-.57-7.26-5.89,5.3-7.7-9.13,2L16.95,0l-4.13,8.39L4.13,4.93l3.98,8.46L0,18.02l9.09,2.16-1.44,9.24,7.1-5.56,5.15,155.27-3.64-4.79-.95,9.3-9.35-.22,6.68,6.54-6,7.17,9.28-1.14,1.87,9.16,3.61-5.88,10.86,89.75-2.65-1.85,.97,4.61-4.52,1.33,4.21,2.11-1.78,4.36,4.28-1.97,2.3,4.11,1.12-4.58,4.65,.76-.92-1.19,22.97,6.69-6.16,6.73,9.32-.72,1.45,9.23,5.24-7.74,8.13,4.62-2.78-8.93,8.68-3.47-7.51-2.92,71.28-56.5-.72,6.83,7.06-6.12,6.66,6.56-.39-9.34,9.28-1.12-4.51-3.3,46.65-1.6-2.2,2.4,4.7-.36,.73,4.65,2.64-3.9,4.1,2.33-1.4-4.5,4.38-1.75Zm-73.61-5.21l-8.85-3.02,4.4,8.25-7.88,5.04,9.14,1.69-72.34,57.34,2.35-7.79-8.08,4.7-5.32-7.69-1.37,9.25-9.33-.64,4.23,4.54-22.84-6.66h0l-.09-.11,3.49-3.16-4.71-.08-.29-4.7-2.38,2.88-11.11-91.79,8.03,4.1-3.18-8.79,8.51-3.86-8.86-3,2.29-9.06-7.86,5.06-.13-.17L16.61,25.39l4.73,5.15,.07-8.08L116.85,116.09l-7.64-.18,6.68,6.54-5.99,7.17,9.28-1.14,1.87,9.16,4.7-7.65,28.78,98.01-.56,1.31Z"/></g></g></svg>