<?xml version="1.0" encoding="UTF-8"?><svg xmlns="http://www.w3.org/2000/svg" viewBox="0 0 426.31 345.71"><defs><style>.d{fill:#1d1d1b;}</style></defs><g id="a"/><g id="b"><g id="c"><path class="d" d="M426.31,210.01l-4.89-1.68,1.29-5.01-4.36,2.78-3.11-4.13-.55,5.14-5.17-.14,2.37,2.34-144.48-3.57,5.39-4.87-9.15-.16-.56-9.14-5.84,7.05-7.49-5.26,1.87,8.96-8.78,2.58,7.24,3.65-53.47,19.25,1.23-4.79-4.36,2.78-3.11-4.13-.47,4.4L69.86,121h0l-.06-.33,8.84-2.39-8.09-4.29,3.64-8.4-8.39,3.65-.49-.91,5.02-46.6,2.64,3.3,.4-5.16h5.17l-3.78-3.54,3.22-4.05-4.59,.68,11.28-18.12,2.02,3.54,1.19-5.04,5.11,.79-3.2-4.07,3.8-3.51-5.17-.04-.37-5.16-3.26,4.02-4.26-2.93,.87,3.94-22.01-9.38-.97-1.43,7.15-5.71-9.13-.72V0l-6.25,6.69L43.05,.98l1.33,9.06-8.92,2.04,7.91,4.61-.05,.1-23.66,9.78,1.37-2.46-4.93,1.58-1.96-4.79-1.83,4.84-4.97-1.45,2.64,4.45-4.23,2.98,5.12,.71-.31,5.16,2.17-2.06-4.54,28.3-2.48-3.28-.55,5.14-5.17-.14,3.68,3.64-3.33,3.95,5.14-.61,1.01,5.07,2.73-4.4,4.6,2.37-1.74-4.87,.62-.28h0l30.61,2.22-2.87,3.41,5.14-.61,1.01,5.07,2.32-3.74,10.3,32.81-.1,.38-9-1.68,5.43,7.37-6.92,5.99,9.15,.35,.37,9.15,5.77-6.69,100.65,210.04-3.68,.63,4.32,2.85-2.5,4.53,4.92-1.6,1.98,4.78,1.82-4.84,4.97,1.43-2.25-3.76,184.7-27.11-1.51,3.69,4.7-2.16,2.52,4.52,1.25-5.02,5.1,.85-3.15-4.11,3.85-3.46-4.27-.08,48.27-88.72,.42,2.09,2.73-4.4,4.6,2.37-1.74-4.87,4.72-2.12ZM63.57,105.07l-2.08-3.92-1.27,4.73-9.04-28.79,2.74,1.41-1.74-4.87,4.72-2.12-4.89-1.68,1.29-5.01-4.36,2.78-3.11-4.13-.55,5.14-5.17-.14,2.05,2.02-25.46-1.85,.12-.05-4.89-1.68,1.29-5.01-2.89,1.84,4.67-29.12,3.19,2.87-.45-5.15,5.1-.85-3.7-2.46,22.85-9.45-2.57,5.35,8.53-3.31,3.97,8.25,2.73-8.74,8.93,2.03-2.02-2.99,18.41,7.85-3.25,.99,4.64,2.28-1.91,4.81,2.84-1.34-9.95,15.98-.63-2.75-2.6,4.47-4.66-2.24,1.88,4.82-4.66,2.25,4.94,1.54-1.15,5.04,2.76-1.87-4.64,43.06Zm302.7,198.18l-.17-2.77-3.3,3.98-4.23-2.98,1.05,5.07-4.97,1.45,2.99,1.51-181.52,26.64,1.81-1.29-4.31-.58,36.18-40.49,.79,3.96,2.73-4.4,4.6,2.37-1.74-4.87,4.72-2.12-4.89-1.68,1.29-5.01-4.36,2.78-3.11-4.13-.55,5.14-5.17-.14,3.68,3.64-3.33,3.96,3.39-.4-34.9,39.06,.16-2.94-3.74,3.58-3.86-3.44,.29,3.21L67.15,126.47l4.34,3.18-1.01-5.37,117.08,102.45-2.89-.08,3.68,3.64-3.33,3.95,5.14-.61,1.01,5.07,2.72-4.4,4.6,2.37-1.74-4.87,4.72-2.12-2.04-.7,50.93-18.34-2.79,6.84,8.32-3.82,4.46,7.99,2.2-8.89,9.03,1.49-4.97-6.48,145.92,3.61-2.67,3.16,4.99-.59-48.57,89.27Z"/></g></g></svg>