<?xml version="1.0" encoding="UTF-8"?><svg xmlns="http://www.w3.org/2000/svg" viewBox="0 0 297 110.63"><defs><style>.d{fill:#1d1d1b;}</style></defs><g id="a"/><g id="b"><g id="c"><polygon class="d" points="297 63.89 289.35 71.18 296.01 79.38 285.54 77.94 283.28 88.26 277.88 79.18 268.41 83.85 271.53 75.57 126.12 104.28 128.36 106.21 124.12 106.39 123.96 110.63 121.18 107.42 117.76 109.94 118.54 105.77 114.44 104.67 116.04 103.82 14.77 77.11 16.43 80.9 11.04 78.58 8.29 83.77 6.75 78.1 .98 79.19 4.45 74.46 0 70.63 5.87 70.38 6.09 64.51 9.93 68.95 14.66 65.46 13.83 69.93 119.92 17.87 111.61 11.91 122.09 10.55 121.57 0 129.16 7.35 137.08 .36 136.07 10.87 146.47 12.71 140.78 16.42 286.46 46.78 285.12 43.71 289.02 45.39 291 41.64 292.12 45.73 296.29 44.94 293.78 48.37 297 51.14 292.76 51.31 292.6 55.56 289.82 52.35 286.4 54.87 287.18 50.7 283.08 49.6 284.94 48.6 138.29 18.04 137.62 18.47 142.67 27.75 132.65 24.43 128.54 34.16 124.89 24.25 114.72 27.11 118.47 20.92 15.1 71.64 19.26 72.76 15.03 75.01 117.96 102.16 116.48 98.78 120.38 100.46 122.36 96.71 123.48 100.81 127.65 100.02 126.08 102.15 271.17 73.51 262.58 69.47 272.64 66.22 270.19 55.94 279 61.78 285.51 53.46 286.44 63.99 297 63.89"/></g></g></svg>