<?xml version="1.0" encoding="UTF-8"?><svg xmlns="http://www.w3.org/2000/svg" viewBox="0 0 233.75 223.17"><defs><style>.d{fill:#1d1d1b;}</style></defs><g id="a"/><g id="b"><g id="c"><polygon class="d" points="225.72 187.96 222.77 199.2 233.75 203.02 223.12 207.73 226.98 218.69 216.68 213.32 210.51 223.17 208.28 211.76 196.74 213.08 204.27 204.23 196.04 196.03 203.08 196.25 52.43 76.24 53.13 79.6 48.21 76.13 44.37 80.76 44.01 74.76 38 74.64 42.47 70.62 38.82 65.85 42.99 66.54 23.63 39.39 20.05 49.51 15.39 38.87 4.41 42.68 9.83 32.4 0 26.19 11.41 24.01 10.14 12.46 18.96 20.03 27.2 11.83 26.78 23.44 38.33 24.77 28.99 31.69 35.15 41.54 26.17 39.15 45.05 65.63 46.2 61 49.12 66.25 54.59 63.75 52.31 69.31 57.67 72.03 52.56 73.52 206.77 196.37 207.65 196.4 207.65 196.39 142.64 102.13 141.09 106.94 138.53 101.5 132.9 103.62 135.56 98.23 130.39 95.15 136.17 93.89 64.23 15.41 64.12 19.69 60.13 15.19 55.33 18.82 56.36 12.89 50.53 11.4 55.81 8.51 53.34 3.03 58.89 5.35 61.63 0 63.28 5.78 69.18 4.6 65.68 9.49 70.28 13.36 65.58 13.61 135.76 90.18 135.45 87.91 140.11 91.7 144.26 87.35 144.21 93.36 150.2 93.89 145.46 97.59 148.79 102.6 145.04 101.71 208.03 193.04 208.93 184.85 215.89 194.16 225.72 187.96"/></g></g></svg>