<?xml version="1.0" encoding="UTF-8"?><svg xmlns="http://www.w3.org/2000/svg" viewBox="0 0 376.09 246.1"><defs><style>.d{fill:#1d1d1b;}</style></defs><g id="a"/><g id="b"><g id="c"><polygon class="d" points="371.14 50.53 375.33 55.82 368.66 54.82 367.14 61.39 363.76 55.55 357.68 58.46 360.14 52.18 354.07 49.23 358.49 47.86 316.6 25.33 320.06 31.93 311.13 28.81 307.31 37.47 304.18 28.54 295.03 30.95 298.64 25.2 233.73 56.04 238.89 58.28 232.53 60.55 234.3 67.06 228.56 63.51 226.33 66.54 226.33 66.55 188.74 227.87 192.49 225.18 191.17 231.8 197.66 233.64 191.66 236.73 194.27 242.95 188.12 240.19 184.88 246.1 183.2 239.57 176.56 240.73 180.62 235.34 175.57 230.87 182.31 230.69 182.66 223.95 186.56 228.57 224.29 66.62 223.77 62.24 217.03 62.51 221.69 57.79 17.22 13.27 19.66 17.93 13.3 15.71 10.58 21.88 8.35 15.51 1.82 17.24 5.41 11.52 0 7.5 6.7 6.74 6.48 0 11.25 4.77 16.38 .39 15.62 7.09 22.24 8.37 17.54 11.33 219.72 55.35 217.36 52.61 224.06 53.32 225.3 46.69 228.93 52.38 234.88 49.21 233.2 54.12 299.58 22.57 292.47 17.29 301.87 16.23 301.56 6.77 308.25 13.46 315.45 7.31 314.39 16.72 323.68 18.51 316.49 23.03 360.38 46.65 359.03 40.66 364.61 44.45 368.83 39.19 369.34 45.92 376.09 45.94 371.14 50.53"/></g></g></svg>