<?xml version="1.0" encoding="UTF-8"?><svg xmlns="http://www.w3.org/2000/svg" viewBox="0 0 267.37 285.51"><defs><style>.d{fill:#1d1d1b;}</style></defs><g id="a"/><g id="b"><g id="c"><polygon class="d" points="262.34 11.01 265.99 16.35 259.68 14.94 257.78 21.13 254.94 15.32 248.92 17.7 251.63 11.98 29.89 30.53 34.89 33.24 24.6 35.92 26.46 46.38 18.92 40.73 29.8 268.15 33.29 264.38 33.33 270.85 39.78 271.32 34.75 275.39 38.4 280.73 32.09 279.32 30.19 285.51 27.35 279.7 21.33 282.08 24.1 276.23 18.49 273 24.79 271.53 23.81 265.13 27.83 268.29 16.96 41.14 10.93 47.98 10.61 37.36 0 36.84 8.11 29.97 1.89 21.35 12.32 23.4 15.19 13.17 20.08 22.6 29.87 18.46 25.55 28.17 26.72 28.81 248.88 10.23 246.08 8.62 252.38 7.15 251.4 .75 256.49 4.75 260.88 0 260.92 6.47 267.37 6.94 262.34 11.01"/></g></g></svg>