<?xml version="1.0" encoding="UTF-8"?><svg xmlns="http://www.w3.org/2000/svg" viewBox="0 0 423.12 289.96"><defs><style>.d{fill:#1d1d1b;}</style></defs><g id="a"/><g id="b"><g id="c"><polygon class="d" points="419.04 248.84 421 253.09 416.67 251.33 414.57 255.5 413.25 251.02 408.67 251.98 410.26 249.71 124.75 283.49 126.82 286.18 122.2 285.42 121.08 289.96 118.8 285.87 114.55 287.83 116.32 283.5 112.14 281.39 115.38 280.44 48.87 213.94 49.08 216.3 45.59 213.19 42.22 216.43 42.47 211.76 37.84 211.13 41.65 208.42 39.24 204.41 42.11 205.23 16.3 158.88 15.6 161.24 13.52 157.05 9.18 158.79 11.16 154.55 7.09 152.24 11.64 151.15 10.9 146.53 13.09 148.23 6.97 75.51 4.71 77.97 4.67 73.3 0 72.97 3.63 70.02 .98 66.17 5.55 67.17 6.9 62.69 7.81 64.53 18.6 27.51 8.69 31.89 13.14 21.44 3.06 16.18 14.01 13.14 11.84 1.99 21.04 8.65 28.41 0 28.94 11.35 40.29 11.71 31.75 19.2 38.55 28.31 27.36 26.3 24.48 37.29 20.48 29.89 9.79 66.56 13.32 65.16 11.32 69.39 15.39 71.71 10.83 72.79 11.55 77.41 9.47 75.78 15.58 148.33 17.75 145.95 17.8 150.63 22.47 150.94 18.85 153.9 21.51 157.75 18.09 157.01 44.33 204.13 45.38 201.32 47.17 205.64 51.62 204.19 49.36 208.28 53.27 210.85 49.87 211.44 116.13 277.71 115.67 275.5 119.5 278.19 122.48 274.58 122.77 279.25 127.44 279.34 125.73 280.89 410.24 247.23 407.75 245.17 412.42 244.88 412.5 240.21 415.64 243.68 419.34 240.83 418.58 245.44 423.12 246.56 419.04 248.84"/></g></g></svg>