<?xml version="1.0" encoding="UTF-8"?><svg xmlns="http://www.w3.org/2000/svg" viewBox="0 0 344.89 267.42"><defs><style>.d{fill:#1d1d1b;}</style></defs><g id="a"/><g id="b"><g id="c"><polygon class="d" points="337.38 191.23 331.68 193.06 333.05 198.89 328.07 195.57 324.36 200.28 324 196.07 233.13 256.47 237.15 258.38 231.44 260.2 232.82 266.04 227.83 262.72 224.13 267.42 223.62 261.45 217.63 261.49 220.73 258.55 152.69 243.07 157.23 251.53 145.84 247.68 141.1 258.73 137.01 247.42 125.41 250.61 131.71 240.36 121.99 233.28 128.09 232.53 81.7 204.65 82.71 208.96 77.72 205.64 74.02 210.35 73.51 204.38 67.52 204.42 71.86 200.3 68.1 195.64 72.1 196.2 28.24 142.47 28.67 148.44 19.84 140.28 11.01 148.44 11.89 136.45 0 134.63 9.92 127.84 3.93 117.42 15.43 120.94 19.84 109.75 22.39 116.19 60.01 14.47 55.88 15.9 58.67 10.6 53.61 7.4 59.49 6.28 58.84 .32 63.38 4.22 67.63 0 67.41 5.99 73.36 6.67 68.55 10.24 71.72 15.32 65.94 13.78 63.94 19.42 62.32 15.73 23.82 119.82 24.26 120.94 35.76 117.42 29.76 127.84 39.69 134.63 27.8 136.45 27.91 137.95 74.38 194.88 75.33 190.62 78.38 195.77 83.76 193.14 81.63 198.74 87.04 201.3 83.21 202.53 132.28 232.01 133.92 231.81 133.39 219.8 141.98 228.21 151.05 220.31 149.83 232.27 161.66 234.43 152.46 240.35 220.77 255.89 218.21 252.71 224.14 253.54 225.43 247.7 228.48 252.85 233.86 250.22 232.52 253.75 321.92 194.32 317.86 194.35 322.21 190.23 318.44 185.57 324.37 186.4 325.67 180.55 328.3 185.01 324.32 92.2 317.31 99.71 317.3 87.68 305.31 86.74 314.71 79.24 307.97 69.28 319.69 71.95 323.28 60.47 328.5 71.3 339.71 66.95 334.5 77.78 344.89 83.83 333.17 86.51 334.92 98.41 326.92 92.04 330.9 184.64 334.1 183.07 331.97 188.67 337.38 191.23"/></g></g></svg>