<?xml version="1.0" encoding="UTF-8"?><svg xmlns="http://www.w3.org/2000/svg" viewBox="0 0 212.46 280.38"><defs><style>.d{fill:#1d1d1b;}</style></defs><g id="a"/><g id="b"><g id="c"><path class="d" d="M212.46,107.08l-8.21-2.6,1.94-8.39-7.15,4.8-5.34-6.75-.39,4.68L134.59,9.38l2.98-.06-3.06-2.75,2.49-3.27-4.06,.68-1-3.99-1.99,3.6-3.74-1.7,1.57,3.8-3.67,1.86,3.03,.88L22.54,79.03l1.37-3.24-7.86,3.5-4.11-7.56-2.16,8.33-8.48-1.5,5.17,6.89-6.46,5.69,8.6,.25,.42,8.6,5.56-6.57,6.99,5.03-.92-4.68,119.03,119.33h0l1.31,2.63-3.52,2.12,4.02,.86-.54,4.08,1.68-1.38-23.51,48.57-1.04-2.94-1.65,3.77-3.89-1.34,1.92,3.64-3.48,2.2,4.04,.77-.45,4.09,3.12-2.68,2.92,2.9-.15-4.11,4.09-.47-3.31-2.44,2.18-3.49-2.46,.66,23.96-49.51,2.05,2.14-.06-4.11,4.1-.38-3.25-2.52,2.26-3.44-1.21,.29,45.89-94.82,.97,4.32,4.36-7.42,7.74,3.76-3.08-8.04,7.77-3.71Zm-66.03,106.49l-.4,.1-1.28-3.91-1.73,3.73-.44-.17L20,90.44l-.08-.43,8.29-2.33-7.64-3.96,.63-1.5L127.72,10.32l-.5,2.41,3.36-2.38,2.63,3.16,.15-2.55,59.71,90.92h0l-.07,.84-8.61-.03,6.27,5.9-5.39,6.71,8.52-1.22,.25,1.12-47.61,98.36Z"/></g></g></svg>