<?xml version="1.0" encoding="UTF-8"?><svg xmlns="http://www.w3.org/2000/svg" viewBox="0 0 352.95 298.33"><defs><style>.d{fill:#1d1d1b;}</style></defs><g id="a"/><g id="b"><g id="c"><path class="d" d="M352.95,165.95l-9.72-2.64,1.87-9.9-8.13,5.95-6.57-7.63-.32,7.68-107.83-52.95,3.98-.66-8.38-5.59,4.91-8.8-9.59,3.07-3.82-9.32-3.45,9.08L154.94,21.89l2.89-.05-3.49-3.14,2.86-3.72-4.63,.77-1.13-4.55-2.29,4.1-4.27-1.96,1.19,2.92L73.82,6.96l2.4-1.99-4.68-.28-.09-4.69-3.14,3.49-3.72-2.85,.77,4.63-4.55,1.13,4.1,2.28-1.95,4.27,4.34-1.78,2.12,4.19,1.31-4.5,4.59,.96-1.93-2.75,72.03,9.25-2.93,1.48,4.5,1.32-.96,4.59,3.84-2.7,2.99,3.61,.22-3.65,49.86,70.79-6.84-2,5.13,8.67-8.24,5.8,9.98,1.4-.61,10.05,3.02-2.86-15.11,62.93h0l-1.09,1.59-4.07-2.33,1.38,4.48-4.36,1.73,3.04,1.19-98.91,38.2,.88-1.64-4.45,1.49-1.84-4.32-1.61,4.41-4.52-1.25,1.44,2.36-62.66-12.55,1.84-.91-4.5-1.34,.98-4.59-3.85,2.68-2.97-3.63-.31,4.68-4.69,.06,3.47,3.16-2.88,3.71,4.63-.74,1.1,4.56,2.31-4.09,4.25,1.98-1.52-3.78,65.01,13.02-3.01,2.18,4.66,.58-.22,4.69,3.36-3.28,3.53,3.09-.47-4.67,4.62-.83-3.64-2.35,100.85-38.95-.93,3.07,4.06-2.35,2.66,3.87,.49-3.24,97.85,99.66-2.52-.14,3.24,3.39-3.13,3.5,4.67-.42,.78,4.63,2.59-3.91,4.11,2.27-1.45-4.46,4.34-1.79-4.39-1.65,1.3-4.51-2.03,1.21,35.37-104.42,1,3.71,4.74-8.89,9.23,4.03-3.99-9.25,8.91-4.71Zm-57.69,120.1l-2.27-3.2-.52,3.8-98.41-100.24,3.17,.22-3.19-3.44,3.18-3.45-4.68,.35-.25-1.63,15.93-66.34,1.45-1.38,7.48,6.74-.86-10.04,2.34-.39h0l111.35,54.68v.06l-10.07,.38,7.61,6.6-5.98,8.11,9.9-1.83,.62,2.31-36.82,108.7Z"/></g></g></svg>