<?xml version="1.0" encoding="UTF-8"?><svg xmlns="http://www.w3.org/2000/svg" viewBox="0 0 220.69 280.83"><defs><style>.d{fill:#1d1d1b;}</style></defs><g id="a"/><g id="b"><g id="c"><polygon class="d" points="217.72 79.19 220.64 82.4 216.31 82.06 215.62 86.35 213.19 82.74 209.41 84.88 210.64 80.95 126.91 101.99 142.38 252.25 149.9 244.42 149.75 255.61 160.88 256.64 152.05 263.49 158.19 272.84 147.32 270.2 143.84 280.83 139.12 270.69 128.64 274.59 133.63 264.58 124.04 258.82 134.98 256.48 133.5 245.4 140.28 250.95 124.99 102.48 27.74 126.92 36.9 132.91 25.88 134.84 26.93 145.97 18.56 138.56 10.51 146.32 11.09 135.15 0 133.7 9.09 127.19 3.31 117.61 14.07 120.66 17.96 110.17 22.28 120.48 32.9 116.98 28.71 124.66 124.79 100.51 115.68 12.01 113.94 14.34 113.45 10.02 109.11 10.16 112.18 7.09 109.36 3.78 113.68 4.27 114.51 0 116.82 3.68 120.68 1.67 119.24 5.77 123.22 7.53 119.11 8.96 120.22 13.17 117.59 11.52 126.71 100.02 207.92 79.61 206.68 79.11 210.73 77.54 209.49 73.37 213.24 75.57 215.73 72 216.35 76.3 220.69 76.02 217.72 79.19"/></g></g></svg>