<?xml version="1.0" encoding="UTF-8"?><svg xmlns="http://www.w3.org/2000/svg" viewBox="0 0 412.5 336.79"><defs><style>.d{fill:#1d1d1b;}</style></defs><g id="a"/><g id="b"><g id="c"><polygon class="d" points="407.31 11.48 408.21 16.75 403.95 13.52 400.39 17.51 400.29 13.16 389.26 22.65 391.01 22.12 388.32 26.75 392.71 29.79 387.42 30.57 387.78 35.91 383.87 32.25 379.92 35.86 380.18 32.61 370.68 45.86 375.41 45.63 371.69 49.47 375.22 53.49 369.9 52.97 368.96 58.23 366.39 54.27 348.63 101.05 355.1 99.67 350.31 106.54 356.78 111.86 348.42 112.4 348.3 120.78 342.67 114.57 336.04 119.7 337.08 113.27 262.13 152.17 261.38 153.48 268.33 158.18 260.05 159.49 260.11 160.22 305.33 224.19 305.8 219.9 309 224.18 313.52 221.32 312.17 226.5 317.23 228.25 312.34 230.42 314.12 235.47 311.95 234.34 357.93 308.14 360.73 298.37 366.08 308.82 376.91 304.31 372.08 315.01 382.36 320.67 370.98 323.56 372.96 335.12 363.61 328.03 355.8 336.79 355.52 325.06 343.8 324.42 352.8 316.88 346 307.32 356.08 309.37 308.94 233.7 306.54 237.54 305.51 232.29 300.2 232.9 303.66 228.82 299.86 225.05 303.29 225.16 260.45 164.55 260.71 167.84 254.52 162.19 248.41 167.92 248.86 161.17 181.96 217.2 185.69 217.72 181.32 220.8 184.05 225.4 178.91 223.9 177.01 228.9 174.98 223.95 169.89 225.59 171.64 222.44 107.67 241.01 113.67 244.31 105.55 246.37 106.96 254.63 100.29 249.56 94.71 255.82 94.51 247.44 86.15 246.98 92.05 242.04 14.14 230.29 16.45 233.67 11.23 232.5 9.65 237.62 7.31 232.8 2.33 234.76 4.63 229.93 0 227.26 5.21 226.04 4.41 220.75 8.61 224.07 12.25 220.15 12.27 225.5 17.6 225.9 14.81 228.15 91.19 239.67 87.71 234.78 95.92 236.44 98.23 228.39 102.05 235.85 109.78 232.63 106.95 238.9 171.41 220.19 168.04 217.95 173.32 217.07 172.86 211.74 176.83 215.32 180.71 211.64 180.48 215.54 247.56 159.35 240.67 158.34 247.56 153.57 243.34 146.33 251.19 148.68 227.41 90.53 222.19 100.46 219.08 89.14 207.56 91.36 214.47 81.87 205.55 74.23 217.28 73.72 217.69 61.99 225.4 70.84 234.82 63.85 232.72 75.39 244.06 78.4 233.72 83.95 238.44 94.7 230.04 91.1 252.46 145.92 254.4 140.92 257.52 148.7 265.52 146.2 264.14 148.63 336.32 111.17 329.24 109.44 336.54 105.33 333.01 97.73 340.78 100.88 344.53 93.38 346.56 100.24 363.73 55 361.34 56.29 363.04 51.22 358.11 49.13 363.13 47.29 361.69 42.14 366.26 44.92 369.39 40.58 369.75 43.35 379.07 30.33 375.06 29.69 379.49 26.69 376.85 22.04 381.96 23.64 383.95 18.67 385.58 22.88 398.18 12.05 394.92 11.87 399.02 8.44 395.92 4.08 401.16 5.14 402.64 0 405.07 4.76 410.01 2.71 407.81 7.58 412.5 10.16 407.31 11.48"/></g></g></svg>