<?xml version="1.0" encoding="UTF-8"?><svg xmlns="http://www.w3.org/2000/svg" viewBox="0 0 301.72 421.35"><defs><style>.d{fill:#1d1d1b;}</style></defs><g id="a"/><g id="b"><g id="c"><path class="d" d="M291.38,398.3l8-11.01-13.36,2.57-3.62-13.12-5.56,10.6-80.88-243.66,.25-1.16,13.48,1.87-8.56-10.58,9.87-9.37-13.61,.1-1.17-13.56-8.39,10.68-35.62-87.06,5.74,.59-4.52-5.18,4.81-4.91-6.87,.3-.84-6.82-4.05,5.56-5.86-3.6,1.57,5.71L18.63,10.44l3.84-3.5-6.87-.09-.45-6.86-4.35,5.32L5.14,1.4l1.44,6.72L0,10.08l6.15,3.06-2.57,6.37,6.23-2.9,3.38,5.98,1.32-5.45,54.09,73.76-5.27-.37,4.68,5.03-4.64,5.06,6.85-.52,1.06,6.79,3.86-5.69,5.97,3.4-1.91-6.17,95.56,30.51-8.11,2.6,12.3,5.81-4.83,12.72,12.22-5.99,6.94,11.71,1.61-7.3,79.53,239.58-10.85-4.64,5.48,12.45-11.98,6.45,13.15,3.48-2.43,13.39,10.92-8.12,8.95,10.25,.47-13.6,13.59-.61-10.34-8.84ZM179.61,127.41l-.69,.22h0l-96.63-30.85,3.18-1.27-6.4-2.5,1.99-6.58-5.95,3.45-3.9-5.66-.74,4.95L17.01,16.27l4.59,.73-3.13-4.03,120.58,15.44-3.06,1.11,6.32,2.71-2.2,6.51,6.06-3.25,3.72,5.78,.71-3.91,33.49,81.86-7.6-5.06,3.12,13.24Z"/></g></g></svg>