<?xml version="1.0" encoding="UTF-8"?><svg xmlns="http://www.w3.org/2000/svg" viewBox="0 0 429.99 265.01"><defs><style>.d{fill:#1d1d1b;}</style></defs><g id="a"/><g id="b"><g id="c"><path class="d" d="M429.99,6.42l-6.57,.12-.64-6.54-4,5.21-5.51-3.58,1.58,6.38-6.23,2.08,5.64,2.59-78.78,44.53h0l-3.97-.28-.11-14.95-10.13,10.99-11.76-9.24,2.27,14.78-14.55,3.43,10,5.73-103.71,14.14,3.07-3.95-6.49,1.03-1.54-6.39-3.24,5.72-5.95-2.78,2.45,6.1-5.88,2.92,6.24,1.87-102.86,91.18,.57-4.11-5.1,4.14-4.53-4.76,.05,6.57-6.54,.57,3.56,2.79-40.13,1.82-.19-.13,7.45-12.96-14.29,4.38-5.49-13.91-5.49,13.91-14.3-4.38,7.45,12.96L0,192.84l14.78,2.26-1.09,14.91,10.98-10.15,2.28,2.11,9.21,46.61-4.71-2.16,2.49,6.08-5.86,2.96,6.31,1.84-1.34,6.43,5.37-3.78,4.19,5.06,.39-6.56,6.57-.13-4.88-4.39,4-5.21-4.53,.75,37.72-60.94,1.82,5.65,2.8-5.94,6.14,2.33-2.9-5.9,5.65-3.35-3.71-.81,216.44-106.75-4.32,9.14,13.9-5.51,6.58,13.42,4.36-14.3,14.6,3.22-8.46-12.33,11.62-9.41-7.81-.56L413.83,14.92l-1.5,4.08,5.86-2.96,3.41,5.61,1.34-6.43,6.52,.83-4.19-5.06,4.71-4.58ZM42.13,249.46l-1.5-6.04-2.74,4.92-8.77-44.36,6.53,6.04-1.09-14.91,14.78-2.26-9.77-6.69,39.09-1.77-3.36,5.06,4.67-1.11-37.84,61.13ZM309.33,71.23h0L89.53,179.63l102.11-90.51-.78,3.64,5.4-3.75,4.16,5.09,.44-6.56,6.57-.08-4.24-3.87,106.53-14.52,.5,.29-.88,1.86Z"/></g></g></svg>