<?xml version="1.0" encoding="UTF-8"?><svg xmlns="http://www.w3.org/2000/svg" viewBox="0 0 409.15 374.55"><defs><style>.d{fill:#1d1d1b;}</style></defs><g id="a"/><g id="b"><g id="c"><path class="d" d="M409.15,361.88l-7.16-2.85,2.27-7.36-6.69,3.82-4.34-6.36-.93,5.97-25.18-32.77,6.49-.61-6.09-4.71,4.21-6.45-7.48,1.83-2.41-7.31-3.23,6.99-7.22-2.67,2.2,4.39-85.32-25.89,6.06-4.2-7.62-1.12,.52-7.68-5.63,5.26-5.68-5.2,.6,7.68-7.61,1.2,.42,.29-64.14-9.44,4.89-3.38-7.62-1.12,.52-7.68-5.63,5.26-5.68-5.2,.31,3.98-11.9-13.88,3.83,1.71-2.99-7.1,6.84-3.54-7.41-2.09,1.5-7.55-4.17,3,5.55-10.81,3.77,9.4,4.37-11.25,11.56,3.47-6.07-10.43,9.92-6.87-11.94-1.76,.81-12.04-8.23,7.69-3.26-48.47,4.39,3.53-1.09-7.62,7.51-1.69-6.64-3.9,3.36-6.93-4.02,1.55,25.55-52.05,.9,1.78,1.32-4.51,4.6,.96-2.7-3.85,3.62-3-4.69-.29-.08-4.7-1.96,2.17-6.19-20.45,2.65,.8-2.37-4.06,3.87-2.68-4.65-.68,.32-4.69-3.44,3.21-3.47-3.17,.17,2.22L121.36,10.11l2.2-.32-3.86-2.69,2.38-4.06-4.51,1.34-1.69-4.39-1.76,4.36-4.49-1.41,2.31,4.1-3.9,2.63,4.64,.75-.38,4.69,2.04-1.86-1.86,32.96-4.8-4.38,.6,7.68-7.61,1.2,6.38,4.32-3.8,6.7,6.86-2.14-39.78,116.79-3.43-5.77-1.65,7.52-7.63-1.05,4.86,5.98-5.58,5.31,4.47-.04-32.26,24.87,2.09-6.77-10.48,5.99-6.8-9.97-1.85,11.93L.04,213.47l8.17,8.88L0,231.2l12.04-.85,1.8,11.94,6.84-9.95,10.45,6.04-2.62-8.61,21.29,13.58-2.78,.44,6.38,4.32-3.8,6.7,7.35-2.29,2.87,7.15,2.79-7.18,7.37,2.22-3.87-6.66,6.33-4.38-5.07-.75,13.88-12.73,1.07,3.3,2-4.26,4.4,1.65-2.08-4.22,4.04-2.41-4.6-1,.63-4.66-2.43,1.98-10.58-28.22,2.74,1.82-1.78-7.49,7.33-2.37-6.97-3.28,2.72-7.2-4.43,2.18L111.91,62.69l1.56,3.88,2.79-7.18,7.38,2.22-3.87-6.66,6.33-4.38-7.62-1.12,.52-7.68-3.75,3.5,1.81-32.13,2.15,2.02-.22-3.35,61.27,38.76-3.56,.56,3.89,2.64-2.32,4.09,4.49-1.4,1.75,4.36,1.06-2.73,5.88,19.44-2.12-1.63,.77,4.64-4.57,1.13,4.11,2.29-1.96,4.27,3.59-1.47-26.96,54.91-3.1-6.49-2.32,7.34-7.5-1.74,4.29,6.39-6.04,4.78,7.68,.63-.02,7.7,4.17-4.43,3.17,47.11-6.69-6.12,.94,12.04-11.92,1.89,10,6.77-5.96,10.5,9.87-3.08-6.32,12.32-3.9-4.61-.39,7.69-7.7,.22,5.77,5.1-4.63,6.16,7.58-1.34,1.93,7.46,3.07-5.63,15.41,17.98-7.01,1.11,6.38,4.32-3.8,6.7,7.35-2.29,2.87,7.15,2.79-7.18,7.38,2.22-2.9-4.99,69.78,10.27h0l.79,.53-3.8,6.7,7.35-2.3,2.87,7.15,2.79-7.18,7.38,2.22-2.06-3.54,84.23,25.56-5.8,3.5,7.53,1.6-1,7.64,5.95-4.89,5.35,5.54-.08-4.84,24.04,31.29-5.66-.43,5.21,5.67-5.24,5.64,7.68-.54,1.14,7.62,4.37-6.34,6.67,3.85-2.24-7.37,7.17-2.81ZM80.92,219.3l-1.1-1.15,.05,4.7-4.68,.42,3.71,2.89-2.59,3.92,1.41-.34-12.82,11.75,.45-6.66-5.63,5.26-5.68-5.2,.6,7.68-.79,.13-25.4-16.2,10.42-4.09-11.22-4.46,.09-.28,36.95-28.48,.6,6.77,4.66-5.95,10.98,29.29Z"/></g></g></svg>