<?xml version="1.0" encoding="UTF-8"?><svg xmlns="http://www.w3.org/2000/svg" viewBox="0 0 415.19 513.4"><defs><style>.d{fill:#1d1d1b;}</style></defs><g id="a"/><g id="b"><g id="c"><polygon class="d" points="400.6 498.69 401.68 513.4 390.84 503.39 380.01 513.4 381.08 498.69 366.5 496.46 378.67 488.12 371.32 475.33 384.92 479.5 372.43 446.94 370.93 445.96 365.73 452.7 364.92 444.22 356.41 444.36 362.53 438.44 357.12 431.87 363.57 432.71 336.8 405.95 337.18 411.1 330.93 405.33 324.67 411.1 325.29 402.61 316.88 401.33 323.9 396.52 319.66 389.14 327.28 391.47 316.95 356.03 314.12 360.29 313.12 354.33 307.1 354.86 311.14 350.36 306.97 345.99 313 346.34 313.83 340.35 316.12 343.6 317.61 333.98 315.32 336.1 315.76 330.07 309.78 329.16 312.45 327.34 301.38 327.34 305.71 330.3 297.29 331.58 297.91 340.08 291.66 334.3 285.41 340.08 286.03 331.58 285.16 331.45 285.16 331.45 259.02 347.34 263.11 350.14 257.14 351.05 257.58 357.08 253.14 352.98 248.7 357.08 249.14 351.05 243.17 350.14 247.59 347.11 225.21 331.57 225.54 336.1 221.11 332 216.67 336.1 217.11 330.07 211.13 329.16 216.12 325.75 213.11 320.51 217.85 321.96 207.16 295.03 206.58 297.7 203.47 292.52 198.06 295.22 200.17 289.56 194.69 287.01 198.45 285.77 158.23 271.3 158.23 271.3 158.18 271.32 159.69 277.17 154.59 273.93 150.96 278.76 150.31 272.75 144.27 272.93 148.56 268.67 148.54 268.64 143.4 268.64 144.67 269.55 138.68 270.34 138.99 276.37 134.64 272.18 130.12 276.18 130.68 270.17 124.73 269.13 129.79 265.82 126.89 260.52 128.58 261.08 122.14 252.54 121.27 258.68 116.39 251.7 109.05 256.02 111.46 247.86 103.51 244.81 111.4 241.6 108.82 233.49 116.25 237.66 120.98 230.58 122.13 237.58 170.64 190.81 165.16 189.97 170.14 186.56 167.13 181.32 172.91 183.09 175.13 177.47 177.35 183.09 183.13 181.32 180.95 185.11 186.2 185.11 183.14 182.85 189.14 182.14 188.9 176.11 193.2 180.36 197.78 176.41 197.13 182.42 197.86 182.55 197.86 182.55 202.73 178.57 198.76 178.59 203.15 174.44 199.36 169.73 205.34 170.58 206.66 164.68 209.73 169.89 215.16 167.24 213.72 171.01 224.3 164.98 220.85 164.02 226.2 161.22 223.84 155.66 229.36 158.11 232.24 152.79 233.77 158.64 239.72 157.57 236.79 161.49 255.43 161.49 252.61 156.57 258.39 158.34 260.6 152.72 262.82 158.34 268.6 156.57 265.59 161.81 270.58 165.23 267.98 165.62 289.61 178.19 288.65 172.33 293.43 176.02 297.49 171.54 297.59 177.51 310.73 165.93 306.16 165.23 311.14 161.81 308.13 156.57 313.91 158.34 316.13 152.72 318.32 158.28 328.53 145.89 322.78 145.89 327.2 141.76 323.43 137.03 329.41 137.92 330.76 132.02 332.82 135.58 335.15 107.63 331.78 110.74 332.22 104.71 326.25 103.8 331.23 100.38 328.22 95.14 334 96.91 334.04 96.81 321.77 64.45 321.33 64.18 316.35 71.09 315.27 62.64 306.77 63.06 312.27 57.38 284.16 57.38 286.83 59.2 280.85 60.12 281.29 66.14 276.85 62.04 272.42 66.14 272.86 60.12 266.88 59.2 269.55 57.38 247.78 57.38 250.78 59.19 244.87 60.44 245.65 66.43 240.99 62.59 236.79 66.94 236.88 60.9 230.87 60.34 233.59 58.23 222.11 59.61 225.87 61.58 220.05 63.19 221.2 69.12 216.31 65.58 212.39 70.18 212.24 66.93 208.96 73.26 212.54 72.16 209.53 77.4 214.52 80.81 208.54 81.73 208.98 87.75 204.54 83.65 200.11 87.75 200.5 82.42 189.34 88.78 195.95 91.92 187.83 94.5 189.76 102.79 182.69 98.05 177.41 104.73 176.7 96.24 168.19 96.28 174.39 90.44 169.05 83.8 173.67 84.46 145.5 48.02 144.84 52.49 141.4 47.52 136.17 50.56 137.91 44.78 132.28 42.59 136.83 40.76 95.33 18.95 96.34 27.04 89.8 21.59 83.85 27.67 84.04 19.16 75.57 18.3 80.22 14.76 70.75 14.06 73.51 16.81 67.47 16.62 66.8 22.62 63.19 17.78 58.08 21.01 59.34 16.18 20.85 33.64 27.73 35.87 20.02 39.48 23.01 47.45 15.38 43.67 11.01 50.98 9.21 42.66 .77 43.8 6.15 37.21 0 31.33 8.51 31.42 9.28 22.94 14.51 29.65 21.61 24.96 19.94 31.94 58.09 14.64 53.9 13.18 59.42 10.73 57.41 5.03 62.77 7.82 65.97 2.7 67.14 8.63 73.14 7.94 69.64 12.06 82.24 12.98 77.73 5.99 85.98 8.07 88.71 0 92.23 7.75 100.23 4.85 96.37 12.43 103.63 16.88 97.79 18.08 137.45 38.93 136.09 34.57 141.34 37.55 144.73 32.55 145.67 38.52 151.7 38.04 147.62 42.51 151.75 46.92 146.81 46.59 176.39 84.85 177.48 85.01 179.34 76.7 183.66 84.04 191.31 80.31 188.79 86.88 198.41 81.4 194.57 80.81 199.56 77.4 196.55 72.16 202.33 73.93 204.54 68.31 206.63 73.59 211.54 64.12 206.07 63.94 210.62 59.96 207 55.11 212.95 56.19 214.49 50.34 217.36 55.66 222.89 53.22 220.92 57.82 235.29 56.1 232.34 51.58 238.21 53.02 240.1 47.28 242.64 52.76 248.31 50.66 245.9 55.46 271.68 55.46 268.86 50.55 274.63 52.32 276.85 46.7 279.07 52.32 284.85 50.55 282.03 55.46 311.39 55.46 307.07 50.56 315.54 51.38 317.03 43 321.67 50.14 329.15 46.08 326.46 54.15 334.3 57.47 326.31 60.4 328.6 68.6 324.43 66.07 335.09 94.17 336.22 91.29 338.44 96.91 344.22 95.14 341.21 100.38 346.19 103.8 340.22 104.71 340.66 110.74 337.08 107.43 334.64 136.84 339.24 134.63 337.05 140.26 342.5 142.88 336.73 144.69 338.07 150.58 333.07 147.19 329.3 151.91 329.01 148.32 321.56 157.36 324.13 156.57 321.12 161.81 326.1 165.23 320.13 166.14 320.57 172.17 316.13 168.06 311.69 172.17 312.04 167.32 300.22 177.74 303.62 177.95 298.96 181.8 302.42 186.75 296.51 185.5 294.8 191.3 292.09 185.9 286.5 188.18 289.03 182.69 283.76 179.74 287.06 178.92 264.96 166.08 264.6 166.14 265.04 172.17 260.6 168.06 256.17 172.17 256.61 166.14 250.63 165.23 253.3 163.4 237.24 163.4 240.65 166.39 234.61 166.59 234.33 172.63 230.41 168.02 225.51 171.57 226.62 165.86 213.71 173.22 218.46 175.48 212.7 177.31 214.07 183.2 209.05 179.84 205.3 184.58 204.86 179.3 200.32 183.01 203.07 183.53 197.97 186.77 200.8 192.11 195.09 190.15 192.68 195.69 190.65 190 184.82 191.57 187.64 187.02 180.79 187.02 185.1 189.97 179.13 190.89 179.57 196.91 175.13 192.81 170.69 196.91 170.96 193.17 123.54 238.89 130.84 238.28 125.12 244.59 130.97 250.78 122.84 250.27 131.77 262.13 132.63 262.41 134.96 256.84 137.06 262.51 142.88 260.86 139.76 266.03 140.72 266.73 146.91 266.73 144.66 264.06 150.66 264.76 151.84 258.83 155.03 263.97 160.39 261.19 158.37 266.88 163.89 269.35 161.12 270.3 200.25 284.38 199.01 279.25 204.06 282.57 207.77 277.79 208.32 283.81 214.37 283.73 210.01 287.92 213.84 292.59 207.93 291.8 219.46 320.82 221.11 316.66 223.33 322.28 229.1 320.51 226.09 325.75 231.08 329.16 226.18 329.91 246.66 344.13 245.14 341.49 250.92 343.26 253.14 337.64 255.36 343.26 261.14 341.49 259.08 345.06 282.21 331 277.61 330.3 284.63 325.49 280.39 318.11 288.53 320.6 291.66 312.68 294.78 320.6 302.92 318.11 298.72 325.42 314.58 325.42 311.76 320.51 317.53 322.28 319.75 316.66 321.97 322.28 327.75 320.51 324.74 325.75 329.73 329.16 323.75 330.07 324.19 336.1 319.84 332.08 317.85 344.97 322.51 342.2 320.82 348 326.48 350.14 320.89 352.44 322.74 358.19 318.96 356.09 328.68 389.41 330.93 383.71 334.05 391.63 342.19 389.14 337.95 396.52 344.97 401.33 336.56 402.61 336.59 403.03 365.73 432.17 367.33 424.65 371.73 431.93 379.34 428.12 376.39 436.1 384.11 439.68 376.03 442.35 378.06 450.61 375.17 448.73 386.24 477.59 390.84 465.93 396.26 479.65 410.37 475.33 403.02 488.12 415.19 496.46 400.6 498.69"/></g></g></svg>