<?xml version="1.0" encoding="UTF-8"?><svg xmlns="http://www.w3.org/2000/svg" viewBox="0 0 358.01 192.97"><defs><style>.d{fill:#1d1d1b;}</style></defs><g id="a"/><g id="b"><g id="c"><path class="d" d="M358.01,22.16l-13.07-4.75,3.71-13.41-11.87,7.26-8.17-11.26-1.72,13.8-13.9-.63,9.72,9.95-1.54,1.76h0l-128.24,24.6,2.98-4.06-7.57,1.43-2.02-7.43-3.6,6.81-7.07-3.06,3.08,7.06-6.8,3.62,5.88,1.58L32.11,157.47l.71-13.82-10.01,9.66-10.41-9.22,1.31,13.85-13.7,2.39,11.64,7.61-6.67,12.21,13.21-4.36,5.38,12.83,4.83-13.04,13.38,3.79-7.19-11.91,.08-.06,113.55,4.61-7.47,9.73,13.72-2.27,3.34,13.5,6.78-12.14,12.64,5.81-5.26-12.87,12.42-6.26-11.68-3.42L327.46,32.6l2.41,13.29,7.54-11.69,12.25,6.6-4.44-13.18,12.79-5.46ZM171.42,161.8l2.48-11.84-11.38,8-8.87-10.72-.84,13.88-13.91,.25,8.91,8.03-109.74-4.46,7.83-5.61-10.11-1.32L179,57.71l-1.06,5.72,6.2-4.57,5.05,5.82,.29-7.7,7.7-.32-5.12-4.41,126.36-24.23-4.87,5.57,9.96-1L171.42,161.8Z"/></g></g></svg>