<?xml version="1.0" encoding="UTF-8"?><svg xmlns="http://www.w3.org/2000/svg" viewBox="0 0 434.44 256.04"><defs><style>.d{fill:#1d1d1b;}</style></defs><g id="a"/><g id="b"><g id="c"><path class="d" d="M434.44,23.51l-4.67-1.14,.77-4.75-3.8,2.95-3.24-3.56-.07,4.81-4.8,.31,2.84,2.33-69.04,13.61,2.06-1.88-4.81-.06-.32-4.8-3.05,3.72-3.95-2.75,1.01,4.71-4.61,1.38,3.8,1.89-48.06,12.16,3.63-6.82-9.11,3.11-3.82-8.83-3.25,9.06-9.29-2.52,5.06,8.19-7.76,5.69,9.56,1.15-.39,9.62,2.95-2.91-24.82,108.22-4.22-9.76-3.88,10.84-51.19-98.2,3.86,.62-2.95-3.8,3.56-3.24-4.81-.07-.31-4.8-3.05,3.72-3.95-2.75,.89,4.18L62.15,25.9l8.7-3.44-12.67-5,3.99-13.02-11.81,6.79L42.67,0l-2.05,13.46-13.58-.99,9.24,10-9.24,10,11.49-.84-19.68,24.41-3.62-8.36-3.25,9.06-9.29-2.52,5.06,8.19-7.76,5.69,9.56,1.15-.39,9.62,6.86-6.76,7.27,6.3-.9-8.57,94.56,63.43-3.32,.36,3.85,2.89-2.58,4.06,2.61-.68-57.33,78.83-.88-4.23-2.5,4.11-4.29-2.17,1.65,4.52-4.38,2,3.66,1.23-40.9,20.7,.57-4.06-3.74,3.03-3.31-3.49,.03,4.81-4.79,.41,3.78,2.97-2.67,4.01,4.68-1.1,1.47,4.58,2.06-4.35,4.5,1.71-2.12-4.32,4.14-2.45-3.04-.67,39.93-20.21-.85,3.41,4.04-2.62,2.93,3.82,.47-4.79,4.81,.09-3.45-3.36,3.07-3.7-3.01,.38,57.64-79.26,1.44,4.19,1.96-4.39,4.53,1.61-1.54-2.97,115.23,47.43,1.15,1.86-10.98,8.05,13.52,1.62-.55,13.61,9.7-9.56,10.29,8.92-1.43-13.54,13.39-2.49-11.48-7.33,6.4-12.02-12.89,4.4-.07-.17,25.91-112.96,1.71-1.68,7.27,6.3-1.01-9.57,9.46-1.76-7.81-4.99,48.55-12.28-1.2,2.98,4.36-2.03,2.37,4.19,1.13-4.68,4.75,.76-2.53-3.26,70.35-13.87-2.11,3.03,4.71-1,1.37,4.61,2.15-4.3,4.46,1.81-2.03-4.37,4.19-2.36ZM235.31,175.87l4.53,7.32-113.68-46.79,3.34-2.08-4.72-.94,.56-4.78-3.67,3.11-3.39-3.42,.11,3.94L23.53,68.6l8.22-1.53-8.11-5.18,4.53-8.49-6.97,2.38,19.46-24.14,2.03,13.29,7.69-11.24,11.81,6.78-3.99-13.02,1.64-.65h0l129.56,47.4-2.68,.8,4.31,2.15-1.8,4.46,4.36-2.03,2.36,4.19,.8-3.3,51.56,98.9-12.99-3.53Z"/></g></g></svg>