<?xml version="1.0" encoding="UTF-8"?><svg xmlns="http://www.w3.org/2000/svg" viewBox="0 0 284.83 337.83"><defs><style>.d{fill:#1d1d1b;}</style></defs><g id="a"/><g id="b"><g id="c"><polygon class="d" points="284.83 155.72 280.83 155.54 280.34 159.51 278.66 157.21 270.25 179.84 272.92 178.58 271.44 182.31 275.03 184.07 271.2 185.24 272.06 189.15 268.76 186.88 266.24 189.99 266.08 187.83 219.26 260.33 221.52 259.41 219.83 263.05 223.32 265.01 219.43 265.96 220.07 269.92 217.32 267.79 226.75 326.63 227.98 324.63 228.78 328.55 232.76 328.06 230.19 331.13 233.06 333.93 229.05 333.84 228.65 337.83 226.22 334.64 222.86 336.82 223.83 332.93 220.04 331.65 223.68 329.99 222.32 326.23 225.03 327.61 215.62 268.88 214.21 270.43 214.15 266.42 210.16 266.17 213.25 263.63 210.96 260.34 214.88 261.17 216.02 257.34 217.31 259.92 265.07 185.98 261.95 185.96 264.9 183.25 262.43 180.09 266.39 180.71 267.31 176.81 268.58 179.02 276.74 157.04 274.57 158.37 275.63 154.51 271.86 153.14 275.55 151.57 274.27 147.77 276.87 149.17 268.39 127.01 266.9 129.3 266.2 125.35 262.22 125.74 263.41 124.39 150.15 121.59 151.23 123.85 147.5 122.38 145.74 125.98 144.57 122.15 140.66 123.02 142.92 119.71 139.8 117.2 141.76 117.06 109.27 80.65 109.02 83.2 106.59 80.02 103.22 82.19 104.2 78.31 100.4 77.03 102.22 76.2 10.25 49.36 10.9 51.66 7.47 49.6 5.15 52.86 4.61 48.89 .61 49.11 3.39 46.22 .72 43.23 4.71 43.6 5.39 39.65 6.65 41.57 10.62 20.65 5.54 23.93 7.45 16.3 0 13.79 7.16 10.53 4.47 3.14 11.48 6.71 15.59 0 17.17 7.7 24.97 6.73 19.94 12.77 25.56 18.26 17.7 18.09 16.91 25.92 12.58 20.24 8.35 42.57 11.1 41.06 9.86 44.87 13.55 46.41 10.58 47.52 103.82 74.73 102.68 71.6 106.25 73.42 108.34 70 109.15 73.93 113.12 73.43 110.56 76.51 113.42 79.31 110.51 79.24 143.8 116.55 143.82 112.9 146.54 115.84 149.69 113.36 149.08 117.32 152.98 118.23 150.38 119.73 264.7 122.56 262.09 119.85 266.08 120.06 266.6 116.08 268.94 119.34 272.36 117.26 271.28 121.12 275.03 122.51 271.34 124.06 272.6 127.86 270.21 126.56 278.58 148.45 279.96 146.3 280.68 150.24 284.66 149.84 282.03 152.85 284.83 155.72"/></g></g></svg>