<?xml version="1.0" encoding="UTF-8"?><svg xmlns="http://www.w3.org/2000/svg" viewBox="0 0 447.99 328.13"><defs><style>.d{fill:#1d1d1b;}</style></defs><g id="a"/><g id="b"><g id="c"><polygon class="d" points="435.99 308.2 441.97 320.71 429.06 315.66 423.01 328.13 418.91 314.89 405.39 317.94 413.13 306.55 144.03 272.69 146.69 274.94 139.96 275.28 139.77 282.02 135.31 276.97 129.92 281.03 131.08 274.39 124.55 272.71 128.24 270.7 35.04 258.9 40.96 269.52 27.76 265.29 22.5 278.12 17.58 265.16 4.27 269.05 11.33 257.12 0 249.14 13.73 247.23 12.9 233.39 22.96 242.93 33.26 233.65 32.07 247.46 45.74 249.73 36.53 255.87 129.65 267.65 127.71 263.32 133.93 265.93 137.02 259.94 138.86 266.43 145.47 265.11 142.48 269.27 408.54 302.75 402.37 297.8 412.51 297.03 384.16 272.28 383.41 277.51 379.55 271.98 373.74 275.4 375.65 268.93 369.35 266.52 373.4 264.87 169.95 156.98 171.38 159.63 164.99 157.49 162.35 163.7 160.04 157.36 153.54 159.18 157.05 153.42 151.58 149.47 158.27 148.62 157.95 141.88 162.79 146.58 167.85 142.13 167.19 148.84 173.83 150.03 170.61 152.12 193.21 152.12 189.18 147.61 195.9 148.21 197.03 141.57 200.75 147.2 206.65 143.94 204.63 150.16 243.4 136.24 238.47 133.42 245.03 131.87 244.01 125.2 247.87 128.24 243.92 36.34 234.97 44.58 236.01 30.76 222.31 28.63 233.77 20.83 226.89 8.79 240.13 12.88 245.25 0 250.31 12.9 263.57 8.87 256.64 20.88 268.06 28.73 254.35 30.8 255.33 44.62 247.15 37.03 251.04 127.5 253.88 124.42 253.93 131.16 260.65 131.64 255.41 135.88 259.23 141.44 252.64 139.99 250.67 146.44 247.71 140.38 241.44 142.86 242.87 139.82 208.74 152.08 210.79 152.93 204.48 155.3 206.34 161.78 200.55 158.32 196.65 163.82 195.75 157.14 189.01 157.51 191.12 155.31 173.62 155.31 375.01 262.11 373.56 257.55 379.44 260.86 383.2 255.26 384.28 261.91 391 261.36 386.47 266.35 391.1 271.26 387.6 271.04 416.2 296 416.23 282.89 425.67 293.04 436.53 284.43 434.48 298.13 447.99 301.26 435.99 308.2"/></g></g></svg>