<?xml version="1.0" encoding="UTF-8"?><svg xmlns="http://www.w3.org/2000/svg" viewBox="0 0 524.51 360.37"><defs><style>.d{fill:#1d1d1b;}</style></defs><g id="a"/><g id="b"><g id="c"><path class="d" d="M524.51,11.79l-6.27,.36-.86-6.22-3.63,5.13-5.4-3.21,1.34,4.64-5.62-1.98,3.12-1.66-6.06-1.64,1.16-6.17-5.06,3.72-4.11-4.75-.25,6.28-6.28,.25,4.03,3.48-9.27,2.99,1.87-4.68-5.69,2.67-3.11-5.46-1.46,6.11-6.21-.97,3.87,4.95-4.63,4.25,4.33,.04-17.92,17.56-1.13-4.44-3.02,5.51-5.73-2.58,2.42,5.8-5.59,2.87,2.24,.64-30.8,17.17,.57-3.07-5.06,3.72-4.11-4.75-.25,6.28-6.28,.25,4.75,4.11-3.72,5.06,6.18-1.15,1.64,6.06,1.79-3.38,18.05,35.02-.3,.95-12.24-2.84,6.99,10.44-9.85,7.79,12.52,1.04v1.66l-27.25,28.61,1.23-4.19-5.41,3.19-3.6-5.15-.88,6.22-6.27-.39,2.75,2.91-23.38-8.11,3.81-2.02-6.06-1.64,1.16-6.17-5.06,3.72-4.11-4.75-.25,6.28-6.28,.25,4.75,4.11-3.72,5.06,4.63-.87-13.41,21.9-.38-5.06-3.93,4.9-5.19-3.53,1.38,6.13-6,1.86,2.76,1.34h-25.6l3.1-3.33-6.27,.43-.92-6.21-3.57,5.17-5.43-3.15,1.81,6.02-5.85,2.28,5.83,2.33-1.87,6,3.41-1.94-46.75,107.62-1.39-3.9-2.5,5.76-5.94-2.04,2.95,5.55-5.3,3.37,5.5,1.03-13.56,12.49,.74-3.96-5.06,3.72-4.11-4.75-.25,6.28-6.28,.25,1.68,1.45-128.41-27.43,7.64-4.05-12.13-3.28,2.31-12.35-10.13,7.44-8.21-9.51-.49,12.55-12.55,.49,9.51,8.22-7.44,10.12,6.5-1.22-39.25,38.47,.05-4.2-4.35,4.54-4.87-3.98,.84,6.23-6.14,1.32,5.39,3.23-2.79,5.63,5.88-2.2,2.66,5.69,1.95-5.97,6.11,1.47-3.45-5.25,4.96-3.86-4.02-.37,42.66-41.8,.23-.04,3.28,12.13,5.89-11.1,11.53,5-4.68-10.78,133.83,28.59-2.93,3.98,6.18-1.16,1.64,6.07,2.95-5.55,5.76,2.5-2.5-5.76,5.55-2.95-3.97-1.07,12.13-11.17-.24,2.28,4.75-4.11,4.47,4.42-.25-6.28,6.24-.74-5.06-3.72,3.31-5.34-3.94,1.06,47.13-108.51,2.35,3.47,.98-6.21,6.26,.49-2.49-2.72h27.23l-1.59,4.07,5.67-2.71,3.15,5.44,1.42-6.12,6.21,.93-3.9-4.92,4.6-4.28h-3.39l12.69-20.73,.91,3.39,2.95-5.55,5.76,2.5-1.56-3.6,24.19,8.39-2.66,2.94,6.26-.52,1.01,6.2,3.49-5.22,5.48,3.07-1.9-5.99,5.82-2.37-3.53-1.35,25.44-26.71-.02,6.27,8.62-9.14,9.79,7.87-1.77-12.44,12.26-2.75-10.83-6.37,5.5-11.3-11.73,4.5-5.41-11.34-2.13,6.73-16.58-32.17,4.08,1.77-2.5-5.76,5.55-2.95-5.03-1.36,34.04-18.98-1.14,5.66,5.11-3.65,4.04,4.81,.33-6.27,6.28-.16-4.7-4.17,3.79-5.01-3.23,.56,16.65-16.31,.27,3.9,3.96-4.87,5.17,3.57-.88-4.02,19.31,11.23-4.31,2.49,6.12,1.43-.94,6.21,4.93-3.89,4.27,4.61,.03-6.28,6.26-.46-4.89-3.94,3.54-5.19-3.26,.73,2.41-5.09,2.63,3.96,1.04-6.19,6.26,.55-4.19-4.68,4.33-4.55Zm-41.91,6.33l3.94-1.19-2.77-1.37,5.2-1.68-1.33,1.81,6.18-1.15,1.64,6.06,2.95-5.55,5.76,2.5-1.87-4.31,4.91,1.73-2.97,1.12,5.81,2.39-1.93,5.98,2.69-1.49-2,4.23-1.47-4.78-2.75,5.65-5.85-2.3,1.14,2.39-17.26-10.04Z"/></g></g></svg>