<?xml version="1.0" encoding="UTF-8"?><svg xmlns="http://www.w3.org/2000/svg" viewBox="0 0 278.91 252"><defs><style>.d{fill:#1d1d1b;}</style></defs><g id="a"/><g id="b"><g id="c"><polygon class="d" points="270.64 18.14 272.6 26.59 265.4 21.76 260.01 28.56 259.39 21.02 131.26 137.47 135.73 137.89 130.87 141.65 134.24 146.79 131.29 146.07 199.1 236.64 199.93 231.72 203.33 236.84 208.7 233.86 206.81 239.71 212.49 242.05 206.74 244.22 208.45 250.13 203.17 246.98 199.62 252 198.79 245.91 192.65 246.26 196.89 241.82 192.79 237.24 197.32 237.64 128.25 145.4 126.35 151.18 123.77 145.6 118.01 147.75 119.42 144.92 21.68 188.83 28.01 191.44 19.89 194.5 22.3 202.83 14.85 198.39 9.84 205.48 8.66 196.88 0 197.38 5.98 191.1 .19 184.64 8.83 185.4 10.28 176.85 15.07 184.08 22.65 179.87 20.27 187.23 120.61 142.16 115.48 139.08 121.49 137.79 120.69 131.7 125.44 135.6 129.7 131.17 129.63 136.22 257.58 19.92 250.62 19.95 256.93 14 251.5 7.24 260.09 8.46 261.98 0 266.38 7.48 274.18 3.68 271.08 11.78 278.91 15.51 270.64 18.14"/></g></g></svg>