<?xml version="1.0" encoding="UTF-8"?><svg xmlns="http://www.w3.org/2000/svg" viewBox="0 0 310.56 285.29"><defs><style>.d{fill:#1d1d1b;}</style></defs><g id="a"/><g id="b"><g id="c"><path class="d" d="M306.18,249.85l-13.17,3.95-4.97-12.82-4.5,11.21-12.37-24.83,4.74-.26-5.39-4.52,4.08-5.73-6.89,1.4-1.94-6.76-3.21,6.26-6.49-2.7,2.02,4.46-104.57-4.28,3.27-2.12-6.92-1.24,.69-7-5.28,4.64-23.39-90.68,5.29,2.64-2.45-6.59,6.38-2.96-6.68-2.19,1.66-6.84-5.88,3.86-4.31-5.56-.65,7.01-7.04-.1,3.49,3.36-34.75,2.9-.24-.22,5.21-6.47-8.22,1.17-1.81-8.11-4.2,7.13-10.44-39.5,2.91,1.6-1.58-4.83,4.69-1.96-4.76-1.77,1.39-4.89-4.36,2.62-2.95-4.14-.45,3.39L12.13,11.73l4.37,.13-3.61-3.58,3.29-3.88-5.05,.59-.98-4.99-2.69,4.31L2.95,1.97l1.7,4.79L0,8.83l4.8,1.66-1.28,4.92,3.16-2,6.15,47.74-2.76-1.56,1.51,4.85-4.72,1.89,4.74,1.84-1.46,4.87,4.39-2.56,2.89,4.18,.53-3.57,44.46,41.24-6.77,3.22,7.92,2.52-1.89,8.09,6.51-4.35,13.69,84.96-10.97-6.18,4.14,13.11-12.75,5.16,12.83,4.94-3.92,13.18,11.87-6.95,7.86,11.28,1.96-13.61,13.72,.89-8.93-9.51,40.92-1.38-3.01,4.95,6.78-1.89,2.41,6.61,2.75-6.48,6.67,2.23-2.94-5.43,106.6,4.36-5.08,2.8,6.82,1.73-1.19,6.93,5.61-4.25,4.68,5.25,.15-6.07,12.33,24.75-11.4-3.56,6.78,11.96-11.39,7.7,13.58,2.16-1.08,13.71,10.15-9.27,10.04,9.39-.92-13.72,13.61-2-11.3-7.84,6.92-11.88ZM20.29,69.78l2.96,.2-3.47-3.71,3.43-3.75-5.07,.4-.79-5.02-1.99,2.93L9.44,14.85l1.43,1.91,.25-2.3L50.09,59.91l-3.27-.17,3.52,3.67-3.38,3.8,5.06-.47,.87,5.01,1.85-2.82,9.91,37.48-4.47-2.18,1.51,3.96L20.29,69.78Zm119.92,134.82l.33,7.03-6.98,.88,3.7,2.68-38.16,1.28,7.35-8.09-13.71,1.11-2.19-13.58-6.33,9.42-12.96-80.38,2.45,3.11,.69-8.28,8.31,.04-3.31-3.13,33.05-2.76-3.67,4.47,6.98-.92,1.47,6.88,2.39-3.98,22.11,85.71-1.53-1.49Z"/></g></g></svg>