<?xml version="1.0" encoding="UTF-8"?><svg xmlns="http://www.w3.org/2000/svg" viewBox="0 0 334.73 96.18"><defs><style>.d{fill:#1d1d1b;}</style></defs><g id="a"/><g id="b"><g id="c"><path class="d" d="M334.73,12.3l-12.08-.24-.72-12.06-7.72,9.3-9.88-6.96,2.46,11.83-11.6,3.38,9.77,4.94-100.37,27.32,2.83-4.31-7.78,1.9-2.5-7.61-3.37,7.26-7.51-2.79,2.8,5.6L118.61,25.88l5.02-4.51-8.01-.16-.47-7.99-5.11,6.16-6.54-4.61,1.63,7.84-7.69,2.24,5.04,2.55L18.69,64.34l1.13-7.01-6.33,4.91-5.39-5.92-.11,8.01-7.99,.52,6.13,5.03,.06,.05-.06,.09-4.51,6.48,7.83-1.67,2.29,7.67,3.57-7.16,7.42,3-3.06-6.58,103.88,13.28-3.44,3.34,8.01-.15,.78,7.97,4.87-6.36,6.72,4.36-1.93-7.77,7.59-2.54-4.49-2.06,49.06-24-.97,7.35,6.19-5.08,5.55,5.77-.12-8.01,7.97-.75-5.32-4.12,100.91-27.47-3.56,8.67,10.99-5.03,5.88,10.56,2.92-11.73,11.92,1.99-7.35-9.59,8.99-8.08ZM186.97,56.41l-47.84,23.4,2.49-6.79-7.15,3.61-4.16-6.84-1.63,7.84-7.94-1.01,4.73,5.71-102.8-13.14,3.66-2.06-4.35-1.06L103.98,29.91l-2.45,5.96,7.28-3.33,3.9,7,1.93-7.77,7.9,1.32-2.88-3.77,68.28,23.25-4.97,2.99,4,.85Z"/></g></g></svg>