<?xml version="1.0" encoding="UTF-8"?><svg xmlns="http://www.w3.org/2000/svg" viewBox="0 0 279.79 294.32"><defs><style>.d{fill:#1d1d1b;}</style></defs><g id="a"/><g id="b"><g id="c"><path class="d" d="M270.53,164.67l7.85-9.92-12.5,1.88-2.86-12.32-6.32,10.94-19.68-32.87,5.1-.05-4.81-4.41,4.02-5.14-6.45,1.01-1.51-6.35-3.23,5.67-5.91-2.78,1.93,4.85-34.02-7.96,3.88-3.81-6.53,.16-.68-6.49-2.77,3.65-8.58-23.33,2.27,1.6-1.33-6.39,6.27-1.83-5.82-2.95,2.48-6.04-3.96,1.81,21.66-46.85,2.45,4.63,1.71-6.3,6.41,1.21-2.84-3.88,36.97,3.69-3.63,3.26,6.53,.13,.39,6.52,4.17-5.02,5.34,3.76-1.33-6.39,6.27-1.83-5.82-2.95,2.48-6.04-5.94,2.72-3.18-5.7-1.58,6.33-6.44-1.07,2.46,3.21-35.87-3.58,3.11-2.68-6.52-.27-.25-6.52-4.28,4.93-5.25-3.88,1.19,6.42-6.31,1.69,5.76,3.07-2.61,5.98,3.23-1.4-21.24,45.94-2.2-3.95-1.58,6.33-6.44-1.07,3.97,5.18-4.85,4.36,6.53,.13,.39,6.52,3.5-4.22,9.18,24.98-3.55-2.27,1.61,6.33-6.18,2.1,5.42,2.44L63.85,175.72l.42-3.31-5.02,4.17-4.56-4.67,.14,6.53-6.5,.65,5.19,3.96-3.54,5.48,3.25-.81-31.71,74.91-7.56-10-1.32,12.58-12.64-.33,9.01,8.88-8.14,9.68,12.55-1.51,2.49,12.4,6.65-10.76,11.25,5.78-4.26-11.9,11.53-5.19-11.66-3.98,44.92-32.76,.3,5.09,4.17-5.02,5.34,3.76-1.33-6.39,6.27-1.83-3.39-1.72,164.08-58.79,.82,.25-2.77,12.34,10.45-7.12,7.92,9.86,.95-12.61,12.64-.05-9.27-8.6Zm-25.26-14.84l4.62,11.77-11.37,5.53,6.43,1.98-161.14,57.74,1.94-4.72-5.94,2.72-3.18-5.7-1.58,6.34-6.44-1.07,3.97,5.18-4.85,4.37,3.5,.07-41.04,29.93,2.06-8.04-6.27,4.01,30.58-72.25,1.84,5.47,2.71-5.94,6.13,2.23-2.95-5.82,5.57-3.4-5.68-1.17,115.24-65.44-.88,2.44,5.81-2.98,3.43,5.56,1.29-6.4,6.48,.79-1.93-2.3,30.23,7.07-3.08,1.52,6.25,1.89-1.39,6.38,5.37-3.71,4.12,5.07,.23-3.37,16.39,27.36-6.47-3.08Z"/></g></g></svg>