<?xml version="1.0" encoding="UTF-8"?><svg xmlns="http://www.w3.org/2000/svg" viewBox="0 0 409.14 280.97"><defs><style>.d{fill:#1d1d1b;}</style></defs><g id="a"/><g id="b"><g id="c"><path class="d" d="M403.16,266.95l5.42-6.42-8.34,.99-1.64-8.24-2.42,3.89-35.8-152.33,2.99,2.3-1.38-8.28,8.15-2.03-7.34-4.09,3.5-7.64-7.35,3.02V15.93l2.95,2.29-.91-5.72,5.63-1.36-5.04-2.86,2.45-5.25-5.38,2.16-2.58-5.19-1.66,5.55-5.66-1.22,3.3,4.76-4.49,3.67,5.78,.39,.07,5.8,2.48-2.72V83.08l-1.15-2.28-1.73,5.92-32.95-66.02,3.27,.93-2.98-4.97,4.72-3.36-5.74-.77,.31-5.79-4.18,4.01-4.33-3.85,.53,5.77-5.71,.98,4.84,3.18-2.79,5.08,5.51-1.8,2.23,5.35,1.41-3.78,33.33,66.78-6.31-1.31,4.84,6.87-6.46,5.36,5.65,.34-112.51,28.38,6.32-6.36-12.16,.45-1.4-12.09-7.23,9.79-10.33-6.44,2.61,9.75-71.92-59.23,6.07-.68-6.73-5.02,4.47-7.11-8.12,2.14-2.77-7.93-3.39,7.68-7.93-2.78,2.79,5.35-47.83-14.51,2.9-2.2-5.76-.6,.14-5.79-4.06,4.13-4.44-3.72,.7,5.75-5.68,1.15,2.99,1.84L14.03,59.66l.85-3-4.96,3-3.38-4.71-.75,5.75-5.79-.3,4.02,4.17L.18,68.9l5.77-.55,1,5.71,2.17-3.33L101.44,217.11l-2.77-.96,2.7,5.13-4.9,3.1,5.69,1.08-.63,5.76,4.4-3.78,4.11,4.08-.13-3.64,36.08,35.49-3.17-.16,4.02,4.17-3.84,4.34,5.77-.55,1,5.71,3.17-4.85,5.09,2.78-1.82-5.5,5.34-2.24-2.69-1,83.63-36.59-4.14,9.5,11.17-4.83,5.69,10.76,3.19-11.74,11.96,2.26-5.94-8.11,122.33,38.4-4.9,2.2,7.94,2.73-2.09,8.13,7.09-4.51,5.05,6.71,.89-8.35,8.4,.23-5.97-5.9Zm-16.46-10.38l2.38,6.68-124.3-39.02,7.62-6.56-12.16-.5-.46-12.16-7.97,9.2-9.8-7.22,2.22,11.97-11.76,3.16,8.69,4.63-84.69,37.06,1.22-4.3-4.96,3-3.38-4.71-.54,4.11-36.98-36.37,3.75-.44-4.66-3.45,3.07-4.92-5.6,1.5-1.93-5.46-1.71,3.91L12.65,70.6l2.56,1.4-1.82-5.5,5.34-2.24-4.16-1.54,51.43-18.2-1.79,3.5,5.45-1.96,2.38,5.28,1.87-5.49,5.62,1.43-2.04-3.18,48.03,14.57-5.58,3.5,8.24,1.6-.94,8.35,6.39-5.45,5.94,5.94-.21-6.52,72.64,59.82-9.44,3.34,11.15,4.87-3.98,11.5,10.76-5.68,6.51,10.28,2.27-11.96,12.1,1.32-6.91-8.04,116.53-29.39,.12,6.11,5.52-6.13,37.14,158.06-7.05-3.64Z"/></g></g></svg>