<?xml version="1.0" encoding="UTF-8"?><svg xmlns="http://www.w3.org/2000/svg" viewBox="0 0 302.43 385.7"><defs><style>.d{fill:#1d1d1b;}</style></defs><g id="a"/><g id="b"><g id="c"><path class="d" d="M302.43,140.73l-9.37-6.68,5.92-9.86-11.06,3.16-4.02-10.78-3.81,9.13L190.67,24.74h0l-.34-1.22,10.8-3.96-10.59-4.48,3.64-10.91-10.11,5.49-6.27-9.65-2.01,11.33-11.45-1.12,7.6,8.64-8.01,8.26,9.01-.44L106.42,103.96l-.27-5.65-4.58,5.4-5.74-4.14,1.37,6.95-6.82,1.91,6.04,3.14-59.11,28.87,1.44-4.32-4.64,2.52-2.88-4.43-.7,3.95-17.39-27.42,3.38,.6-3.17-4.23,3.96-3.49-5.28-.16-.26-5.28-3.42,4.03-4.29-3.09,1.02,5.18-5.09,1.43,4.69,2.43-2.06,4.87,4.83-2.15,2.52,4.64,.98-3.76,17.42,27.46-3.34-.33,3.49,3.97-3.68,3.79,5.28-.26,.67,5.24,3.09-4.28,4.51,2.74-1.42-5.09,4.96-1.82-2.59-1.1,56.02-27.35-1.47,3.48,6.47-2.88,3.38,6.22,1.78-6.85,6.97,1.24-4.24-5.67,5.31-4.68-5.27-.16L175.5,27.32l1.36,10.64,6.33-8.77,41.3,260.59-.2,.33-6.3-3.22,2.4,6.66-6.45,2.92,3.85,1.31-112.59,40.94-.05-3.5-3.55,3.91-4.18-3.23,.84,5.22-5.13,1.25,4.6,2.59-2.22,4.79,2.4-.97-3.59,22.43-1.89-2.92-.93,5.2-5.26-.51,3.49,3.97-3.68,3.79,5.28-.26,.67,5.24,3.09-4.29,4.52,2.74-1.42-5.09,4.96-1.82-4.86-2.06,1.67-5.01-3.34,1.81,3.87-24.13,2.3,4.61,1.5-5.06,5.17,1.1-3.02-4.33,4.08-3.35-3.52-.23,113.53-41.28-1.59,6.28,5.96-3.82,4.28,5.64,.73-7.04,7.08,.17-5.05-4.96,4.54-5.43-6.69,.82,54.28-144.55,7.62,7.32-.62-11.49,11.4-1.52Zm-73.8,146.43l-.63-3.09-1.59,2.58L185.72,29.92l7.7,4.68-1.29-4.61,85.58,96.63-9.18-3,5.54,10.08-9.61,6.32,11.34,1.95-1.05,11.46,6.16-5.48-52.28,139.22Z"/></g></g></svg>