<?xml version="1.0" encoding="UTF-8"?><svg xmlns="http://www.w3.org/2000/svg" viewBox="0 0 316.28 370.25"><defs><style>.d{fill:#1d1d1b;}</style></defs><g id="a"/><g id="b"><g id="c"><path class="d" d="M316.28,273.85l-8.14-4.43,3.78-8.46-8.54,3.6-4.26-8.23-2.51,8.92-9.09-1.8,5.41,7.53-7.08,5.99,7.41,.37-96.06,78.52,.79-5.84-4.96,4.04-.07-.07-29.01-134.56,5.29,2.17-2.66-5.82,5.59-3.11-6.21-1.55,1.05-6.31-5.08,3.89-4.28-4.76-.06,2.82-36.84-51.11,2.87,1.18-3.86-8.43,6.18-3.44h0l32.53-6.5-2.73,3.87,6.26-1.3,1.79,6.14,2.89-5.71,5.92,2.43-1.19-2.61,66.84,41.33-2.09,.12,4.92,4.09-3.69,5.23,6.26-1.3,1.79,6.14,2.89-5.71,5.92,2.43-2.66-5.82,5.59-3.11-6.21-1.55,1.05-6.31-5.08,3.89-4.28-4.76-.13,6.4h-.19l-72.01-44.51,5.18-2.88-6.21-1.55,1.05-6.31-5.08,3.89-4.28-4.76-.13,6.4-6.38,.38,3.71,3.08-34.21,6.83h0l-5.15-1.28,1.53-9.14-7.36,5.63-6.2-6.89-.18,9.27-4.01,.24L22.52,105.69l7.94-4.42-3.58-.89,48.4-19.47-.31,1.42,3-2.06,2.29,2.83,.26-3.63,3.64-.03-1.55-1.43,71.77-27.68-.63,2.41,3.07-1.95,2.18,2.91,.39-3.62,3.64,.11-2.58-2.56,2.35-2.78-3.61,.42-.7-3.57-1.93,3.09-3.23-1.68,.91,2.57L44.47,5.45l1.89-1.42-3.62-.39,.1-3.64-2.56,2.59L37.51,.24l.43,3.61-3.57,.71,3.09,1.92-1.67,3.23,1.6-.57L16.16,95.12l-.52,.4-6.2-6.89-.18,9.27-9.25,.55,7.13,5.92-5.34,7.58,9.08-1.88,2.59,8.9,4.19-8.27,1.31,.54,72.57,104.56-1.84-.66,1.65,3.24-3.1,1.9,3.57,.73-.44,3.61,2.79-2.33,2.55,2.6-.04-1.67,91.79,132.64-6.12,.55,5.04,3.94-3.53,5.34,6.22-1.49,1.97,6.08,2.72-5.79,5.99,2.25-2.84-5.73,5.49-3.28-3.73-.81,95.49-78.06,.23,7.85,6.13-6.95,7.41,5.57-1.61-9.13,8.97-2.32ZM19.16,92.82L39.71,9.6l.99,2.22,1.18-3.44,3.52,.91-.81-1.27,107.78,39.5-1.15,.51,1.35,.47-69.9,26.96,1.06-1.35-3.6,.55-.84-3.54-1.81,3.16-3.29-1.55,1.34,3.38-3.27,1.6,2.63,.8-51.94,20.89-1.5-.38,1.53-9.14-3.84,2.94ZM188.65,351.99L98.06,221.08l2.17-.22-2.9-2.2,1.97-3.06-3.53,.89-1.17-3.45-.84,1.84L22.97,112.87l3.24,1.33-2.47-5.4,73.74,32.26h-.05l7.13,5.92-5.34,7.57,9.07-1.88,2.59,8.9,4.19-8.27,1.56,.64,40.65,56.4-6.13,.36,4.92,4.09-3.69,5.23,6.26-1.3,1.79,6.14,1.59-3.15,27.81,128.99-1.23-1.29,.03,2.57Z"/></g></g></svg>