<?xml version="1.0" encoding="UTF-8"?><svg xmlns="http://www.w3.org/2000/svg" viewBox="0 0 293.91 242.85"><defs><style>.d{fill:#1d1d1b;}</style></defs><g id="a"/><g id="b"><g id="c"><polygon class="d" points="288.77 11.98 293.32 17.49 286.23 16.57 284.75 23.57 281.05 17.45 274.65 20.66 276.63 15.29 243.75 27.53 246.03 28.12 242.43 30.1 244.11 33.85 240.32 32.26 238.43 35.91 237.73 33.44 211.94 111.55 215.21 111.07 212.65 114.29 215.66 117.09 211.55 117.1 211.23 121.2 208.66 117.99 205.26 120.3 205.63 118.67 129.23 168.5 133.8 169.67 127.52 173.1 130.45 179.63 123.85 176.86 120.57 183.22 118.62 176.34 111.61 177.74 115 173 66.27 173 68.23 173.97 64.29 175.16 65.16 179.18 61.78 176.84 59.18 180.03 59.04 177.86 49.28 199.89 52.76 199.87 49.77 202.7 52.36 205.9 48.29 205.33 47.4 209.34 45.3 205.8 41.61 207.61 42.31 205.78 28.74 211.89 31.31 212.55 27.71 214.52 29.39 218.27 25.6 216.68 23.71 220.34 22.68 216.7 16.62 226.22 22.92 225.65 18.16 230.99 23.11 236.15 15.97 235.76 15.01 242.85 10.87 237.03 4.73 240.7 6.7 233.83 0 231.32 6.6 228.57 4.39 221.77 10.65 225.22 14.59 219.25 15.52 224.69 20.54 216.79 18.56 217.19 20.95 213.84 17.81 211.19 21.92 210.98 22.03 206.87 24.75 209.95 28.04 207.47 27.51 210.52 42.79 203.63 39.35 202.01 43.27 200.76 42.33 196.75 45.75 199.03 48.29 195.8 48.44 197.47 57.97 175.91 54.79 175.88 57.82 173.1 55.29 169.86 59.36 170.5 60.31 166.5 62.35 170.08 66.07 168.33 64.91 171.25 114.97 171.25 110.31 167.31 117.45 166.94 117.65 159.79 122.39 165.15 128.1 160.84 126.87 167.89 126.92 167.9 206.1 116.27 202.24 115.06 205.94 113.28 204.45 109.44 208.16 111.22 210.22 107.66 210.7 109.72 236.31 32.15 233.28 32.76 235.67 29.42 232.53 26.77 236.64 26.55 236.75 22.44 239.48 25.52 242.76 23.05 242.2 26.23 276.27 13.55 270.64 10.95 277.43 8.7 275.72 1.76 281.71 5.67 286.08 0 286.76 7.12 293.91 7 288.77 11.98"/></g></g></svg>