<?xml version="1.0" encoding="UTF-8"?><svg xmlns="http://www.w3.org/2000/svg" viewBox="0 0 240.4 231.5"><defs><style>.d{fill:#1d1d1b;}</style></defs><g id="a"/><g id="b"><g id="c"><polygon class="d" points="227.91 22.56 223.87 164.79 229.19 163.07 225.11 170.43 232.12 175.08 223.82 176.47 224.56 184.86 218.3 179.24 212.2 185.04 212.53 179.3 128.81 218.93 132.75 221.54 124.45 222.93 125.18 231.31 118.92 225.69 112.82 231.5 113.31 223.1 104.97 221.95 109.9 218.47 19.85 165.62 21.22 171.97 14.3 167.17 8.98 173.69 8.42 165.29 0 165.19 6.21 159.52 1.05 152.87 9.36 154.19 11.33 146.01 15.48 153.33 23.1 149.77 19.97 157.58 27.5 161.32 21.71 163.06 110.8 215.34 107.54 209.86 115.63 212.2 118.6 204.33 121.81 212.11 129.82 209.53 125.73 216.89 125.74 216.89 211.22 176.44 204.35 175.49 211.22 170.63 206.92 163.4 215.01 165.75 217.98 157.87 220.72 164.54 224.74 23.11 220.48 27.17 220.97 18.77 212.63 17.62 219.51 12.76 215.2 5.53 223.29 7.87 226.26 0 229.47 7.78 237.48 5.2 233.39 12.55 240.4 17.21 232.11 18.6 232.84 26.98 227.91 22.56"/></g></g></svg>