<?xml version="1.0" encoding="UTF-8"?><svg xmlns="http://www.w3.org/2000/svg" viewBox="0 0 179.06 329.66"><defs><style>.d{fill:#1d1d1b;}</style></defs><g id="a"/><g id="b"><g id="c"><path class="d" d="M175.39,62.35l-2.18-6.04,5.85-2.65-6.08-2.06,1.57-6.23-5.4,3.47-3.89-5.11-.48,4.66L114.77,14.99l4.86-2.21-6.08-2.06,1.57-6.23-5.4,3.47-3.89-5.11-.65,6.39-6.42-.15,2.19,2.15L24.26,8.49l2.53-4.43-6.14,1.9L18.27,0l-2.34,5.98-6.15-1.86,3.22,5.56-5.29,3.65,6.35,.95-.45,6.41,2.73-2.54-7.05,210.65-2.23-2.93-.65,6.39-6.42-.15,4.59,4.5-4.12,4.93,6.37-.79,1.28,6.29,3.36-5.47,5.72,2.92-1.26-3.47,140.27,75.67-3.77,1.05,5.7,2.96-2.51,5.91,5.87-2.61,3.06,5.65,1.62-6.21,6.32,1.13-3.85-5.14,4.83-4.24-6.42-.2-.31-6.42-1.63,1.92,5.97-250.33,4.28,2.18Zm-13.1,250.88l-4.88-3.53,.97,4.97L16.14,237.95l4.74-2.15-6.08-2.06,1.57-6.23-4.33,2.78L19.18,17.09l3.88,3.56-.49-6.4,6.35-.99-2.8-1.91,76.8,2.76-3.69,4.41,6.37-.79,1.28,6.29,3.36-5.47,5.72,2.92-1.11-3.08,47.41,31.67-4.08-.09,4.59,4.49-4.12,4.93,6.38-.79,1.28,6.29,1.98-3.22-6,251.55Z"/></g></g></svg>