<?xml version="1.0" encoding="UTF-8"?><svg xmlns="http://www.w3.org/2000/svg" viewBox="0 0 398.78 286.02"><defs><style>.d{fill:#1d1d1b;}</style></defs><g id="a"/><g id="b"><g id="c"><polygon class="d" points="392.39 232.33 395.48 238.98 388.68 236.23 385.4 242.79 383.31 235.76 376.14 237.29 379.21 232.89 350.74 237.55 355.64 243.6 345.59 242.21 343.4 252.12 338.23 243.39 329.12 247.86 332.72 238.37 323.54 234.03 329.65 232.07 204.73 156.63 207 163.08 197.99 158.4 192.62 167 190.66 157.05 180.58 158.21 184.6 153.48 18.78 185.52 24.2 189.06 19.26 189.93 98.97 267.74 99.81 261.82 104.02 267.83 110.34 264.11 108.26 271.14 115.11 273.76 108.32 276.53 110.54 283.52 104.15 279.93 100.07 286.02 98.88 278.79 91.58 279.4 96.5 273.96 91.46 268.63 96.14 268.92 17.11 191.78 17.67 197.63 12.17 192.77 6.9 197.86 7.27 190.54 0 189.58 5.96 185.31 2.17 179.03 9.23 181.03 11.77 174.15 14.61 180.91 21.57 178.62 19.44 182.52 186.84 150.17 179.95 143.32 190.1 143.63 191.2 133.54 197.29 141.66 205.86 136.24 203.66 144.69 269 113.77 264.92 112.61 271.45 109.26 268.63 102.49 275.31 105.51 278.84 99.09 280.65 106.19 287.88 104.95 286.72 106.48 348.65 84.32 341.01 79.56 350.97 77.59 350.85 76.59 329.26 53.21 329.42 58.13 324.24 52.94 318.66 57.69 319.49 50.41 312.29 49 318.5 45.11 315.11 38.61 317.82 39.56 301.48 18.48 300.8 24.19 296.46 18.28 290.23 22.15 292.13 15.07 285.22 12.61 291.95 9.69 289.57 2.75 296.04 6.19 299.98 0 301.33 7.21 308.62 6.43 303.83 11.98 308.99 17.19 303.91 16.99 322.22 40.62 325 34.33 327.41 41.26 334.5 39.4 330.59 45.6 336.47 49.99 330.73 50.63 350.3 71.82 349.79 67.51 357.54 74.07 364.69 66.86 364.39 77.01 374.48 78.1 366.36 84.19 371.8 92.77 361.97 90.22 358.66 99.81 354.53 90.54 344.96 93.94 348.33 87.44 283.6 110.6 283.45 110.79 288.93 115.67 281.6 115.85 281.2 123.17 276.49 117.56 270.52 121.81 271.78 115.59 205.66 146.87 212.89 149.38 204.42 153.15 333.2 230.91 330.87 221.05 339.32 226.67 345.59 218.69 346.46 228.8 356.61 228.73 350.26 234.76 378.87 230.08 374.66 226.63 381.98 226.15 382.09 218.82 387.02 224.24 392.82 219.75 391.65 226.99 398.78 228.73 392.39 232.33"/></g></g></svg>