<?xml version="1.0" encoding="UTF-8"?><svg xmlns="http://www.w3.org/2000/svg" viewBox="0 0 361.22 184.83"><defs><style>.d{fill:#1d1d1b;}</style></defs><g id="a"/><g id="b"><g id="c"><path class="d" d="M361.22,106.71l-11.63-8.96,8.01-12.29-14.25,3.51-4.62-13.93-6.14,13.33-13.77-5.08,5.74,11.42-106.53-30.4,5.46-2.16-6.83-2.69,2.14-7.02-6.36,3.66-4.15-6.05-1.1,7.25-7.32-.53,4.98,5.38-.17,.19-56.12-1.93,8.62-7.34-14.66-.68-.48-14.67-9.28,10.59-7.45-28.66,3.62,2.02-2.24-6.99,6.79-2.78-6.86-2.61,2.06-7.04-6.31,3.74-4.22-6-1.02,7.27-7.32-.44,5.05,5.32-4.91,5.45,4.31-.37L16.75,108.92l-.23-7.11-4.84,5.52-5.88-4.39,1.3,7.22-7.1,1.86,6.46,3.49-2.97,6.71,6.75-2.87,3.4,6.5,1.45-5.24,59.83,50.55-5.57,2.69,7,2.19-1.63,7.15,6.08-4.11,4.58,5.73,.57-7.32h7.34l-5.36-5.01,4.57-5.74-4.69,.69,42.51-93.05,5.96,11.42,3.92-14.14,14.41,2.8-8.12-11.21,55.58,1.91-2.19,2.38,7.32-.54,1.12,7.25,4.14-6.06,6.36,3.65-1.45-4.71,106.27,30.32-10.78,6.53,14.36,3.03-1.89,14.55,11.32-9.34,10.2,10.55-.25-14.67,14.61-1.4ZM84.97,166.65l-1.37-5.98-3.69,6.34-6.61-3.18,1.24,3.21L17.98,119.25l4.82,.94-4.3-5.94,5.59-4.76-3.5-.16L117.48,18.23l.99,5.99,3.61-5.42,7.19,27.66-8.66-6.46,2.6,14.44-14.19,3.73,12.91,6.97-5.93,13.42,11.45-4.87-42.47,92.96Z"/></g></g></svg>