<?xml version="1.0" encoding="UTF-8"?><svg xmlns="http://www.w3.org/2000/svg" viewBox="0 0 231.66 180.91"><defs><style>.d{fill:#1d1d1b;}</style></defs><g id="a"/><g id="b"><g id="c"><path class="d" d="M231.66,70.45l-6.15-3.48,2.98-6.41-6.56,2.64-3.15-6.33-2.02,6.77-6.91-1.48,1.11,1.6L81.92,23.76l10.61-8.75-14.11-.88-.23-14.13-9.48,10.48L57.51,1.85l2.28,13.95-13.73,3.37,12.33,6.91-5.92,12.84,8.6-3.5L26.72,105.29l-5.99-12.03-4.04,13.55-13.82-2.96,8.07,11.6L0,124.41l14.11,.92,.19,14.14,9.52-10.45,11.17,8.67-2.24-13.96,.47-.11,83.7,44.09-4.64,2,6.65,2.39-1.86,6.82,6.01-3.71,4.17,5.7,.85-7.02,7.06,.29-4.96-5.04,4.63-5.34-2.22,.23,82.9-88.21,.06,4.15,4.76-5.23,5.58,4.33-1.12-6.98,6.87-1.66Zm-18.14,2.34l-85.81,91.3-1.2-6.5-3.81,5.95-6.23-3.33,1.36,3.98L38.4,122.36l8.08-1.96-12.31-6.95,5.96-12.82-8.97,3.62L65.74,33.94l6.17,12.29,4-13.56,13.83,2.92-5.1-7.29,128.91,39.97-5.11,4.19,5.1,.33Z"/></g></g></svg>