<?xml version="1.0" encoding="UTF-8"?><svg xmlns="http://www.w3.org/2000/svg" viewBox="0 0 304.5 337.48"><defs><style>.d{fill:#1d1d1b;}</style></defs><g id="a"/><g id="b"><g id="c"><path class="d" d="M304.5,328.66l-6.35-4.44,3.92-6.68-7.43,2.19-2.77-7.23-1.6,3.94L176.32,24.91l8.65,2.74-5.21-9.27,8.83-5.92-10.5-1.71,.88-10.6-7.88,7.14-7.74-7.29,.67,10.61-10.53,1.5,8.72,6.09-5.39,9.17,8.82-2.61-27.22,50.68-1.71-2.82-1.09,5.23-5.3-.68,3.41,4.12-3.83,3.72,2.14-.04-12.92,15.98-1.32-9.38-6.11,8.71-9.16-5.4,2.53,8.62L19.41,61.31l5.71-2.51-7.31-2.56,1.98-7.49-6.56,4.12-4.62-6.21-.87,7.69-7.74-.26,5.47,5.48L.45,65.45l7.7-.87,1.47,7.6,4.12-6.56,6.86,3.59-1.84-5.27,84.92,41.83-8.08,3.08,9.85,4.02-3.23,10.13,9.28-5.19,5.91,8.84,1.52-9.24,165.72,200.87-3.04-.97,3.79,6.75-6.43,4.31,7.64,1.24-.64,7.72,5.74-5.2,5.63,5.31-.49-7.73,7.67-1.09ZM121.5,116.38l8.21,.69-7.13-7.89,7.31-7.73-8.16,.5,13.53-16.73,.49,5.01,3.25-4.24,4.48,2.91-1.28-5.19,5.07-1.69-4.86-2.23,1.84-5.02-3.35,1.69,26.9-50.09,3.03,7.9,3.2-7.89,114.15,292.01L121.5,116.38Z"/></g></g></svg>