<?xml version="1.0" encoding="UTF-8"?><svg xmlns="http://www.w3.org/2000/svg" viewBox="0 0 361.13 375.93"><defs><style>.d{fill:#1d1d1b;}</style></defs><g id="a"/><g id="b"><g id="c"><path class="d" d="M350.96,80.22l1.86-7.03,7.16,1.31-4.34-5.84,5.48-4.78-7.27-.25-.32-7.27-4.35,5.08-7.13-17.38,7.14,.26-5.13-5.16,4.74-5.52-7.2,.79,4.56-14.41,3.6,3.6-.24-7.27,7.23-.81-5.84-4.34,3.87-6.16-7.04,1.86-2.4-6.87-2.94,6.66-6.87-2.4,3.37,6.45-6.16,3.87,5.8,1.12-23.81,10.6,1.75-5.77-6.29,3.65-4.13-5.99-1.07,7.2-7.26-.5,4.96,5.33-4.92,5.36,7.26-.56,1.12,7.19,4.09-6.02,6.32,3.6-1.92-6.18,15.54,4.22-4.57,2,6.86,2.42-1.87,7.03,6.17-3.86,4.33,5.85,.42-3.62,5.21,12.71-3.8-2.77,1.37,7.14-7.02,1.93,6.44,3.38-2.87,6.69,4.94-2.17-9.33,13.57-2.47-6.14-2.63,6.78-6.97-2.09,3.66,6.29-5.98,4.15,7.2,1.05-.49,7.26,4.78-4.47,9.02,46.6-3.83-3.88,.2,7.27-7.24,.77,4.99,3.76h-35.84l2.81-1.74-7.13-1.43,.86-7.22-5.56,4.69-5.11-5.18,.08,2.99-61.04-74.37,6.19,.28-5.09-5.2,4.79-5.48-7.24,.73-1.3-7.16-3.94,6.12-6.41-3.45,1.95,5.79-46.79-20.71,5.83-3.61-7.13-1.43,.86-7.22-5.56,4.69-5.11-5.18,.2,7.27-7.24,.77,5.81,4.38-3.91,6.14,6.84-1.76-17.05,43.58-2.72-5.57-2.13,6.96-7.1-1.58,4.11,6.01-5.66,4.57,7.26,.53,.04,7.28,1.71-1.85-17.22,92.76-2.77-4.65-1.26,5.8-26.83-39.32,3.71,1.33-3.33-6.47,6.19-3.83-7.13-1.43,.86-7.22-5.56,4.69-5.11-5.18,.14,5.23L27.65,94.69l9.9,.52-8.06-8.37,7.71-8.69-11.57,1.08-1.99-11.45-6.37,9.72-10.19-5.58,3.63,11.04L0,87.44l10.89,4.05-3.18,11.18,9.95-5.99,6.76,9.45,1.4-10.64,52.21,56.48-6.58,.7,5.81,4.38-3.91,6.14,7.05-1.81,2.36,6.88,2.98-6.64,.14,.05,28.34,41.53-6.01-.82,4.59,5.64-5.27,5.02,7.28-.07,.64,7.25,4.48-5.73,6.07,4.02-1.2-5.05,18.52,11.58-5.85,2.24,6.74,2.74-2.2,6.94,6.35-3.56,4.05,6.04,.99-6.04,8.54,9.52-2.1,.22,2.98,2.25-2.01,3.15,3.62-.93,1.21,3.53,1.53-3.41,3.52,1.26-1.71-3.32,3.17-1.97-1.97-.39,16.31-12.99-.37,1.88,3.03-2.19,2.42,2.85,.06-1.19,4.82,7.32-.93-.3,1.83,3.26-3.1,2.08,3.69,.6-.31,3.72,1.4-1.26-12.95,69.98h0l-.14,.12-5.11-5.18,.2,7.27-7.23,.77,5.81,4.38-3.91,6.14,7.05-1.81,2.36,6.88,2.98-6.64,6.85,2.45-3.33-6.47,.35-.22h8.45l-4.18,3.78,7.27,.12,.45,7.26,2.66-3.23-3.2,24.21-4.12-4.88-.37,7.27-7.27,.2,5.45,4.82-4.38,5.81,7.17-1.25,1.81,7.05,3.49-6.39,6.64,2.98-2.82-6.71,6.47-3.34-7-1.98,1.42-7.13-4.56,3.27,3.46-26.16,5.75,4.03-1.5-7.12,6.98-2.06-6.5-3.27,2.74-6.74-6.61,3.05-3.56-6.35-1.74,7.07-7.18-1.18,3.84,4.99h-6.05l2.81-1.74-7.13-1.43,.86-7.23-3.17,2.67,12.71-68.71,2.07,1.95-.23-3.73,3.7-.52-2.5-1.75,49.13-32.96h0l.52,.06-.22,7.27,5.13-5.16,.78,.66,10.88,27.94-5.25-2.03,3.16,6.55-6.28,3.66,7.09,1.62-1.05,7.2,5.69-4.54,4.97,5.31v-7.28l7.25-.58-5.69-4.53,4.07-6.03-7.09,1.62-2.18-6.94-2.76,5.75-9.81-25.18,1.77,1.5-.84-7.23,7.14-1.4-6.17-3.85,3.35-6.46-4.17,1.47,25.74-35.8,1.78,5.18,2.98-6.64,6.85,2.45-3.33-6.47,.35-.22h38.88l-3.11,4.88,7.05-1.81,2.36,6.88,2.98-6.64,6.85,2.45-3.33-6.47,6.18-3.83-7.13-1.43,.86-7.22-4.81,4.05-8.97-46.36,3.83,3.49-.57-7.25,7.19-1.14-6.03-4.07,3.59-6.33-4.9,1.53,9.23-13.42,2.97,5.54Zm-10.11-49.62l-.64-3.34-3.89,6.15-6.44-3.39,2.21,6.37-15.85-4.3,4.91-1.96-5.56-2.17,24.16-10.75-.67,5.98,5.53-4.72,.05,.05-3.83,12.09ZM186.56,225.8l-3.31,1.73,2.77,.77-17.44,13.89,.35-2.93-2.86,2.41-2.62-2.66,.08,2.88-8.54-9.52,5.84,.49-4.88-5.39,4.99-5.29-7.26,.46-1.03-7.2-4.17,5.96-6.27-3.69,1.6,5.44-18.98-11.88,6.41-2.08-6.59-3.09,2.57-6.81-5.81,2.87,17.93-96.59,.85-.92,.72,.57h0l46.23,118.07-2.05-.91,1.46,3.44Zm74.12-26.25l-2.84-6.39-2.38,6.87-7.04-1.83,3.89,6.15-5.82,4.36,3.83,.42-45.36,30.43,.45-.77-3.58,1.06-1.33-3.49-1.35,3.3-6.94-10.56,3.29-.1-2.81-2.46,2.24-2.99-3.68,.66-.95-3.61-1.27,2.34-45.2-115.45,2.08,1.64-1.1-7.19,7.08-1.66-6.31-3.63,3.12-6.57-5.4,2.13,16.27-41.58,1.51,4.4,2.98-6.64,6.85,2.45-2.22-4.31,45.13,19.97-5.42,2.32,6.84,2.48-1.94,7.01,6.21-3.8,4.28,5.89,.72-5.76,62.38,76.01,.03,1.23-7.24,.77,5.81,4.38-3.91,6.14,6.44-1.65-27.35,38.03Z"/></g></g></svg>