<?xml version="1.0" encoding="UTF-8"?><svg xmlns="http://www.w3.org/2000/svg" viewBox="0 0 331.76 412.51"><defs><style>.d{fill:#1d1d1b;}</style></defs><g id="a"/><g id="b"><g id="c"><path class="d" d="M319.77,183.28l6.23,4.39-1.55-7.46,7.31-2.13-6.8-3.44,2.89-7.05-6.93,3.17-.41-.73v-8.94l3.68,2.08-1.63-5.17,5.03-2.03-5.06-1.95,1.55-5.2-4.68,2.74-3.1-4.45-.61,4.24-13.66-11.05,4-.75-4.58-2.91,2.54-4.79-5.13,1.77-2.16-4.97-1.82,5.11-5.24-1.41,2.86,4.6-4.36,3.22,5.38,.63-.21,5.42,3.85-3.81,4.11,3.54-.39-3.59,12.34,9.98-3.11-.2,3.71,3.95-3.65,4.01,5.4-.44,.86,5.35,1.76-2.62v3.51l-.99-1.78-1.84,7.39-7.51-1.25,4.63,6.05-.49,.44-114.91,11.2,3.49-3.39-5.42,.1-.53-5.4-3.3,4.3-4.55-2.95,.79,3.2-21.44-24.28,3.11,.39-3.47-4.17,3.88-3.79-5.42,.12-.54-5.39-2.73,3.57-2.31-8.31,2.63,2.46-.37-5.41,5.36-.79-4.46-3.09,2.73-4.69-5.19,1.56-1.96-5.05-2.02,5.03-5.17-1.61,2.68,4.71-4.49,3.04,4.26,.67-60.05,33.52,1.68-8.96-7.56,5.55-6.13-7.1-.26,6.59-19.24-22.82,4.19-.16-4.09-3.55,3.22-4.36-5.33,.99-1.4-5.24-2.16,4.04-26.44-48.95,1.98,.78-2.33-4.89,4.7-2.71-3.39-.79,8.04-4.17,.32,3.51,3.32-4.28,4.53,2.98-1.27-5.27,5.15-1.69-4.91-2.29,1.89-5.08-2.41,1.2L56.85,15.08l1.85,2.91,.99-5.33,5.39,.57-3.55-4.1,3.81-3.86-5.42,.22L59.28,.1l-3.21,4.37-4.61-2.85,1.42,5.23-5.1,1.83,4.97,2.15-1.75,5.13,3.74-1.99-12.65,52.64-2.63-4.39-1.14,5.3-5.37-.72,3.43,4.19-3.91,3.75,4.19-.05-8.33,4.32,.62-4.08-4.03,3.18L14.4,19.62l5.27,3.02-2.24-7.28,7.08-2.8-7.09-2.79,2.22-7.28-6.6,3.8L8.74,0l-1.14,7.53L0,6.98l5.17,5.59L0,18.17l7.6-.56,1.16,7.53,3.39-4.96,9.95,55.31-1.09-1.18-.02,5.42-5.41,.4,4.22,3.4-3.06,4.48,5.29-1.18,1.59,5.18,2.28-4.68,26.82,49.66-2.58-1.13,2.15,4.98-4.79,2.53,5.23,1.43-1.01,5.33,4.37-3.2,3.54,4.11,.14-3.44,19.9,23.6-8.83,.35,7.1,6.13-5.55,7.56,9.22-1.72,2.45,9.05,3.9-7.34,39.19,106.71-6.91-2.29,3.64,6.69-6.38,4.16,7.5,1.32-.73,7.58,3.73-3.29-17.42,91.37-1.49-2.76-1.38,5.24-5.33-.96,3.24,4.35-4.08,3.57,5.42,.18,.25,5.42,3.52-4.13,4.39,3.18-1.03-5.32,5.22-1.45-1.63-.85,106.43-18.77-2.96,4.03,7.49-1.4,1.99,7.35,3.57-6.73,6.99,3.03-3.03-6.99,6.73-3.57-7.35-1.99,1.4-7.49-6.14,4.51-4.98-5.76-.13,3.21-53.6-92.63,4.05-.6-4.46-3.08,2.72-4.69-4.33,1.31,19.44-80.16,2.19,3.6,1.11-5.31,5.38,.69-1.95-2.36,110.92-10.81-2.28,2.05,7.62,.15,.45,7.6,1.23-1.48-1.05,5.36-1.05-2.76-2.06,5.02-5.16-1.65,2.64,4.73-4.51,3.01,5.35,.89-.46,5.4,2.84-2.55-5.82,28.61-2.01-3.69-1.36,5.25-5.34-.95,3.25,4.34-4.07,3.58,4.19,.12-9.44,8,.35-3.91-4.04,3.62-3.92-3.74,.31,5.41-5.37,.73,4.42,3.13-2.77,4.66,5.21-1.51,1.91,5.07,2.07-5.01,5.16,1.67-2.63-4.74,4.52-2.99-3.73-.63,9.28-7.86,.18,3.55,3.5-4.14,4.4,3.17-1.05-5.32,5.22-1.47-4.81-2.49,2.11-4.99-3.24,1.45,5.88-28.9,2.78,2.63-.32-5.41,5.37-.75-4.43-3.12,2.76-4.67-4.12,1.2,2.17-11.05,.56-.67Zm-146.85,100.09l54.58,94.31v.09l-7.61,.3,5.28,4.56-110.61,19.51,2.07-4.85-4,1.77,17.95-94.14,4.89,4.73-.38-7.61,7.55-.98-6.18-4.45,.43-.71,11.73-6.85,.26,4.15,3.45-4.18,4.44,3.11-1.12-5.3,5.2-1.54-2.76-1.38,6.21-3.19,1.3,.2-.41,5.41,3.99-3.66,3.97,3.69-.21-2.98Zm-2.71-11.92l-1-2.56-2.01,5.03-5.18-1.61,2.68,4.71-4.48,3.05,.19,.03-4.18,2.15,1.8-4.42-4.92,2.27-2.65-4.73-1.29,5.27-5.35-.87,3.31,4.29-4.02,3.64,3.15,.05-6.87,4.01,1.01-1.67-7.33,2.06-2.63-7.15-1.8,4.26-38.26-104.17,6.69,2.9-3.73-8.6,8.28-4.4-6.15-1.66,58.14-32.46-.27,3.47,2.88-2.63,2.22,7.99-2.57-1.66,1.32,5.26-5.14,1.73,4.93,2.25-1.85,5.1,4.83-2.46,2.83,4.62,.89-4.34,23.06,26.11-3.78,1.26,4.93,2.26-1.87,5.09,3.14-1.58-18.94,78.1Z"/></g></g></svg>