<?xml version="1.0" encoding="UTF-8"?><svg xmlns="http://www.w3.org/2000/svg" viewBox="0 0 391.22 276.12"><defs><style>.d{fill:#1d1d1b;}</style></defs><g id="a"/><g id="b"><g id="c"><path class="d" d="M391.22,169.07l-6.89-1.86,1.31-7.02-5.75,4.23-4.67-5.4-.21,5.38-22.49-22.8,3.55-.15-3.74-3.21,2.91-3.98-4.84,.92-1.3-4.75-1.68,3.18-12.19-30.77,2.54,1.1-1.96-4.52,4.35-2.31-4.76-1.28,.91-4.84-3.97,2.92-3.22-3.73-.19,4.92-4.92,.19,1.74,1.51-48.88-1.69,2.66-3.11-4.89,.55-.93-4.84-2.62,4.17-4.36-2.29,1.62,4.65-4.51,1.98,3.3,1.16-122.42,61.81,1.43-3.92-6.37,3.22-3.72-6.1-.74,3.56L78.04,24.07l8.59,2.64-5.15-8.97,8.54-5.84-10.22-1.57L80.56,.01l-7.6,7.01-7.59-7.03,.74,10.32-10.23,1.55,8.53,5.85-5.16,8.96,9.89-3.02,.02,.04L9.6,181.49l-.75-2.4-2.14,4.44-4.59-1.78,2.14,4.44-4.26,2.48,4.8,1.1-.72,4.87,3.85-3.07,3.36,3.6v-4.93l4.91-.39-2.31-1.84,59.56-9.45-2.92,2.54,7.13,.26,.3,7.13,4.65-5.41,5.76,4.21-1.33-7.01,6.89-1.88-4.99-2.63,39.69-8.42-1.66,1.61,7.14-.14,.7,7.1,3.41-4.45,24.59,91.88-2.96-1.51,1.67,4.63-4.49,2.03,4.66,1.58-1.21,4.77,4.14-2.66,2.98,3.92,.5-4.9,4.92,.12-3.52-3.45,3.16-3.78-4.89,.6-.98-4.83-1.66,2.69-24.43-91.31,4.42,2.86-1.04-4.16,114.95,75.5-3.33,1.07,4.46,2.1-1.74,4.61,4.42-2.17,2.52,4.23,1.05-4.81,4.88,.67-3.1-3.82,3.57-3.39-4.93,.04-.43-4.91-3.04,3.88-4.1-2.72,.68,2.86-115.9-76.12-1.64-1.08,3.75,.37,103.89,10.26-2.18,1.84,4.92,.24,.15,4.92,3.26-3.7,3.94,2.96-.86-4.85,4.77-1.24-2.85-1.55,83.28-33.32-.73,3.94,3.96-2.93,3.23,3.72,.11-2.92,22.25,22.56-5.52,.22,5.4,4.67-4.23,5.75,7.02-1.31,1.86,6.89,3.35-6.3,6.55,2.84-2.84-6.55,6.3-3.35Zm-259.12-5.1l-.14,.13h0l-43.6,9.25,2.09-4.85-6.54,2.86-3.37-6.3-1.84,6.9-7.02-1.29,3.75,5.07-62.29,9.89,1.98-2.92-3.65,.83L70.51,27.14l2.42,6.15,3.06-7.73,58.11,133.75-6.56-.83,4.56,5.49Zm210.18-31.14l1.97,4.51-4.34,2.32,2.03,.54-81.51,32.61,1.32-2.96-4.54,1.92-2.27-4.37-1.33,4.74-4.83-.95,2.11,2.94-102.77-10.15-3.89-1.78,123.77-62.49-.77,2.9,4.17-2.62,2.94,3.95,.56-4.89,4.92,.17-1.59-1.6,48.92,1.69-2.32,3.16,4.84-.91,1.28,4.76,1.72-3.25,12.24,30.9-2.63-1.13Z"/></g></g></svg>