<?xml version="1.0" encoding="UTF-8"?><svg xmlns="http://www.w3.org/2000/svg" viewBox="0 0 424.36 319.77"><defs><style>.d{fill:#1d1d1b;}</style></defs><g id="a"/><g id="b"><g id="c"><path class="d" d="M424.36,176.25l-9.83-4.76,3.97-10.17-9.85,4.72-5.48-9.44-2.45,10.64-10.8-1.61,2.24,2.83-122.56-38.68,3.78-1.17-9.83-4.76,3.97-10.17-9.85,4.72-5.48-9.44-2.16,9.39-22.51-25.64,5.38-1.67-5.52-2.67,2.23-5.71-5.53,2.65-3.08-5.31-.35,1.52-2.35-4.73-.93-4.11,5.86-1.82-5.52-2.67,2.23-5.71-5.53,2.65-3.08-5.31-1.18,5.11L155.22,12.64l5.16-1.6-5.52-2.67,2.23-5.71-5.53,2.65-3.08-5.31-1.38,5.98-6.07-.9,3.81,4.8-1.29,1.2-49.91,18.97,2.4-6.15-7.74,3.71-4.31-7.43-1.93,8.37-8.49-1.26,5.34,6.72-6.28,5.85,8.58,.02,.66,8.56,5.37-6.7,7.1,4.82-1.89-8.37,8.2-2.55-5.84-2.83,49.32-18.75h2.36l.47,6.12,3.83-4.79,5.07,3.44-.42-1.85,50.69,48.21-2.24-.33,3.81,4.8-4.49,4.18h6.13l.47,6.13,3.83-4.79,.8,.54h0l5.06,10.21-5.96-.89,3.81,4.8-4.49,4.18h6.13l.47,6.13,3.83-4.79,5.07,3.44-.18-.8,18.53,21.12-7.81-1.16,6.79,8.55-7.99,7.44,10.92,.02,.49,6.39h0l-34.43,96.32-4.86-8.39-1.4,6.06-8.07-15.74-.83-3.65,5.86-1.82-5.52-2.67,2.23-5.71-5.53,2.65-1.16-2.01-1.28-5.77,2.38,1.62-1.35-5.98,5.86-1.82-5.52-2.67,2.23-5.71-5.53,2.65-3.08-5.31-1.38,5.98-.15-.02h0L69.09,107.73l4.09-1.27-5.52-2.67,2.23-5.71-5.53,2.65-3.08-5.31-1.38,5.98-6.07-.9,3.63,4.58-42.7,8.11,1.95-5.01-5.53,2.65-3.08-5.3-1.38,5.98-6.07-.9,3.81,4.8-4.49,4.18H6.13l.47,6.13,3.83-4.79,5.07,3.44-1.35-5.98,5.86-1.82-1.97-.95,35.85-6.81-.73,.68h6.13l.47,6.13,3.83-4.79,5.07,3.45-.85-3.78,114.7,78.06h0l2.99,3.77-4.49,4.18h6.13l.47,6.13,3.22-4.02,1.71,7.7-.42,1.81-6.07-.9,3.81,4.8-4.49,4.18h6.13l.47,6.13,3.83-4.79,.94,.64h0l10.64,20.74v.05l-10.81-1.61,6.79,8.55-1.8,1.68-30.64,7.71,2.81-7.21-7.74,3.71-4.31-7.43-1.78,7.73-58.51-56.99,5.22-1.62-5.52-2.67,2.23-5.71-5.53,2.65-3.08-5.31-1.38,5.98-6.07-.9,1.44,1.81-27.69-5.89,2.11-.66-7.73-3.74,3.12-8-7.74,3.71-4.31-7.43-1.93,8.37-8.49-1.26,5.34,6.72-6.28,5.85,8.58,.02,.66,8.56,5.37-6.7,7.1,4.82-1.89-8.37,.24-.07h0l35.41,7.53-3.99,3.71h6.13l.47,6.13,3.83-4.79,5.07,3.44-.38-1.67,53.91,52.51-4.38-.65,5.34,6.72-6.28,5.85,8.59,.02,.66,8.56,5.37-6.7,7.1,4.82-1.89-8.37,8.2-2.55-4.5-2.18,23.18-5.83-1.65,1.54,10.92,.02,.84,10.89,6.82-8.52,9.03,6.13-2.41-10.65,.25-.08h0l116.93,47.37h0l2.32,2.92-7.99,7.44,10.92,.02,.84,10.89,6.82-8.52,9.03,6.13-2.41-10.65,10.43-3.24-9.83-4.76,3.97-10.17-5.63,2.7,44.16-99.3,.04,.56,6.82-8.52,9.03,6.13-2.41-10.65,10.43-3.24Zm-72.24,117.01h0l-.05,.03-5.48-9.44-2.45,10.64-10.8-1.61,.69,.86-108.64-44.01,5.66-1.76-9.83-4.76,3.97-10.17-7.21,3.45,33.74-94.39,4.61-5.76,9.03,6.13-2.41-10.65,1.64-.51h0l130.9,41.31h0l1.22,1.53-7.99,7.44,10.92,.02,.31,4.05-47.84,107.57Z"/></g></g></svg>