<?xml version="1.0" encoding="UTF-8"?><svg xmlns="http://www.w3.org/2000/svg" viewBox="0 0 264.72 385.07"><defs><style>.d{fill:#1d1d1b;}</style></defs><g id="a"/><g id="b"><g id="c"><polygon class="d" points="254.22 121.57 256.42 132.28 247.5 125.96 240.49 134.35 239.87 123.44 228.94 123.2 235.42 117.41 193.25 113.71 194.61 115.83 189.42 114.51 187.69 119.57 185.5 114.69 180.46 116.5 182.36 112.79 156.63 110.74 159.62 114.14 153.2 113.52 182.9 176.33 185.7 170.31 188.12 177.68 195.65 175.86 191.39 182.34 197.52 187.1 189.8 187.81 189.9 195.56 186.33 191.85 186.33 232.04 189.75 229.64 188.65 234.88 193.78 236.39 189 238.79 191.02 243.75 188.36 242.52 198.47 269.33 201.14 263.95 203.36 271.38 210.95 269.75 206.52 276.12 212.53 281.03 204.79 281.54 204.69 289.3 199.46 283.57 193.34 288.33 194.56 280.67 187.02 278.85 193.77 275.03 190.5 268 196.03 270.22 185.58 242.54 183.54 246.18 182.26 240.98 176.98 241.85 180.25 237.61 176.28 234.02 181.63 233.93 181.96 228.59 183.73 230.73 183.73 190.62 178.53 194.88 179.55 187.2 171.97 185.57 178.62 181.58 175.16 174.63 180.1 176.47 151.46 115.91 150.55 121.02 146.98 115.53 92.23 204.23 101.48 205.01 92.9 211.78 98.98 220.87 88.33 218.39 85.02 228.8 80.89 220.12 54.93 251.75 58.86 251.33 55.36 255.38 59.12 259.18 53.78 258.98 53.15 264.29 50.55 260.76 38.99 308.84 42.28 306.53 41.18 311.77 46.32 313.28 41.54 315.68 43.56 320.64 38.89 318.49 49.74 356.79 50.22 354.09 53.14 358.58 57.84 356.02 56.15 361.1 61.08 363.18 56.74 364.78 77.94 370.04 75.01 365.13 82.46 367.28 85.19 360.03 88.15 367.2 95.53 364.81 91.77 371.59 98.24 375.87 90.59 377.16 91.28 384.89 85.5 379.72 79.89 385.07 80.33 377.33 72.65 376.27 77.73 372.67 56.74 367.45 57.5 370.18 52.93 367.4 49.8 371.75 49.12 366.44 43.77 366.7 47.5 362.86 43.96 358.84 47.72 359.21 37.01 321.4 36.08 323.07 34.8 317.87 29.52 318.74 32.78 314.5 28.81 310.91 34.16 310.82 34.49 305.47 36.53 307.94 47.72 261.38 45.43 262.8 46.82 257.63 41.78 255.84 46.69 253.71 44.95 248.64 49.68 251.15 52.55 246.64 53.15 249.82 77.68 219.94 70.11 222.83 74.91 213.01 65.49 207.46 76.16 205.08 74.62 194.25 83.14 201.11 90.64 193.16 90.6 201.92 143.66 115.96 139.51 118.21 140.05 116.59 110.99 135.44 116.54 137.07 109.61 140.56 112.54 147.74 105.49 144.5 101.71 151.26 99.85 143.73 92.2 144.99 95.73 140.4 43.1 144.18 45.2 146.99 39.93 146.05 38.58 151.23 36.03 146.53 31.14 148.7 33.22 143.77 28.47 141.31 32.46 140.19 26.42 131.82 26.25 134.14 22.89 129.97 18.47 132.99 19.64 127.76 14.53 126.19 19.34 123.85 17.38 118.87 20.51 120.36 16.14 107.05 15.19 111.38 11.23 104.71 4.27 108.13 7.02 100.88 0 97.57 7.38 95.19 5.59 87.65 12.06 91.94 16.84 85.83 17.52 93.56 25.27 93.5 21.01 97.55 70.76 95.12 68.15 92.76 73.5 92.67 73.83 87.33 77.23 91.45 81.62 88.38 80.51 93.62 85.65 95.13 80.87 97.53 82.89 102.49 78.03 100.25 75.41 104.92 74.13 99.72 68.85 100.59 71.07 97.71 20.73 100.17 24.54 104.86 17.85 103.94 23.04 119.73 24.89 116.53 26.1 121.74 31.39 120.94 28.07 125.14 32 128.78 27.45 128.8 32.95 136.43 32.59 134.61 36.94 137.74 40.4 133.66 40.66 139.01 46.01 139.17 43.29 141.56 95.77 137.79 91.17 133.64 98.93 133.51 99.41 125.77 104.35 131.75 110.69 127.3 109.42 133.36 141.37 112.64 141.96 110.86 134.82 107.83 142.1 105.16 140.01 97.69 146.64 101.72 151.18 95.43 152.16 103.13 153.44 103.07 153.44 103.07 229.92 25.21 220.6 25.47 228.38 17.79 221.34 9.43 232.19 10.72 234.33 0 240.09 9.29 249.81 4.28 246.13 14.58 256.11 19.05 245.77 22.6 248.49 33.19 239.27 27.31 232.69 36.04 231.73 27.08 157.27 102.88 159.91 102.76 154.83 107.98 180.1 110 178.35 108.93 183.6 107.87 182.96 102.56 187.05 106 190.81 102.18 190.67 107.53 195.99 108.09 192.14 111 236.3 114.87 230.46 107.22 241.24 109.04 243.9 98.44 249.2 108 259.15 103.47 254.98 113.58 264.72 118.53 254.22 121.57"/></g></g></svg>