<?xml version="1.0" encoding="UTF-8"?><svg xmlns="http://www.w3.org/2000/svg" viewBox="0 0 291.22 265.53"><defs><style>.d{fill:#1d1d1b;}</style></defs><g id="a"/><g id="b"><g id="c"><path class="d" d="M291.22,116.12l-7.81-1.55,.93-7.91-4.95,4.19v-38.4l3.05,3.48,.18-5.49,5.49-.26-4.18-3.56,3.22-4.45-5.39,1.05-1.47-5.29-1.8,3.44-6.34-40.08,4.58,3.01-1.87-7.74,7.57-2.47-7.22-3.36,2.78-7.46-7.13,3.55-4.1-6.83-1.67,7.78-7.89-1.05,5.04,6.16-5.74,5.51,4.99-.06-51.04,60.73-1.59-4.79-2.3,4.99-5.16-1.89,1.99,3.96-34.67-5.17,3.27-1.63-5.26-1.57,1.15-5.37-4.51,3.13-3.48-4.25-.28,4.2-5.41-8.46,5.39,.95-4.79-6.36,5.96-5.27-7.96-.22-.4-7.95-5.14,6.08-6.47-4.64,1.55,7.81-7.66,2.16,7.07,3.65-3.09,7.34,5.15-2.3-46.32,89.76-.98-3.61-2.57,4.85-5.04-2.18,1.75,4.03h-16.27l2.31-3.65-5.32,1.38-1.8-5.19-2.23,5.02-5.18-1.83,2.02,3.9-33.47-2.11,2.86-2.96-5.49,.28-.71-5.45-3.2,4.46-4.7-2.84,1.49,5.29-5.15,1.9,5.06,2.13-1.73,5.21,4.82-2.63,3,4.6,.74-4.21,37.44,55.42-.02,.08-7.89-1.05,4.78,5.84-47.16,3.17,2.45-3.05-5.44,.78-1.2-5.36-2.78,4.74-4.94-2.4,1.97,5.13-4.96,2.37,5.24,1.66-1.24,5.35,4.56-3.06,3.41,4.31,.45-5.47,5.49,.02-3-2.82,45.36-3.05-3.68,3.53,7.96-.1,.73,7.93,4.88-6.29,6.65,4.37-1.87-7.74,7.57-2.47-7.22-3.36,2.78-7.46-7.13,3.55-4.1-6.83-1.02,4.76-36.15-53.52,3.76,.36-2.58-2.92,32.09,2.02-2.87,1.79,5.39,1.06-.63,5.46,4.19-3.55,3.87,3.9-.17-5.49,5.46-.6-2.81-2.11h13.56l-2.66,1.42,5.3,1.43-1,5.4,4.42-3.26,3.6,4.15,.19-4.94,58.17,87.97-2.13-.91,2.21,5.03-4.84,2.6,5.31,1.41-.98,5.4,4.41-3.27,3.61,4.14,.19-5.49,5.49-.24-2.42-2.07h44.75l.07,.05-2.72,4.77,5.25-1.63,2.03,5.1,2-5.12,5.26,1.59-2.75-4.75,4.52-3.12-5.43-.81,.38-5.48-2.99,2.78-8.3-160.59,2.06,2.12-.1-5.49,5.47-.53-4.36-3.35,2.99-4.6-2.37,.59,50.82-60.46h.1l.73,7.93,4.6-5.92,6.63,41.94-3.74-1.59,2.22,5.02-4.83,2.61,5.31,1.39-.97,5.41,2.8-2.09v37.75l-4.56-4.6,.23,7.96-7.91,.86,6.36,4.78-4.27,6.72,7.71-1.99,2.59,7.53,3.25-7.27,7.5,2.66-3.66-7.07,6.76-4.2Zm-75.24,134.4l-2.9-2.66,.42,5.48-5.43,.85,1.28,.87h-42.82l2.74-3.77-5.39,1.04-1.46-5.3-2.32,4.43-59.13-89.43,3.33-.13-4.16-3.59,3.25-4.43-4.16,.78,47.17-91.39,3.39,6.22,1.87-7.26,6.23,9.74-3.83,.05,4.06,3.7-3.37,4.34,5.42-.87,1.29,5.34,2.7-4.78,4.98,2.32-1.57-3.89,34.56,5.15-2.95,1.79,5.38,1.13-.7,5.45,3.75-3.1,8.37,161.92Z"/></g></g></svg>