<?xml version="1.0" encoding="UTF-8"?><svg xmlns="http://www.w3.org/2000/svg" viewBox="0 0 150.49 257.17"><defs><style>.d{fill:#1d1d1b;}</style></defs><g id="a"/><g id="b"><g id="c"><polygon class="d" points="145.47 114.1 138.32 117.3 140.95 124.68 133.99 121.09 129.86 127.75 128.81 122.46 20.42 239.26 25.6 239.32 19.82 244.6 24.63 250.78 16.89 249.55 15.05 257.17 11.19 250.35 4.09 253.67 7.02 246.4 0 242.91 7.5 240.66 5.85 233.01 12.29 237.47 17.25 231.41 17.65 237.5 126.42 120.3 120.55 121 125.6 115 120.02 109.5 127.85 109.71 128.68 101.92 132.04 106.37 135.94 21.29 131.68 25.12 132.36 17.32 124.63 16.03 131.16 11.69 127.35 4.85 134.81 7.25 137.79 0 140.56 7.33 148.08 5.14 144.08 11.87 150.49 16.39 142.73 17.46 143.19 25.28 139.16 21.46 135.23 107.01 140 103.97 138.06 111.55 145.47 114.1"/></g></g></svg>