<?xml version="1.0" encoding="UTF-8"?><svg xmlns="http://www.w3.org/2000/svg" viewBox="0 0 325.78 141.69"><defs><style>.d{fill:#1d1d1b;}</style></defs><g id="a"/><g id="b"><g id="c"><path class="d" d="M325.78,130.73l-5.18-1.03,.62-5.24-3.19,2.7-4.63-29.63,3.13,1.58-1.81-4.96,4.8-2.2-5.01-1.67,1.27-5.12-4.43,2.87-3.21-4.19-.52,5.25-5.28-.1,3.23,3.14-78.5,31.77-.68-.23,1.27-5.12-4.43,2.87-3.21-4.19-.52,5.25h-.49L89.52,21.09l8.5-2.23-8.8-4.76,4.05-9.14-9.21,3.91L79.45,0l-2.68,9.64-9.82-1.91,5.86,8.1-7.62,6.48,7.91,.37L23.89,64.26l1.57-6.32-8.39,5.44-6.08-7.94-.98,9.95-10-.19,7.17,6.97-6.39,7.7,9.92-1.26,2.04,9.79,4.1-6.74,5.06,32.26-4.75-4.58,.52,9.99-9.92,1.3,8.13,5.82-5.17,8.57,9.62-2.73,3.48,9.38,3.87-9.22,9.5,3.13-3.62-6.63,7.18,1.86-3.32,2.04,5.17,1.05-.64,5.24,4.05-3.39,3.7,3.77-.13-5.28,5.25-.54-2.97-2.26,68.27-11.68-1.86,3.33,5.03-1.61,2,4.89,1.88-4.93,5.07,1.48-2.16-3.66,87.1,7.78-2.54,3.06,5.24-.66,1.07,5.17,2.75-4.51,4.71,2.38-1.7-4.65,85.33,6.15-2.28,3.59,5.11-1.32,1.72,4.99,2.15-4.82,4.98,1.77-2.43-4.69,4.48-2.79Zm-194.92-13.26l3.01-2.11-5.23-.73,.32-5.27-3.83,3.63-3.92-3.53,.45,5.26-5.21,.86,3.51,2.34-68.79,11.77,2.31-3.6-5.12,1.3-1.7-5-2.18,4.81-4.97-1.79,1.87,3.66-8.89-2.3,8.27-5.41-9.85-1.72,.94-9.96-7.49,6.63-.22-.21h0l-5.64-35.94,8.37,4.23-3.44-9.39,9.09-4.17-9.49-3.17,.07-.29h0L75.2,23.36l.3,9.42,6.6-7.52,8.01,5.98-1.52-8.51,127.31,99.67-1.68-.03,2.88,2.8-86.25-7.71Zm182.61,6.64l.15,5.28-5.25,.57,2.79,2.1-81.59-5.88,1.82-.84-1.6-.53,74.76-30.26-1.81,2.18,5.24-.66,1.07,5.17,2.4-3.94,4.6,29.44-2.6-2.62Z"/></g></g></svg>