<?xml version="1.0" encoding="UTF-8"?><svg xmlns="http://www.w3.org/2000/svg" viewBox="0 0 319.24 262.08"><defs><style>.d{fill:#1d1d1b;}</style></defs><g id="a"/><g id="b"><g id="c"><path class="d" d="M319.24,91.98l-4.04,.24-.55-4.01-1.68,2.38-5.86-21.18,1.16,1.04-.5-5.7,5.64-.95-4.77-3.16,2.78-5-5.44,1.76-2.18-5.29-2.02,5.35-5.49-1.59,2.74,4.61h-32.48l1.11-2.73-3.68,1.69-1.98-3.53-.97,3.93-3.99-.66,2.47,3.21-3,2.71,2.08,.04-10.81,16.67-1.99-4.83-2.02,5.35-5.49-1.59,2.92,4.92-4.67,3.3,2.95,.41-17.29,11.15,1.85-3.34-7.68,2.48-3.07-7.46-2.85,7.55-7.75-2.25,4.12,6.93-6.59,4.66,6.8,.94-58.05,35.39,1.08-2.28-3.77,1.48-1.77-3.64-1.19,3.87-3.95-.88,2.28,3.34-3.15,2.54,2.64,.19-23.68,13.74,2.53-6.84-7.21,3.62-4.17-6.9-1.67,7.89-8-1.04,5.13,6.22-5.8,5.6,6.89-.11-35.22,27.09h-.08l.22-4.05-2.92,2.8-3.02-2.69,.37,4.03-3.99,.69,3.38,2.22-1.95,3.55,1.83-.6-35.02,38.06,.4-7.28-3.86,3.7,2.98-48.3,2.53,1.72-.89-3.95,3.87-1.19-3.64-1.77,1.48-3.77-2.73,1.3,3.84-37.22,3.28,5.49,1.71-7.88,7.99,1.08-5.1-6.25,5.83-5.57-8.07,.09-.72-8.03-3.64,4.67,3.55-67.96,1.93,3.02,1.05-5.62,5.69,.6-3.74-4.33,4.02-4.07-5.72,.23-.68-5.68-3.38,4.61-.34-.21L19.31,13.44l4.53,1.08-3.16-4.77,4.5-3.53-5.7-.5,.05-5.72-3.94,4.14L11.15,.54l.78,5.67-5.59,1.23,4.92,2.92-2.53,5.13,4.66-1.76L7.36,31l-.8-1.95-1.43,3.79-3.89-1.13,2.07,3.48-3.3,2.34,4.01,.55-.23,4.04,2.93-2.79,3.01,2.7-.33-3.75,23.86,14.74h0l.11,.42-5.39,1.93,5.25,2.27-1.85,5.41,4.53-2.41-3.7,70.86-6.24-4.12,1.88,7.84-7.67,2.49,7.3,3.42-2.84,7.55,6.44-3.19-3.86,37.43-1.29-2.22-.91,3.94-4-.6,2.51,3.17-2.97,2.75h4.05l.3,4.05,1.57-1.95-3.05,49.43-.11,.1-6.02-5.37,.73,8.03-7.95,1.36,6.73,4.44-3.9,7.06,7.67-2.5,3.09,7.45,2.83-7.55,7.75,2.23-4.14-6.92,6.57-4.67-6.49-.87,35.88-38.99,1.26,3.02,1.42-3.79,3.89,1.11-2.08-3.47,3.29-2.35-1.5-.2,34.08-26.21,.65,6.81,4.93-6.39,6.75,4.41-1.92-7.83,7.66-2.53-5.94-2.74,23.96-13.91,.02,2.95,2.75-2.97,3.18,2.51-.61-4,3.94-.92-2.61-1.5,58.92-35.92-.4,6.86,5.84-5.56,6,5.39-.71-8.04,7.95-1.34-6.72-4.46,.27-.49,21.74-14.01h.07l-.33,5.72,4.14-3.94,4.26,3.82-.44-4.96,25.93,20.45-2.37,1.67,4.01,.55-.23,4.04,2.93-2.79,3.01,2.7-.35-4.03,3.99-.67-1.97-1.31,24.43-12.42-.52,1.61,3.54-1.97,2.24,3.37,.67-3.99,4.03,.35-2.7-3.01,2.79-2.93ZM31.87,47.93l.72,2.64-20.96-12.95,1.73-.29-3.37-2.24,1.96-3.54-3.31,1.07L14.8,14.98l1.72,3.66,1.34-4.17,15.85,34.6-1.85-1.14Zm278.1,45.41l-3.78,1.43,3.65,1.5-26.22,13.33,1.72-3.1-3.85,1.24-1.54-3.74-1.43,3.79-3.89-1.13,1.15,1.94-24.43-19.26,4.05-.68-4.77-3.16,2.78-5-3.43,1.11,10.58-16.31,.24,3.91,2.58-3.12,3.31,2.32-.83-3.96,3.88-1.14-2.18-1.1h29.62l-2.65,1.87,5.67,.78-.33,5.71,4.14-3.94,.69,.62,6.54,23.63-2.41-1.43,1.13,3.89Z"/></g></g></svg>