<?xml version="1.0" encoding="UTF-8"?><svg xmlns="http://www.w3.org/2000/svg" viewBox="0 0 245.5 324.12"><defs><style>.d{fill:#1d1d1b;}</style></defs><g id="a"/><g id="b"><g id="c"><path class="d" d="M245.5,213.63l-7.42-4.55,3.96-7.75-8.19,2.96-3.59-7.93-2.14,6.31-66.59-52.6,6.96-1.29-7.34-4.68,4.09-7.68-8.24,2.81-3.45-7.99-2.26,6.3L91.01,21.89l5.1,2.07-3.65-7.9,7.59-4.26-8.45-2.07,1.4-8.59-6.89,5.32-5.84-6.45-.14,8.7-8.69,.55,4.26,3.51H23l3.19-5.24-8.38,2.34L14.81,1.69l-3.4,8.01L3.15,6.95l4.15,7.65L0,19.34l8.57,1.53-.85,8.66,4.64-4.08,27.44,143.27-7.36-6.66,1.24,14.85-14.71,2.41,12.39,8.29-7.29,13,14.21-4.52,5.62,13.81,5.33-13.92,14.3,4.21-4.77-8.1,54.74,21.06-6.63,4.64,8.62,1.23-.54,8.69,6.33-5.97,6.45,5.84-.36-4.32,20.98,22.06-1.47-.49,4.17,7.64-7.28,4.76,8.57,1.5-.82,8.67,6.52-5.77,6.26,6.04-.26-4.96,34.57,41.3-6.49-.19,6.18,6.13-5.62,6.64,8.64-1.01,1.69,8.54,4.6-7.39,7.73,4.01-2.91-8.2,7.95-3.54-8.23-2.84,2.19-8.42-3.52,2.23,22.33-80.03,4.89,4.09-1.06-8.64,8.53-1.74Zm-38.4,88.67l-.12,.08-5.22-6.96-.75,6.88-36.35-43.43,7.81-1.02-7.07-5.07,4.5-7.45-8.37,2.37-3.02-8.16-3.37,8.03-.88-.29-27.01-28.4,8.35-1.36-7.23-4.84,4.26-7.59-8.3,2.63-3.28-8.06-3.11,8.13-8.35-2.46,2.43,4.13-55.66-21.41h0l-.39-.67,12.21-8.55-14.76-2.09,.93-14.88-10.84,10.23-.07-.07L15.22,24.71l5.28,5.13-.42-8.69,8.63-1.1-6.02-4.35h54.82l-4.35,6.21,8.51-1.8,2.47,8.35,3.42-6.82,61.14,117.27-6.48-1.76,4.58,7.4-7.02,5.14,8.64,1.04-.35,8.7,6.2-6.11,6.58,5.7-.66-6.26,64.87,51.23-6.02-1.52,4.71,7.32-6.93,5.27,8.66,.89-.2,8.7,4.9-5-23.06,82.66Z"/></g></g></svg>