<?xml version="1.0" encoding="UTF-8"?><svg xmlns="http://www.w3.org/2000/svg" viewBox="0 0 58.84 153.49"><defs><style>.d{fill:#1d1d1b;}</style></defs><g id="a"/><g id="b"><g id="c"><polygon class="d" points="58.84 145.9 51.06 145.75 50.3 153.49 45.57 147.32 39.04 151.55 40.92 144 33.54 141.53 40.62 138.3 37.94 130.99 43.4 133.75 36.16 113.27 34.85 117.63 31.39 110.66 24.17 113.56 27.47 106.52 20.7 102.68 28.26 100.86 27.04 93.18 31.04 96.29 12.66 20.24 8.81 25.66 7.76 17.96 0 18.4 5.37 12.77 .18 6.98 7.93 7.67 9.23 0 13.52 6.49 20.32 2.72 17.92 10.12 25.11 13.09 17.83 15.83 19.99 23.3 14.83 20.22 33.52 97.58 38.42 92.22 38.52 99.99 46.27 100.51 40.25 105.43 44.68 111.82 37.33 110.24 45.53 133.44 48.93 127.86 50.51 135.48 58.23 134.5 53.26 140.48 58.84 145.9"/></g></g></svg>