<?xml version="1.0" encoding="UTF-8"?><svg xmlns="http://www.w3.org/2000/svg" viewBox="0 0 179.71 203.45"><defs><style>.d{fill:#1d1d1b;}</style></defs><g id="a"/><g id="b"><g id="c"><path class="d" d="M179.71,198.45l-2.97-1.37,1.13-3.06-2.92,1.46-1.69-2.79-.68,3.2-3.24-.42,1.01,1.22-10.94-1.6,1.92-2.14-3.26,.29-.54-3.22-1.81,2.72-.67-.37-43.69-65.64,2.88,.17-2.25-2.36,2.18-2.43-3.26,.29-.11-.64h0L146.18,22.4l1.76,2.49,.44-3.24,3.26,.19-2.25-2.36,2.18-2.43-1.57,.14,8.44-7.92-.15,.52,2.81-1.67,1.89,2.67,.44-3.23,3.26,.18-2.26-2.36,2.18-2.43-3.25,.29-.54-3.22-1.8,2.72-2.86-1.58,1,3.11-3.02,1.24,2.86,1.08-10.79,10.12-.44-2.58-1.8,2.72-2.86-1.58,1.01,3.11-3.02,1.25,1.11,.42L51.88,49.44l.85-2.67-2.85,1.6-1.82-2.71-.53,3.22-3.26-.27,2.19,2.42-2.24,2.37,2.08-.13-4.07,4.33-.34-4.86-4.28,5.27-5.59-3.85,1.45,6.63-6.5,1.97,6.09,3-2.51,6.3,4.37-2.05-2.91,10.74-.08,.08-2.49-2.11,.38,3.25-3.21,.63,2.77,1.73-1.5,2.9,2.13-.75L6.02,142.91l-.75-1.79-1.14,3.06-3.14-.9,1.68,2.8-2.66,1.89,3.24,.44-.18,3.26,2.36-2.26,2.44,2.17-.3-3.25,3.22-.55-1.94-1.28,35.79-7.27-1.05,2.24,3.03-1.22,1.45,2.92,.94-3.13,3.2,.69-1.86-2.68,.03-.03h0l56.39-12.19-.9,3.11,2.81-1.67,1.89,2.67,.18-1.33,42.63,64.06,.51,1.59-3.02,1.25,3.06,1.15-.91,3.14,2.81-1.67,1.89,2.67,.44-3.24,3.26,.19-.86-.9,10.46,1.53-1.94,1.87,3.27-.05,.31,3.25,2-2.59,2.73,1.79-.78-3.17,3.1-1.02ZM109.69,120.21l-1.11,1.67-2.86-1.58,1.01,3.11-3.02,1.25,.38,.14-51.63,11.16h0l-2.86-.19-.04-3.27-2.2,2.41-2.58-2.01,.52,3.23-3.18,.77,1.59,.9-35.08,7.13,1-1.81-2.31,.75,24.12-56.7,.87,1.94,1.07-3.09,3.16,.82-1.75-2.76,2.61-1.96-3.25-.35,.09-3.18,2.52-9.31,3.3,5.79,1.57-6.6,6.7,1.05-4.18-5.35,5-4.59-6.55-.06,5.02-5.33,.32,2.26,1.87-2.68,2.81,1.66-.92-3.13,3.05-1.17-1.31-.53,90.6-29.5-.81,2.81,.92-.54-34.47,96.85Z"/></g></g></svg>