<?xml version="1.0" encoding="UTF-8"?><svg xmlns="http://www.w3.org/2000/svg" viewBox="0 0 224.44 309.3"><defs><style>.d{fill:#1d1d1b;}</style></defs><g id="a"/><g id="b"><g id="c"><path class="d" d="M224.44,292.53l-9.23-3.33,2.6-9.46-8.36,5.13-5.78-7.93-.44,3.59-80.6-118.5,3.59,1.5-2.97-6.56,6.31-3.48-6.98-1.77,1.22-7.1-4.88,3.7,5.12-23.25,6.74,4.48-2.25-9.55,9.34-3-8.87-4.19,3.48-9.17-8.81,4.32-5-8.44-1.33,6.04L25.16,21.32l7.21-1.17-8.15-5.47,4.81-8.55-9.35,2.96L16,0l-3.52,9.16L3.07,6.37l4.97,8.46L0,20.45l9.71,1.39-.62,9.79,5.27-4.96,15.74,136.6-6.67-2.58,4.27,8.83-8.47,4.95,9.57,2.17-1.41,9.71,7.66-6.13,6.71,7.16v-6.25l155.46,105.31-4.54-.2,6.87,7.01-6.44,7.4,9.76-1,1.77,9.65,5.3-8.25,8.65,4.64-3.15-9.29,9.01-3.87Zm-21.9-6.37L42.19,177.54l9.33-.75-7.68-6.11,5.48-8.13-9.56,2.2-2.94-9.36-3.54,7.37L17.54,26.09l5.96,5.4-.65-7.93L116.42,109.09l-9.57-1.33,6.17,7.62-7.11,6.75,9.81-.07,.85,9.77,3.75-4.77-4.32,19.58-2.72-3.05-.17,7.2-7.19,.39,5.52,4.63-4.18,5.87,7.06-1.43,1.98,6.93,2.55-4.98,83.79,123.19,1.05,1.55-1.15-.78Z"/></g></g></svg>