<?xml version="1.0" encoding="UTF-8"?><svg xmlns="http://www.w3.org/2000/svg" viewBox="0 0 220.02 123.98"><defs><style>.d{fill:#1d1d1b;}</style></defs><g id="a"/><g id="b"><g id="c"><polygon class="d" points="212.68 103.59 204.59 109.17 209.52 117.67 200.11 114.83 196.53 123.98 192.89 114.85 183.49 117.76 188.37 109.22 180.24 103.69 189.17 102.29 135.21 64.04 138.91 69.8 129.38 67.39 126.23 76.71 122.17 67.76 112.92 71.11 117.39 62.35 109.01 57.21 117.51 55.47 24.45 19.51 27.94 26.98 18.82 23.32 14.45 32.13 11.63 22.71 2.02 24.79 7.62 16.71 0 10.49 9.81 9.83 9.92 0 16.56 7.26 24.31 1.22 22.77 10.93 32.33 13.23 25.08 17.34 118.41 53.4 117.43 45.48 124.98 51.78 131.85 44.75 131.63 54.58 141.41 55.57 136.03 59.67 196.01 76.71 192.83 69.05 201.78 73.11 206.54 64.5 208.94 74.03 218.64 72.38 212.69 80.21 220.02 86.75 210.19 86.98 209.65 96.8 203.34 89.26 195.32 94.95 197.29 85.32 187.84 82.6 195.22 78.83 136.37 62.1 189.78 99.97 189.2 92.37 196.45 99.02 203.64 92.32 202.96 102.13 212.68 103.59"/></g></g></svg>