<?xml version="1.0" encoding="UTF-8"?><svg xmlns="http://www.w3.org/2000/svg" viewBox="0 0 412.71 392.79"><defs><style>.d{fill:#1d1d1b;}</style></defs><g id="a"/><g id="b"><g id="c"><path class="d" d="M412.71,142.62l-5.22-3,2.58-5.44-5.6,2.21-2.64-5.41-1.76,5.75-5.87-1.31,2.6,3.81-52.45-3.32,3.06-3.8-5.96,.84-1.31-5.87-2.52,4.27-23.03-39.2,5-.15-4.52-3.97,3.61-4.82-4.48,.8,23.5-48.73,1.64,4.21,2.23-5.59,5.75,1.78-2.98-5.23,4.98-3.38-5.95-.93,.46-6-4.43,4.07-4.4-4.1,.42,6-5.95,.89,4.95,3.42-3.02,5.21,4.16-1.26-23.25,48.2-1.08-4.12-2.87,5.29-5.5-2.44,2.35,5.54-5.34,2.78,4.36,1.22-62.17,37.39,1.42-2.3-5.81,1.58-2.03-5.66-2.39,5.52-5.7-1.94,1.74,3.26-16-7.11,7.9-6.18-11.88-1.05,.12-11.93-8.23,8.63-9.25-7.53,1.62,11.82-11.66,2.54,8.5,5.07-22.82,15.01,.15-5.35-4.23,4.28-3.12-2.63-18.14-50.25,7.15,2.28-4.14-7.38,7.04-4.71-8.35-1.37,.71-8.43-6.28,5.68-6.15-5.81,.48,7.75-31.65-18.93,2.65-.26-4.77-3.67,3.28-5.04-5.84,1.44-1.9-5.71-2.07,4.51-10.15-28.92,3.83,1.87-2.14-5.62,5.44-2.58-5.73-1.83,1.37-5.86-5,3.34-3.72-4.73-.51,6-6.02-.03,4.37,4.14-3.78,4.68,5.96-.84,1.31,5.87,2.33-3.95,10.07,28.71-3.71-1.36,2.71,5.38-5.15,3.12,5.89,1.24-.77,5.97,4.64-3.83,4.19,4.32-.1-5.62,32.27,19.31-5.62,.8,6.93,4.86-4.3,7.29,8.12-2.39,3.02,7.91,2.31-5.67,19.17,53.09h0l-5.9,1.19,1.69,1.05-73.29-5.09h0l4.62-7.1-8.22,2.03-2.67-8.03-3.54,7.69-7.94-2.92,3.81,7.56-7.24,4.39,6.88,1.44L10.33,189.22l-2-3.67-1.51,5.83-5.93-1.04,3.62,4.81-4.51,3.98,6.02,.17,.3,6.01,3.02-3.57,33.55,78.49-4.74-.35,4.08,4.42-4.09,4.41,6-.43,.9,5.95,2.58-3.76,29.47,60.7-.07,2.16-11.92,.56,9.08,7.73-6.99,9.66,11.71-2.28,3.19,11.49,5.52-10.58,10.98,4.67-4.1-9.27,62.01,17.27-4.12,2.5,5.89,1.24-.77,5.97,4.64-3.83,4.19,4.32-.11-6.02,5.99-.58-4.77-3.67,3.28-5.04-5.84,1.44-1.9-5.71-2.51,5.47-5.65-2.08,1.82,3.62-61.68-17.18,9.3-5.03-7.29-1.91,59.98-26.57-1.65,4.12,5.45-2.55,2.97,5.23,1.4-5.85,5.94,.94-3.7-4.75,4.44-4.06-6.02-.07-.41-6-3.8,4.66-4.95-3.42,1.27,5.88-5.76,1.73,3.96,1.96-62.75,27.8-.64-.17,2.11-11.74-9.56,7.13-7.86-8.97-.15,4.76-27.16-55.96,3.57,2.06-1.75-5.76,5.6-2.2-5.59-2.22,1.77-5.75-5.22,2.99-3.39-4.97-.57,3.69L11.98,201.99l3.11,2.23-1.17-5.9,5.79-1.63-5.34-2.77,2.34-5.55-3.73,1.67,56.05-46.84-.86,6.64,6.52-5.39,5.89,6.08-.15-8.46,8.43-.81-3.37-2.59,73.15,5.08-2.53,4.91,5.67-2.02,2.46,5.49,1.53-4.46,19.35,18.04-3.92,2.38,5.89,1.24-.77,5.97,4.64-3.83,4.19,4.32-.11-6.02,5.99-.58-3.81-2.93,33.64-27.29-.22,2.08,4.55-3.94,4.29,4.22-.25-6.01,5.97-.72-4.15-3.04,64.31-38.68-.84,4.26,4.88-3.52,3.89,4.59,.16-3.38,21.36,36.35-3.14-1.53,2.15,5.62-5.43,2.58,5.73,1.83-1.37,5.86,3.1-2.07-13.38,37.63-1.76-5.62-3.68,7.63-7.89-3.06,3.67,7.63-7.31,4.26,8.25,1.89-1.23,8.38,6.62-5.28,5.78,6.18v-4.2l15.88,28.16-4.22-1.07,3.25,5.06-4.79,3.64,5.99,.61-.14,6.02,4.21-4.3,4.62,3.86-.74-5.97,5.9-1.2-5.13-3.15,2.74-5.36-5.66,2.05-2.49-5.48-1.45,4.28-17.72-31.42,8.18-.64-6.62-5.28,4.74-7.01-7.35,1.68,14.31-40.27,3.02,3.83,.51-6,6.02,.03-2.79-2.63,50.97,3.22-3.28,2.65,6,.44,.03,6.02,4.09-4.42,4.73,3.73-.91-5.95,5.86-1.37Zm-181.52-6.92l-32.9,26.69,1.24-1.91-5.84,1.44-1.9-5.71-2.52,5.47-5.65-2.08,1.47,2.93-16.61-15.49,3.52,.91-3.23-5.08,4.8-3.62-3.2-.34,21.35-14.05-4.84,9.81,11.16-4.2,5.07,10.8,3.67-11.35,11.6,2.77-5.91-8.93,17,7.56-4.16,2.66,5.92,1.1-.07,.63Z"/></g></g></svg>