<?xml version="1.0" encoding="UTF-8"?><svg xmlns="http://www.w3.org/2000/svg" viewBox="0 0 159.74 423.58"><defs><style>.d{fill:#1d1d1b;}</style></defs><g id="a"/><g id="b"><g id="c"><polygon class="d" points="124.12 46.32 123.41 43.32 74.23 116.98 79.94 114.66 77.15 120.69 147.09 85.28 144.7 84.49 148.89 82.54 147.28 78.21 151.42 80.28 153.81 76.32 154.77 80.84 159.35 80.24 156.41 83.81 159.74 87.02 155.12 86.95 154.69 91.55 151.86 87.89 147.99 90.42 148.85 86.91 75.63 123.98 75.06 125.22 85.19 130.92 73.9 133.68 75.76 145.16 66.56 138.05 66.23 138.42 64.83 163.94 69.46 161.23 67.56 167.65 73.81 170.06 67.6 172.57 69.62 178.96 64.89 176.3 67.37 227.06 70.48 223.24 70.94 229.92 77.64 229.99 72.7 234.52 76.83 239.8 70.95 238.88 95.46 277.89 98.51 272.82 99.91 279.37 106.55 278.5 102.29 283.67 107.12 288.32 101.79 288.24 129.52 334.65 130.63 330.19 133.89 336.05 139.98 333.26 137.44 339.46 143.41 342.48 136.98 344.35 138.35 350.91 132.87 347.05 128.59 352.21 128.33 347.86 112.91 367.69 115.82 367.31 112.89 370.88 116.21 374.09 111.59 374.02 111.16 378.62 108.33 374.97 104.46 377.5 104.89 375.77 80.8 395.84 86.32 395.12 78.93 404.1 87.31 412.17 75.68 412 74.59 423.58 67.48 414.37 57.74 420.74 60.5 409.44 49.46 405.81 58.58 401.58 20.95 388.88 22.38 391.37 17.96 390.02 16.27 394.32 14.57 390.02 10.15 391.37 12.45 387.36 8.63 384.76 13.2 384.05 12.86 379.44 15.28 381.67 15.26 373.75 11.83 378.03 11.32 371.35 4.62 371.32 9.53 366.77 5.38 361.51 12 362.51 13.52 355.98 15.74 359.83 17.78 330.45 9.13 336.84 11.24 325.4 0 322.41 10.26 316.92 5.59 306.26 16.28 310.86 21.7 300.57 24.77 311.79 36.19 309.62 29.33 319.01 38.16 326.59 26.54 327.08 26.11 338.7 19.96 331.62 17.9 361.29 22.92 358.9 20.47 365.14 26.49 368.07 20.09 370.04 21.56 376.58 17.51 373.82 17.53 381.41 19.65 379.44 19.32 384.05 23.89 384.75 21.2 386.59 59.48 399.5 55.97 390.01 66.37 395.21 72.37 385.25 74.79 396.63 76.63 396.39 104.93 372.8 101.17 371.56 105.36 369.62 103.76 365.28 107.89 367.35 110.28 363.39 110.95 366.55 127.31 345.51 121.49 345.39 126.48 340.91 122.4 335.59 128.02 336.53 100.25 290.05 99.79 294.89 95.69 289.59 90.09 293.26 91.68 286.75 85.31 284.65 91.39 281.84 89.06 275.56 92.38 277.21 69.66 241.06 68.65 245.28 65.34 239.46 59.27 242.3 61.76 236.08 55.75 233.12 62.16 231.18 60.73 224.63 65.15 227.68 62.69 177.29 60.04 181.23 58.97 174.62 52.29 175.16 56.8 170.2 52.21 165.32 58.9 165.75 59.85 159.12 62.63 163.1 63.83 141.06 58.75 146.67 58.57 135.04 46.96 134.3 55.94 126.91 49.28 117.38 60.65 119.79 63.95 108.64 67.09 114.91 87.46 12.52 85.04 14.11 86.13 9.62 81.74 8.17 85.94 6.23 84.33 1.89 88.46 3.96 90.85 0 91.81 4.52 96.4 3.92 93.46 7.49 96.79 10.7 92.17 10.63 91.73 15.23 89.73 12.64 68.73 118.18 69.16 119.04 70.52 118.49 121.55 42.05 118.49 42.52 121.35 38.89 117.96 35.75 122.58 35.72 122.91 31.11 125.82 34.71 129.63 32.09 128.63 36.61 133.05 37.96 128.9 39.99 130.6 44.29 126.42 42.31 124.12 46.32"/></g></g></svg>