<?xml version="1.0" encoding="UTF-8"?><svg xmlns="http://www.w3.org/2000/svg" viewBox="0 0 312.25 167.2"><defs><style>.d{fill:#1d1d1b;}</style></defs><g id="a"/><g id="b"><g id="c"><polygon class="d" points="305.82 85.08 308.72 91.76 302.04 88.86 298.62 95.29 297.43 90.88 258.13 143.44 266.43 143.06 259.25 150.4 266.01 158.13 255.8 157.1 253.97 167.2 248.4 158.58 239.37 163.44 242.64 153.72 233.2 149.68 242.85 146.18 240.12 136.29 248.87 141.64 254.9 133.34 255.9 141.32 295.4 88.51 289.57 89.6 293.88 83.73 288.37 78.97 293.87 78.75 227.16 17.78 228.06 22.73 222.21 18.38 217.42 23.87 217.17 16.59 209.9 16.27 213.72 13 19.99 24.04 23.5 27.74 16.23 27.3 15.22 34.51 11.03 28.55 4.76 32.26 6.81 25.27 0 22.68 6.74 19.92 4.52 12.99 10.88 16.54 14.92 10.48 16.11 17.66 23.37 17.04 19.81 20.99 214.25 9.91 211.15 5.65 218.3 7.02 220.23 0 223.62 6.45 230.31 3.58 227.38 10.25 233.79 13.7 228.69 15.05 295.74 76.32 295.93 71.41 300.7 76.92 306.56 72.6 305.22 79.76 312.25 81.66 305.82 85.08"/></g></g></svg>