<?xml version="1.0" encoding="UTF-8"?><svg xmlns="http://www.w3.org/2000/svg" viewBox="0 0 202.12 317.92"><defs><style>.d{fill:#1d1d1b;}</style></defs><g id="a"/><g id="b"><g id="c"><polygon class="d" points="193.33 140.84 193.53 149.68 187.34 143.36 180.55 149.03 181.64 140.25 172.97 138.48 178.76 134.93 110.58 118.62 114.03 124.5 105.72 122.04 145.8 294.39 150.01 288.76 150.97 297.55 159.81 297.28 153.54 303.52 159.26 310.26 150.48 309.25 148.78 317.92 144.09 310.42 136.24 314.5 139.19 306.16 131.11 302.57 139.46 299.67 137.23 291.12 143.14 294.85 103.93 126.2 102.38 130.24 99.06 122.05 90.63 124.71 92.27 121.79 60.65 136.61 66.51 138.84 58.32 142.19 61.02 150.61 53.3 146.3 48.39 153.66 46.95 144.94 38.14 145.69 44.06 139.12 37.97 132.7 46.8 133.23 48.03 124.48 53.11 131.71 60.73 127.21 58.55 134.62 94.54 117.75 94.96 117 87.62 112.07 96.35 110.66 96.3 109.95 19.49 21.57 18.36 29.19 13.33 21.91 5.68 26.35 8.24 17.88 0 14.67 8.21 11.39 5.59 2.94 13.27 7.32 18.24 0 19.61 8.74 28.43 8.06 22.45 14.58 28.48 21.05 22.22 20.62 95.93 105.42 95.63 101.85 102.18 107.79 108.62 101.73 108.06 110.56 116.81 111.82 110.91 115.93 179.77 132.41 176.5 125.98 184.81 128.99 188.47 120.94 191.3 129.32 199.87 127.15 195.09 134.59 202.12 139.95 193.33 140.84"/></g></g></svg>