<?xml version="1.0" encoding="UTF-8"?><svg xmlns="http://www.w3.org/2000/svg" viewBox="0 0 236.35 272.91"><defs><style>.d{fill:#1d1d1b;}</style></defs><g id="a"/><g id="b"><g id="c"><path class="d" d="M223.09,26.49l3.39-6.06,6.31,2.9-2.63-6.42,6.2-3.12-6.66-1.95,1.42-6.79-5.68,3.99-4.42-5.35-.42,6.93-6.94,.13,2.35,2.12-63.94-2.25,3.93-3.77-6.94,.08-.63-6.91-4.26,5.48-5.79-3.82,1.62,6.75-6.6,2.15,6.29,2.94-2.43,6.5,6.22-3.08,3.56,5.96,1.13-5.23,25.96,36.06-9.81,.18,8.29,7.47-6.8,8.85,11.01-1.82,2.68,10.83,5.43-9.72,30.62,49.84-2.88-1.29,2.69,6.4-6.17,3.19,4.25,1.2-52.12,22.73,.95-10.4-8.34,7.42-8.05-7.73,.6,11.14-11.06,1.48,8.61,6.14-33.53,16.87,1.12-5.37-5.68,3.99-4.42-5.35-.42,6.93-6.94,.13,5.15,4.65-4.23,5.5,5.95-.98-11.05,22.86-3.04-6.02-1.94,6.66-6.79-1.41,4,5.67-5.34,4.43,5.34,.32-34.97,29.89,2.74-5.34-10.5,3.77-4.59-10.17-3.18,9.34-17.42-45.12,4.86,2.23-2.63-6.42,6.2-3.12-6.66-1.95,1.42-6.79-5.68,3.99-4.42-5.35-.42,6.93-6.94,.13,5.15,4.65-4.23,5.5,6.85-1.13,1.67,6.74,2.54-4.54,17.37,45-8.89-2.27,6.01,9.4-8.9,6.73,11.1,1.16-.28,11.16,7.83-7.95,8.55,7.18-1.34-11.08,10.94-2.21-9.06-5.59,38.51-32.9,.1,5.19,4.64-5.16,5.51,4.22-1.14-6.85,6.73-1.68-6.06-3.38,2.89-6.31-3.24,1.33,9.32-19.28,1.03,4.15,3.38-6.06,6.31,2.9-2.63-6.42,6.2-3.12-4.82-1.41,30.6-15.4-3.88,6.47,10.73-3.07,3.9,10.46,4.29-10.3,10.61,3.47-5.38-9.78,9.33-6.13-7.74-1.33,51.16-22.31-1.15,5.79,5.64-4.05,4.48,5.3,.35-6.93,6.94-.2-5.2-4.6,4.17-5.55-6.84,1.2-1.74-6.72-3.15,5.78-30.27-49.28,6.18,2.84-4.22-10.33,9.97-5.02-9.99-2.93,30.91-34.87,1.36,5.51Zm-32.26,25.66l1.55-7.43-9.13,6.42-7.12-8.6-.55,9.01-25.36-35.24,5.15,.69-3.23-3.95,66.63,2.35-4.21,5.48,4.65-.77-28.39,32.03Z"/></g></g></svg>