<?xml version="1.0" encoding="UTF-8"?><svg xmlns="http://www.w3.org/2000/svg" viewBox="0 0 269.38 221.69"><defs><style>.d{fill:#1d1d1b;}</style></defs><g id="a"/><g id="b"><g id="c"><polygon class="d" points="258.6 197.5 268.07 209.06 253.26 207.08 250.12 221.69 242.43 208.88 229.05 215.54 234.28 201.54 220.73 195.23 234.93 190.58 234.37 188.27 24.84 27.5 26.09 36.14 17.81 29.51 10.55 37.24 10.57 26.63 0 25.77 8.31 19.17 2.39 10.37 12.73 12.76 15.92 2.64 20.5 12.21 30.4 8.4 25.77 17.94 34.92 23.31 26.73 25.16 233.25 183.62 231.42 176.06 237.11 179.8 160.7 26.21 158.1 34.63 153.46 25.09 143.59 28.97 148.15 19.39 138.96 14.09 149.29 11.69 147.71 1.2 156.03 7.78 163.24 0 163.29 10.61 173.87 11.4 165.6 18.05 171.58 26.81 163.45 24.99 242.1 183.08 243.91 184.26 253.07 172.46 254.44 187.34 269.38 187.15 258.6 197.5"/></g></g></svg>