<?xml version="1.0" encoding="UTF-8"?><svg xmlns="http://www.w3.org/2000/svg" viewBox="0 0 482.82 274.95"><defs><style>.d{fill:#1d1d1b;}</style></defs><g id="a"/><g id="b"><g id="c"><polygon class="d" points="477.58 192.11 480.14 197.56 474.55 195.32 471.88 200.71 470.15 194.95 464.27 196.23 467.69 191.28 463.03 187.48 467.24 187.19 455.9 178.48 456.87 183.04 449.82 178.13 444.37 184.78 443.81 176.2 435.22 176.09 441.57 170.3 436.31 163.51 442.56 164.51 428.76 144.19 428.55 146.71 424.83 141.97 419.82 145.3 420.87 140.86 344.39 168.58 341.41 171.5 346.92 178.1 338.39 177.04 336.67 185.46 332.89 179.3 307.69 221.08 308.17 222.58 316.53 220.6 311.77 227.76 318.53 233.06 309.97 233.81 309.98 235.15 332.5 254.03 332.58 246.87 338.38 253.21 345.16 247.92 343.82 256.41 352.18 258.41 344.7 262.66 348.35 270.44 340.37 267.25 336.56 274.95 334.08 266.72 325.68 268.54 330.57 261.47 323.91 256.04 331.13 255.55 310 237.85 310.04 242.4 304.12 236.17 297.44 241.58 298.62 233.07 290.23 231.22 297.62 226.84 293.83 219.12 301.87 222.17 305.54 214.39 306.85 218.49 330.76 178.86 324.52 182.04 327.44 173.96 319.62 170.41 326.46 168.09 273.52 153.17 277.08 160.77 269.1 157.58 265.29 165.28 262.81 157.05 254.41 158.87 259.3 151.8 259.04 151.59 259.04 151.59 246.21 151.86 249.5 158.88 241.52 155.69 237.71 163.39 235.23 155.16 226.83 156.98 231.52 150.2 214.63 147.27 219.2 157.03 208.03 152.56 202.69 163.35 199.22 151.82 187.46 154.37 194.18 144.65 16.33 126.66 19.19 129.99 13.21 129.34 12.09 135.25 8.87 130.16 3.55 132.97 5.51 127.29 0 124.88 5.67 122.87 4.12 117.06 9.23 120.24 12.8 115.4 13.5 121.38 19.51 121.16 16.11 124.58 191.68 142.33 184.98 136.86 196.99 136.05 197.12 124.01 205.24 132.89 214.73 125.49 212.86 137.38 224.57 140.18 215.5 145.33 228.97 147.67 225.06 144.49 233.63 143.9 233.73 135.31 239.53 141.65 246.31 136.36 244.97 144.85 253.2 146.83 253.27 146.89 248.2 149.77 256.59 149.59 253.27 146.89 253.33 146.86 253.2 146.83 252.64 146.37 261.21 145.79 261.24 143.35 261.24 143.35 254.34 133.53 252.22 132.69 248.41 140.39 245.93 132.16 237.53 133.98 242.42 126.91 235.76 121.48 242.63 121.01 227.08 108.7 228.47 112.83 223.17 109.98 219.91 115.04 218.84 109.12 212.85 109.73 216.81 105.19 212.6 100.89 216.58 101.07 175 72.7 174.8 78.5 170.85 73.96 166.01 77.55 167.1 71.63 161.28 70.08 165.36 67.89 34.9 22.86 39.66 33.02 28.49 28.55 23.15 39.33 19.68 27.81 7.92 30.36 14.76 20.46 5.44 12.85 17.44 12.04 17.58 0 25.7 8.88 35.19 1.48 33.32 13.37 45.02 16.17 36.26 21.15 166.02 65.94 164.17 61.73 169.7 64.1 172.5 58.78 174.09 64.58 180 63.45 176.46 68.31 181.02 72.23 178.13 72.35 218.75 100.06 219.35 95.19 222.89 100.05 228.02 96.91 226.42 102.71 232.08 104.76 227.75 106.61 244.35 119.75 244.43 112.3 250.23 118.64 257.01 113.36 255.67 121.85 264.02 123.85 256.55 128.1 260.2 135.88 257.83 134.93 261.28 139.84 261.31 137.2 267.11 143.53 273.89 138.25 272.55 146.74 280.9 148.74 275.76 151.67 327.4 166.23 325.66 159.32 332.89 163.97 338.09 157.13 338.96 165.68 346.85 165.5 419.91 139.03 415.48 137.6 420.92 135.04 418.79 129.41 424.19 132.06 427.26 126.89 428.55 132.76 434.51 131.94 430.72 136.61 435.08 140.76 429.07 140.71 429.05 140.95 429.05 140.96 444.92 164.34 446.82 156.52 451.04 164 458.84 160.38 455.62 168.35 463.31 172.18 455.08 174.64 455.24 175.38 469.04 185.98 469.1 181.05 473.16 185.49 477.9 181.79 476.97 187.73 482.82 189.14 477.58 192.11"/></g></g></svg>