<?xml version="1.0" encoding="UTF-8"?><svg xmlns="http://www.w3.org/2000/svg" viewBox="0 0 380.52 167.98"><defs><style>.d{fill:#1d1d1b;}</style></defs><g id="a"/><g id="b"><g id="c"><path class="d" d="M380.52,19.51l-8.55-4.19,3.5-8.85-8.6,4.07-4.73-8.26-2.18,9.26-9.41-1.45,4.07,5.18-39.16-5.21,3.23-2.29-6.81-.93,.39-6.87-4.97,4.75-5.12-4.59,.61,6.85-6.78,1.15,3.66,2.42L102.53,47.97l3.19-11.89-11.15,6.94-7.8-10.56-1.52,13.04-13.12-.49,9.25,9.32-8.57,9.95,7.87-.85L15.45,149.51l-.25-4.13-4.38,5.3-5.63-3.95,1.41,6.73-6.6,1.93,6.14,3.09-2.6,6.37,6.25-2.87,3.35,6,1.65-6.68,6.78,1.12-2.85-3.71,175.46-15.71-6.24,7.25,13.05-1.42,2.44,12.9,7.03-11.09,11.61,6.14-4.29-12.41,12.03-5.25-11.77-4.17,79.88-60.16,2.31,12.22,7.03-11.09,11.61,6.14-4.29-12.41,12.04-5.25-10.56-3.74,42.98-35.16,.58,8.11,5.99-7.4,7.85,5.38-2.05-9.29,9.1-2.78Zm-65.55,37.85l2.69-10.04-11.15,6.94-7.8-10.56-1.52,13.04-13.12-.49,9.25,9.32-8.56,9.95,7.95-.86-74.12,55.82,2.26-8.43-11.15,6.94-7.8-10.56-1.52,13.04-13.12-.49,8.54,8.61-176.69,15.82,3.38-3.05-5.06-.09L85.12,62.94l.74-.08,2.44,12.9,7.03-11.09,11.61,6.14-4.29-12.41,12.03-5.25-7.67-2.72L300.78,13.68l-2.37,4.29,6.54-2.12,2.63,6.36,2.42-6.44,6.61,1.91-2.69-4.52,41.37,5.5-5.84,5.38,6.2,.04-40.67,33.28Z"/></g></g></svg>