<?xml version="1.0" encoding="UTF-8"?><svg xmlns="http://www.w3.org/2000/svg" viewBox="0 0 266.49 208.19"><defs><style>.d{fill:#1d1d1b;}</style></defs><g id="a"/><g id="b"><g id="c"><path class="d" d="M266.49,175.41l-10.17-3.49,2.68-10.41-9.07,5.78-6.47-8.58-.49,4.64L164.12,27.55l5.01,2.03-4.51-9.76,9.37-5.27-10.44-2.55,1.73-10.61-8.51,6.57-7.22-7.96-.17,10.75-10.73,.68,8.3,6.83-6.16,8.81,7.5-1.59L23.69,180.73l-1.03-8.01-6.28,8.72-9.19-5.57,2.91,10.35-10.09,3.71,9.9,4.18-3.39,10.2,9.44-5.14,5.86,9.01,1.87-10.59,10.7,1.03-6.41-7.27,209.73-12.91-5.42,6.43,10.67-1.27,2.11,10.54,5.66-9.14,9.55,4.92-3.61-10.12,9.81-4.4Zm-24.17-6.02l-10.75-.29,6.74,6.66-209.17,12.88,5.61-5.79-9.78,.48L151.54,25.65l2.81,9.5,4.81-9.61,.95,.39,82.38,141.87-.17,1.6Z"/></g></g></svg>