<?xml version="1.0" encoding="UTF-8"?><svg xmlns="http://www.w3.org/2000/svg" viewBox="0 0 322.8 311.12"><defs><style>.d{fill:#1d1d1b;}</style></defs><g id="a"/><g id="b"><g id="c"><path class="d" d="M322.8,288.88l-11.7-3.49,2.56-11.93-10.02,6.97-7.73-9.44-.41,6.24L98.78,25.52l10.3-2.88-10.83-5.63,4.76-11.24-11.15,4.96L86.03,0l-3.08,11.81-12.02-2.14,7.32,9.77-9.16,8.06,10.84,.33L25.88,93.03l-2.1-9.3-6.17,10.53-10.98-5.32,4.39,11.39L0,105.6l11.64,3.67-2.74,11.89,10.13-6.81,7.59,9.56,.92-11.32,260.73,170.65-5.36,.07,9.02,8.22-7.49,9.64,12.05-1.93,2.87,11.86,6.01-10.63,11.07,5.15-4.56-11.32,10.93-5.44Zm-27.7-5.72l-2.09,.03L31.1,111.76l8.71,.02-8.89-8.36,7.63-9.52-11.29,1.63L81.4,30.23l.48,9.85,7.9-9.31,9.9,7.14-1.82-9.26,197.38,252.55-.13,1.97Z"/></g></g></svg>