<?xml version="1.0" encoding="UTF-8"?><svg xmlns="http://www.w3.org/2000/svg" viewBox="0 0 382.98 198.8"><defs><style>.d{fill:#1d1d1b;}</style></defs><g id="a"/><g id="b"><g id="c"><path class="d" d="M382.98,77.47l-13.62-1.46,.38-13.69-9.63,9.74-10.47-8.84,1.21,10.26L213.42,16.31l7.52-5.32-9.6-1.32,.56-9.67-7.01,6.68L197.67,.22l.85,9.65-9.55,1.61,8.08,5.35-.56,1L21.63,129.31l-.8-7.87-5.87,7.71-8.15-5.24,2.37,9.39-9.18,3.1,8.82,4.01-3.3,9.11,8.63-4.4,5.06,8.26,1.72-8.39,28.96,23.94-7.33,1.82,8.46,4.72-4.04,8.81,8.97-3.67,4.37,8.65,2.72-9.3,9.48,1.98-4.31-6.12,30.21,2.77-4.74,3.43,8.15,1.03-.39,8.21,5.89-5.73,6.18,5.42-.81-8.18,8.09-1.45-6.9-4.47,3.91-7.23-4.93,1.65L201.59,22.36l3.68,8.91,3.42-9.06,9.31,2.69-2.86-4.81,136.11,56.63v.09l-13.42,2.67,11.64,7.22-6.29,12.17,12.9-4.59,.71,1.58h0l-41.22,79.06-3.18-7.48-3.33,9.1-9.33-2.6,5.04,8.27-7.85,5.68,9.61,1.22-.46,9.68,6.94-6.76,7.28,6.39-.95-9.64,9.54-1.71-8.13-5.27,4.61-8.52-6.94,2.32,39.85-76.43,3.4,7.6,4.45-12.95,13.26,3.42-7.35-11.56,10.94-8.24ZM109.59,171.22l-2.79-6.56-2.82,7.72-7.92-2.2,3.44,5.64-31.28-2.87,6.19-5.13-9.67-.58-.18-9.69-6.48,7.2-7.69-5.9,1.3,7.86-27.1-22.4,6.19,.77-6.21-7.44,6.92-6.78-7.25,.16L193.59,23.06l-1.25,2.25,5.16-1.67L109.59,171.22Z"/></g></g></svg>