<?xml version="1.0" encoding="UTF-8"?><svg xmlns="http://www.w3.org/2000/svg" viewBox="0 0 407.69 519.35"><defs><style>.d{fill:#1d1d1b;}</style></defs><g id="a"/><g id="b"><g id="c"><path class="d" d="M407.69,262.98l-6.47-3.69,3.17-6.74-6.92,2.75-3.29-6.68-2.16,7.13-7.27-1.6,4.22,6.13-5.78,4.69,4.74,.33-63.27,54.94,54.47-68.76,.53,5,4.48-5.95,6.28,4-1.86-7.21,7.04-2.42-6.8-3.04,2.5-7.01-6.62,3.41-3.92-6.33-1.46,7.3-7.39-.88,4.8,5.69-5.3,5.23,5.74-.16-60.59,76.49-1.09-5.28-3.88,6.35-6.64-3.37,2.55,7-6.77,3.09,3.56,1.2-57.66,27.11,3.4-4.73-7.31,1.44-2.01-7.17-3.43,6.61-6.86-2.89,2.3,5.16-42.54-28.14,7.09-1.68-8.95-5.11,4.39-9.32-8.17,3.25,20.75-63.86,2.95,6.55,3.32-9.75,9.99,2.55-5.55-8.68,8.22-6.22-10.25-1.07,.26-10.3-3.03,3.08,17.94-98.35,2.38,5.01,2.26-7.1,7.25,1.69-2.37-3.54,73.14,2.48-3.1,5.48,7.1-2.23,2.78,6.91,2.69-6.95,7.14,2.13-3.75-6.43,6.12-4.25-.8-.12,49.5-28.92-1.37,4.02,6.57-3.5,4.01,6.27,1.36-7.32,7.41,.78-4.88-5.63,5.23-5.3-7.44,.31-.89-7.39-4.4,6.01-6.34-3.91,1.95,7.19-7.01,2.51,5.8,2.51-52.22,30.51-1.18,1.32-.86-.13,2.05-1.2,38.86-43.43,.04,4.55,5.04-5.48,5.86,4.59-1.14-7.36,7.24-1.72-6.47-3.69,3.17-6.74-6.92,2.75-3.29-6.68-2.16,7.13-7.27-1.6,4.22,6.13-5.78,4.69,6.1,.43-41.28,46.14,.41-6.21-5.43,5.09-5.5-5.01,.59,7.42-7.35,1.18,3.07,2.07-71.87-2.44,5.34-4.22-7.42-.62,.04-7.45-3.52,3.72,16.55-97.83,2.03,4.5,2.4-7.05,7.22,1.84-4.01-6.27,5.94-4.5-7.41-.77,.19-7.44-5.22,5.31-5.7-4.79,.9,7.39-7.3,1.48,6.34,3.91-3.4,6.63,4.69-1.69-40.6,67.23-1.57-6.44-3.66,6.49-6.75-3.14,2.79,6.9-6.66,3.32,7.14,2.12-1.56,7.28,3.52-2.45-38.56,94.56-2.13-6.49-4.32,9.3-9.62-3.57,4.58,9.18-8.79,5.29,10.03,2.14-1.34,10.17,3.08-2.52-31.56,99.65-2.26-4.55-2.14,7.13-7.28-1.57,4.24,6.12-5.76,4.71,5.1,.34-31.45,35.92,1.4-6.14-8.5,5.74-6.39-8.02-.81,10.22h-10.26l7.49,7.01-6.4,8.02,8.16-1.2-21.18,19.98-.42-7.85-6.6,7.85-8.35-5.96,2.03,10.06-9.87,2.81,9.12,4.69-3.95,9.47,6.31-2.84-15.9,71.86-4.36-5.47-.81,10.22H0l7.49,7.01-6.4,8.02,10.15-1.49,2.28,10,5.17-8.86,9.24,4.45-3.71-9.56,9.24-4.45-9.79-3.06,2.28-10-7.94,5.36,16.59-74.97,4.7,8.56,2.54-9.94,10.11,1.75-6.19-8.18,7.67-6.81-8.59-.22,21.86-20.62,1.8,7.9,5.17-8.86,9.24,4.45-3.71-9.56,9.24-4.45-8.62-2.7,33.51-38.27,.07,5.73,5.02-5.5,5.88,4.57-1.17-7.35,7.24-1.75-4.15-2.35,43.46,3.31-6.3,5.11,10.28,.72,.09,10.3,6.98-7.59,8.11,6.36-1.42-9.11,44.01,29.11-4.51,2.46,7.21,1.87-1.3,7.33,5.96-4.47,4.93,5.58,.22-7.44,7.44-.37-3.83-3.24,60.11-28.26-1.67,6.66,6.25-4.04,4.52,5.92,.74-7.41,7.44,.15-5.33-5.2,4.76-5.72-3.01,.38,69.26-60.14,.05,6,5.04-5.48,5.86,4.59-1.14-7.36,7.24-1.72ZM207.8,85.76l36.67-60.72-15.73,92.95-4.27-3.44,.76,5.4-17.24-23.9,4.96-.07-5.51-5.01,4.56-5.89-4.21,.68Zm-6.57,13.13l3.8,4.63,.38-5.92,17.9,24.82-5.07,1.13,6.41,3.78-3.27,6.69,4.89-1.87-18.81,103.08-.45,.46-7.89-6.63,.93,7.68-35.92-26.14,8.53-.8-8.11-6.28,5.62-8.58-9.02,2.2,40.07-98.25Zm-22.63,211.56l-2.99,9.86-10.07-2.21,4.76,6.91-45.57-3.47,2.31-4.94-5.27,2.12,33.13-104.6,.59-.49,7.11,7.39-.11-7.9,36.38,26.48-8.61,1.74,8.77,5.41-4.71,9.17,8.62-3.1-20.96,64.51-3.39-6.88Z"/></g></g></svg>