<?xml version="1.0" encoding="UTF-8"?><svg xmlns="http://www.w3.org/2000/svg" viewBox="0 0 384.69 195.2"><defs><style>.d{fill:#1d1d1b;}</style></defs><g id="a"/><g id="b"><g id="c"><path class="d" d="M384.69,168.78l-14.14-4.57,3.44-14.46-12.39,8.21-9.16-11.7-1.25,14.15-38.83-34.87,7.77,1.47-8.78-11.99,11.26-9.7-14.85-.61-.57-14.85-9.73,11.23-11.96-8.82,2.56,13.76-53.74-36.86,7.04-1.19-8.8-5.83,5.12-9.23-10.05,3.24-4.03-9.76-3.73,9.88-10.14-2.94,5.06,8.5-75.96-3.69,5.86-6.67-10.51,1.04-1.86-10.39-5.19,8.01-11.93-33.12,5.01,2.05-2.88-6.29,6.04-3.37-6.71-1.67,1.13-6.82-5.49,4.21-4.63-5.14-.13,6.91-6.9,.41,4.73,3.92L24.69,37.02l.92-8.32-8.01,6.87-7.48-7.45,.38,10.55-10.49,1.21,8.48,6.28-5.6,8.95,10.2-2.71,3.51,9.96,3.28-7.48,13.85,23.54-9.58-2.77,7.6,12.77-12.13,8.58,14.72,2.02-.85,14.84,10.76-10.25,11.07,9.92-1.31-14.8,14.65-2.47-11.93-7.9,63.54-24.83,.59,.22-2.83,10.17,9.02-5.49,6.18,8.56,1.33-10.47,10.54,.5-6.34-6.52,74.06,3.6-6.29,4.45,10.46,1.44-.61,10.54,7.64-7.28,7.86,7.05-.93-10.52,.1-.02,55.02,37.74-12.2,3.28,13.11,6.99-5.93,13.62,13.64-5.9,6.95,13.13,3.89-14.34,2.46,.46,40.45,36.32-12.17-.11,10.76,10.25-9.37,11.53,14.72-2.02,3.17,14.52,7.6-12.77,13.33,6.57-5.24-13.9,13.45-6.32ZM117.32,45.97l3.35,10.01-9.72,4.13,6.05,2.21-59.33,23.19,5.8-10.46-14.14,4.57-5.67-13.74-5.25,13.9-1.47-.43-15.58-26.48,9.44,3.28-4.92-9.34,8.93-5.64-9.73-1.86L104.42,13.98l-2.4,3.41,6.77-1.41,1.94,6.64,2.38-4.71,11.52,32.01-7.31-3.95Z"/></g></g></svg>