<?xml version="1.0" encoding="UTF-8"?><svg xmlns="http://www.w3.org/2000/svg" viewBox="0 0 348.88 212.59"><defs><style>.d{fill:#1d1d1b;}</style></defs><g id="a"/><g id="b"><g id="c"><path class="d" d="M348.88,124.47l-10.34-4.02,3.19-10.63-9.59,5.58-6.32-9.12-1.42,9.62-98.2-63.82,9.39-4.66-10.63-3.19,2.34-10.85-9.12,6.32-7.02-8.59-.7,10.39-39.67-27.4,5.05-2.03-6.87-2.67,2.12-7.06-6.37,3.71-4.19-6.06-1.07,7.29-7.35-.5,4.38,4.69L75.88,31.59l2.56-8.51-9.59,5.58-6.32-9.12-1.62,10.98-11.07-.75,7.58,8.11-7.49,8.19,9.38-.74L18.32,124.67l-5.63-8.13-1.62,10.98-11.07-.75,7.58,8.11L.09,143.07l11.06-.87,1.74,10.96,6.22-9.19,9.65,5.48-2.21-7.08,80.54,40.95-5.83,2.73,7,2.28-1.72,7.16,6.15-4.05,4.53,5.81,.66-7.34,7.37,.08-2.62-2.51,45.59,2.92-3.19,4.68,7.19-1.61,2.17,7.04,3.22-6.63,6.86,2.69-2.43-5.1,51.08,4.37-6.08,6.66,11.06-.87,1.74,10.96,6.22-9.19,9.65,5.48-3.31-10.59,10.3-4.13-8.99-3.49,70.86-56.98,1.46,9.23,6.22-9.19,9.65,5.48-3.31-10.59,10.3-4.13Zm-95.95,63.72l2.61-8.68-9.59,5.58-6.32-9.12-1.62,10.98-11.07-.75,6.8,7.28-51.04-4.36,4.97-2.87-7.18-1.66,1.09-7.29-5.78,4.57-5.01-5.4-.03,7.37-7.35,.55,4.46,3.58-47.97-3.07,4.66-5.7-7.3,.99-1.56-7.2-3.78,6.32-6.6-3.27,1.71,4.57L25.55,139.16l-.09-.3,10.3-4.13-10.34-4.02,3.19-10.63-7.43,4.32L61.25,46.83l1.48,9.34,6.22-9.19,9.65,5.48-3.31-10.59,10.3-4.13-9.52-3.7L155.22,14.29l-3.04,3.32,7.34-.58,1.15,7.28,4.13-6.1,6.41,3.64-1.8-5.78,37.86,26.16-7.94,.09,8.19,7.49-6.82,8.76,10.96-1.74,2.6,10.79,5.47-9.65,10.05,4.7-2.91-7.26,94.95,61.71-8.69-.59,7.58,8.11-7.49,8.19,9.49-.74-69.78,56.12Z"/></g></g></svg>