<?xml version="1.0" encoding="UTF-8"?><svg xmlns="http://www.w3.org/2000/svg" viewBox="0 0 408.02 228.72"><defs><style>.d{fill:#1d1d1b;}</style></defs><g id="a"/><g id="b"><g id="c"><path class="d" d="M408.02,84.69l-8.04-1.05,.42-8.09-5.83,5.63-6.07-5.37,.57,6-47.35-50.35,12.72-5.55-15.49-5.49,4.25-15.87-13.95,8.69-9.76-13.22-1.9,16.32-16.42-.61,10.6,10.69L103.12,102.22l2.04-7.61-6.88,4.28-4.81-6.52-.94,8.05-8.1-.3,5.71,5.75-5.29,6.14,6.83-.74L24.96,200.83l-1.41-9.53-6.45,9.33-9.81-5.69,3.27,10.86-10.56,4.12,10.53,4.21-3.37,10.83,9.86-5.61,6.37,9.38,1.76-11.2,11.31,.87-7.66-8.36,7.73-8.29-9.19,.63L93.39,113.7l1.02,5.4,4.34-6.84,7.16,3.79-2.55-7.38,90.57,23.04-4.79,4.38,8.1,.09,.55,8.08,5.12-6.28,6.66,4.61-1.29-5.96,127.85,58.92-8.61,3.68,10.66,3.87-3.02,10.93,9.67-5.92,6.67,9.17,1.4-11.25,11.33,.51-7.93-8.11,7.46-8.54-10.11,1.02,38.86-95.08,2.48,5.91,2.81-7.6,7.8,2.21-4.19-6.94,6.59-4.72Zm-56.12,103.08l-1.43-7.9-6.14,9.53-9.99-5.37,3.03,8.98-127.74-58.87,6-1.8-7.26-3.6,3.01-7.52-7.34,3.43-4-7.05-1.89,7.88-8-1.26,3.51,4.5-86.55-22.02,3.59-1.57-3.73-1.32L310.66,29.8l-8.63,10.03,16.34-1.78,3.06,16.15,8.8-13.88,14.53,7.68-5.03-14.56,47.73,50.76-6.16,1.08,6.78,4.43-3.89,7.11,5.67-1.87-37.95,92.83Z"/></g></g></svg>