<?xml version="1.0" encoding="UTF-8"?><svg xmlns="http://www.w3.org/2000/svg" viewBox="0 0 415.56 318.03"><defs><style>.d{fill:#1d1d1b;}</style></defs><g id="a"/><g id="b"><g id="c"><polygon class="d" points="415.56 305.77 403.3 305.81 402.38 318.03 394.71 308.48 384.58 315.37 387.26 303.42 375.55 299.8 386.58 294.44 382.11 283.03 391.73 287.63 373.29 235.36 366.62 243.1 366.11 230.86 353.87 230.4 362.13 223.23 263.67 197.38 267.76 208.27 256.78 202.84 250.5 213.36 247.89 201.39 235.75 203.04 243.49 193.54 242.8 192.88 36.63 156.46 41.78 165.28 30.04 161.77 25.61 173.2 21.04 161.83 9.34 165.5 15.38 154.83 5.22 147.98 17.32 146.05 16.35 133.83 25.4 142.09 34.35 133.71 33.54 145.94 45.66 147.71 37.88 153.12 238.23 188.51 234.63 185.07 243.7 185.17 224.76 167 222.32 177.99 216.09 167.43 205.08 172.81 209.45 161.36 198.38 156.11 207.84 153.09 176.35 130.4 179.86 140 168.93 134.47 162.56 144.94 160.06 132.94 147.9 134.49 155.72 125.06 146.93 116.52 156.8 116.7 28.66 28.89 29.91 38.92 20.49 31.07 11.93 39.84 12.19 27.59 0 26.37 9.74 18.93 3.1 8.63 14.98 11.62 18.89 0 23.97 11.15 35.49 6.97 29.94 17.89 40.39 24.29 30.98 26.22 159.43 114.25 160.38 104.55 167.84 114.28 178.12 107.61 175.16 119.5 186.79 123.38 178.13 127.35 209.48 149.95 207.26 140.45 217.45 147.25 225.04 137.63 226.07 149.84 238.32 149.77 229.42 158.2 237.12 167.73 229.48 166.66 247.04 183.5 247.98 172.99 255.52 182.65 265.74 175.9 262.89 187.82 274.55 191.6 267.71 194.81 360.83 219.26 355.84 212.51 367.89 214.74 371.07 202.9 376.84 213.71 388.07 208.81 383.21 220.06 394.05 225.79 382.23 229.01 384.51 241.05 377.11 235.64 394.74 285.59 399.3 277.7 402.07 289.64 414.19 287.82 406.58 297.43 415.56 305.77"/></g></g></svg>